<mxfile host="Electron" modified="2023-09-16T18:24:42.693Z" agent="Mozilla/5.0 (Windows NT 10.0; Win64; x64) AppleWebKit/537.36 (KHTML, like Gecko) draw.io/21.7.5 Chrome/114.0.5735.289 Electron/25.8.1 Safari/537.36" etag="XzH9yTH0no9NIWyUBYPT" version="21.7.5" type="device">
  <diagram name="Page-1" id="Tx0Jb9QSg2QdqR6fLtg6">
    <mxGraphModel dx="1715" dy="1023" grid="1" gridSize="10" guides="1" tooltips="1" connect="1" arrows="1" fold="1" page="1" pageScale="0.75" pageWidth="850" pageHeight="1100" background="#ffffff" math="0" shadow="0">
      <root>
        <mxCell id="0" />
        <mxCell id="1" parent="0" />
        <mxCell id="Sw4VsKgp_dIkettjenq2-21" style="edgeStyle=orthogonalEdgeStyle;rounded=0;orthogonalLoop=1;jettySize=auto;html=1;exitX=0.5;exitY=1;exitDx=0;exitDy=0;entryX=0.5;entryY=0;entryDx=0;entryDy=0;fontFamily=Helvetica;fontSize=12;fontColor=#000000;strokeColor=#000000;" parent="1" source="Sw4VsKgp_dIkettjenq2-1" target="Sw4VsKgp_dIkettjenq2-3" edge="1">
          <mxGeometry relative="1" as="geometry" />
        </mxCell>
        <mxCell id="Sw4VsKgp_dIkettjenq2-1" value="Начало" style="ellipse;whiteSpace=wrap;html=1;fillColor=#FFFFFF;strokeColor=#000000;fontColor=#000000;" parent="1" vertex="1">
          <mxGeometry x="105" y="40" width="60" height="60" as="geometry" />
        </mxCell>
        <mxCell id="Sw4VsKgp_dIkettjenq2-23" style="edgeStyle=orthogonalEdgeStyle;shape=connector;rounded=0;orthogonalLoop=1;jettySize=auto;html=1;exitX=0.5;exitY=1;exitDx=0;exitDy=0;entryX=0.5;entryY=0;entryDx=0;entryDy=0;labelBackgroundColor=default;strokeColor=#000000;fontFamily=Helvetica;fontSize=12;fontColor=#000000;endArrow=classic;" parent="1" source="Sw4VsKgp_dIkettjenq2-3" target="Sw4VsKgp_dIkettjenq2-4" edge="1">
          <mxGeometry relative="1" as="geometry" />
        </mxCell>
        <mxCell id="Sw4VsKgp_dIkettjenq2-3" value="Ввод переменных&lt;br&gt;p, a, b, c, P{x&lt;sub&gt;1&lt;/sub&gt;,y&lt;sub&gt;1&lt;/sub&gt;}, Q{x&lt;sub&gt;2&lt;/sub&gt;, y&lt;sub&gt;2&lt;/sub&gt;}" style="rounded=0;whiteSpace=wrap;html=1;strokeColor=#000000;fontFamily=Helvetica;fontSize=12;fontColor=#000000;fillColor=#FFFFFF;" parent="1" vertex="1">
          <mxGeometry x="50" y="120" width="170" height="40" as="geometry" />
        </mxCell>
        <mxCell id="Sw4VsKgp_dIkettjenq2-24" style="edgeStyle=orthogonalEdgeStyle;shape=connector;rounded=0;orthogonalLoop=1;jettySize=auto;html=1;exitX=0.5;exitY=1;exitDx=0;exitDy=0;entryX=0.5;entryY=0;entryDx=0;entryDy=0;labelBackgroundColor=default;strokeColor=#000000;fontFamily=Helvetica;fontSize=12;fontColor=#000000;endArrow=classic;" parent="1" source="Sw4VsKgp_dIkettjenq2-4" target="Sw4VsKgp_dIkettjenq2-5" edge="1">
          <mxGeometry relative="1" as="geometry" />
        </mxCell>
        <mxCell id="Sw4VsKgp_dIkettjenq2-29" value="Нет" style="edgeLabel;html=1;align=center;verticalAlign=middle;resizable=0;points=[];fontSize=12;fontFamily=Helvetica;fontColor=#000000;labelBackgroundColor=none;" parent="Sw4VsKgp_dIkettjenq2-24" vertex="1" connectable="0">
          <mxGeometry x="-0.2154" relative="1" as="geometry">
            <mxPoint x="15" as="offset" />
          </mxGeometry>
        </mxCell>
        <mxCell id="Sw4VsKgp_dIkettjenq2-39" style="edgeStyle=orthogonalEdgeStyle;shape=connector;rounded=0;orthogonalLoop=1;jettySize=auto;html=1;exitX=1;exitY=0.5;exitDx=0;exitDy=0;entryX=0;entryY=0.5;entryDx=0;entryDy=0;labelBackgroundColor=default;strokeColor=#000000;fontFamily=Helvetica;fontSize=12;fontColor=#000000;endArrow=classic;" parent="1" source="Sw4VsKgp_dIkettjenq2-4" target="Sw4VsKgp_dIkettjenq2-10" edge="1">
          <mxGeometry relative="1" as="geometry" />
        </mxCell>
        <mxCell id="Sw4VsKgp_dIkettjenq2-40" value="Да" style="edgeLabel;html=1;align=center;verticalAlign=middle;resizable=0;points=[];labelBackgroundColor=none;fontColor=#000000;" parent="Sw4VsKgp_dIkettjenq2-39" vertex="1" connectable="0">
          <mxGeometry x="-0.253" relative="1" as="geometry">
            <mxPoint x="1" y="-10" as="offset" />
          </mxGeometry>
        </mxCell>
        <mxCell id="Sw4VsKgp_dIkettjenq2-4" value="P = {O}" style="rhombus;whiteSpace=wrap;html=1;strokeColor=#000000;fontFamily=Helvetica;fontSize=12;fontColor=#000000;fillColor=#FFFFFF;" parent="1" vertex="1">
          <mxGeometry x="75" y="180" width="120" height="60" as="geometry" />
        </mxCell>
        <mxCell id="Sw4VsKgp_dIkettjenq2-25" style="edgeStyle=orthogonalEdgeStyle;shape=connector;rounded=0;orthogonalLoop=1;jettySize=auto;html=1;exitX=0.5;exitY=1;exitDx=0;exitDy=0;entryX=0.5;entryY=0;entryDx=0;entryDy=0;labelBackgroundColor=none;strokeColor=#000000;fontFamily=Helvetica;fontSize=12;fontColor=#000000;endArrow=classic;" parent="1" source="Sw4VsKgp_dIkettjenq2-5" target="Sw4VsKgp_dIkettjenq2-6" edge="1">
          <mxGeometry relative="1" as="geometry" />
        </mxCell>
        <mxCell id="Sw4VsKgp_dIkettjenq2-30" value="Нет" style="edgeLabel;html=1;align=center;verticalAlign=middle;resizable=0;points=[];fontSize=12;fontFamily=Helvetica;fontColor=#000000;labelBackgroundColor=none;" parent="Sw4VsKgp_dIkettjenq2-25" vertex="1" connectable="0">
          <mxGeometry x="-0.1128" y="1" relative="1" as="geometry">
            <mxPoint x="14" as="offset" />
          </mxGeometry>
        </mxCell>
        <mxCell id="Sw4VsKgp_dIkettjenq2-38" style="edgeStyle=orthogonalEdgeStyle;shape=connector;rounded=0;orthogonalLoop=1;jettySize=auto;html=1;exitX=1;exitY=0.5;exitDx=0;exitDy=0;entryX=0;entryY=0.5;entryDx=0;entryDy=0;labelBackgroundColor=default;strokeColor=#000000;fontFamily=Helvetica;fontSize=12;fontColor=#000000;endArrow=classic;" parent="1" source="Sw4VsKgp_dIkettjenq2-5" target="Sw4VsKgp_dIkettjenq2-11" edge="1">
          <mxGeometry relative="1" as="geometry" />
        </mxCell>
        <mxCell id="Sw4VsKgp_dIkettjenq2-5" value="Q = {O}" style="rhombus;whiteSpace=wrap;html=1;strokeColor=#000000;fontFamily=Helvetica;fontSize=12;fontColor=#000000;fillColor=#FFFFFF;" parent="1" vertex="1">
          <mxGeometry x="75" y="270" width="120" height="60" as="geometry" />
        </mxCell>
        <mxCell id="Sw4VsKgp_dIkettjenq2-26" style="edgeStyle=orthogonalEdgeStyle;shape=connector;rounded=0;orthogonalLoop=1;jettySize=auto;html=1;exitX=0.5;exitY=1;exitDx=0;exitDy=0;entryX=0.5;entryY=0;entryDx=0;entryDy=0;labelBackgroundColor=default;strokeColor=#000000;fontFamily=Helvetica;fontSize=12;fontColor=#000000;endArrow=classic;" parent="1" source="Sw4VsKgp_dIkettjenq2-6" target="Sw4VsKgp_dIkettjenq2-7" edge="1">
          <mxGeometry relative="1" as="geometry" />
        </mxCell>
        <mxCell id="Sw4VsKgp_dIkettjenq2-31" value="Нет" style="edgeLabel;html=1;align=center;verticalAlign=middle;resizable=0;points=[];fontSize=12;fontFamily=Helvetica;fontColor=#000000;labelBackgroundColor=none;" parent="Sw4VsKgp_dIkettjenq2-26" vertex="1" connectable="0">
          <mxGeometry x="-0.352" y="-1" relative="1" as="geometry">
            <mxPoint x="16" as="offset" />
          </mxGeometry>
        </mxCell>
        <mxCell id="Sw4VsKgp_dIkettjenq2-37" style="edgeStyle=orthogonalEdgeStyle;shape=connector;rounded=0;orthogonalLoop=1;jettySize=auto;html=1;exitX=1;exitY=0.5;exitDx=0;exitDy=0;entryX=0;entryY=0.5;entryDx=0;entryDy=0;labelBackgroundColor=default;strokeColor=#000000;fontFamily=Helvetica;fontSize=12;fontColor=#000000;endArrow=classic;" parent="1" source="Sw4VsKgp_dIkettjenq2-6" target="Sw4VsKgp_dIkettjenq2-18" edge="1">
          <mxGeometry relative="1" as="geometry" />
        </mxCell>
        <mxCell id="Sw4VsKgp_dIkettjenq2-6" value="x&lt;sub&gt;1&lt;/sub&gt;&amp;nbsp;≠&amp;nbsp;x&lt;sub&gt;2&lt;/sub&gt;" style="rhombus;whiteSpace=wrap;html=1;strokeColor=#000000;fontFamily=Helvetica;fontSize=12;fontColor=#000000;fillColor=#FFFFFF;" parent="1" vertex="1">
          <mxGeometry x="75" y="360" width="120" height="60" as="geometry" />
        </mxCell>
        <mxCell id="Sw4VsKgp_dIkettjenq2-27" style="edgeStyle=orthogonalEdgeStyle;shape=connector;rounded=0;orthogonalLoop=1;jettySize=auto;html=1;exitX=0.5;exitY=1;exitDx=0;exitDy=0;entryX=0.5;entryY=0;entryDx=0;entryDy=0;labelBackgroundColor=default;strokeColor=#000000;fontFamily=Helvetica;fontSize=12;fontColor=#000000;endArrow=classic;" parent="1" source="Sw4VsKgp_dIkettjenq2-7" target="Sw4VsKgp_dIkettjenq2-8" edge="1">
          <mxGeometry relative="1" as="geometry" />
        </mxCell>
        <mxCell id="Sw4VsKgp_dIkettjenq2-32" value="Нет" style="edgeLabel;html=1;align=center;verticalAlign=middle;resizable=0;points=[];fontSize=12;fontFamily=Helvetica;fontColor=#000000;labelBackgroundColor=none;" parent="Sw4VsKgp_dIkettjenq2-27" vertex="1" connectable="0">
          <mxGeometry x="-0.1433" y="1" relative="1" as="geometry">
            <mxPoint x="14" y="-3" as="offset" />
          </mxGeometry>
        </mxCell>
        <mxCell id="Sw4VsKgp_dIkettjenq2-36" style="edgeStyle=orthogonalEdgeStyle;shape=connector;rounded=0;orthogonalLoop=1;jettySize=auto;html=1;exitX=1;exitY=0.5;exitDx=0;exitDy=0;entryX=0;entryY=0.5;entryDx=0;entryDy=0;labelBackgroundColor=default;strokeColor=#000000;fontFamily=Helvetica;fontSize=12;fontColor=#000000;endArrow=classic;" parent="1" source="Sw4VsKgp_dIkettjenq2-7" target="Sw4VsKgp_dIkettjenq2-13" edge="1">
          <mxGeometry relative="1" as="geometry" />
        </mxCell>
        <mxCell id="Sw4VsKgp_dIkettjenq2-7" value="(P=Q)^(y&lt;sub&gt;1&lt;/sub&gt;=0)" style="rhombus;whiteSpace=wrap;html=1;strokeColor=#000000;fontFamily=Helvetica;fontSize=12;fontColor=#000000;fillColor=#FFFFFF;" parent="1" vertex="1">
          <mxGeometry x="75" y="450" width="120" height="60" as="geometry" />
        </mxCell>
        <mxCell id="Sw4VsKgp_dIkettjenq2-28" style="edgeStyle=orthogonalEdgeStyle;shape=connector;rounded=0;orthogonalLoop=1;jettySize=auto;html=1;exitX=0.5;exitY=1;exitDx=0;exitDy=0;entryX=0.5;entryY=0;entryDx=0;entryDy=0;labelBackgroundColor=none;strokeColor=#000000;fontFamily=Helvetica;fontSize=12;fontColor=#000000;endArrow=classic;" parent="1" source="Sw4VsKgp_dIkettjenq2-8" target="Sw4VsKgp_dIkettjenq2-9" edge="1">
          <mxGeometry relative="1" as="geometry" />
        </mxCell>
        <mxCell id="Sw4VsKgp_dIkettjenq2-33" value="Нет" style="edgeLabel;html=1;align=center;verticalAlign=middle;resizable=0;points=[];fontSize=12;fontFamily=Helvetica;fontColor=#000000;labelBackgroundColor=none;" parent="Sw4VsKgp_dIkettjenq2-28" vertex="1" connectable="0">
          <mxGeometry x="0.0023" relative="1" as="geometry">
            <mxPoint x="15" as="offset" />
          </mxGeometry>
        </mxCell>
        <mxCell id="Sw4VsKgp_dIkettjenq2-35" style="edgeStyle=orthogonalEdgeStyle;shape=connector;rounded=0;orthogonalLoop=1;jettySize=auto;html=1;exitX=1;exitY=0.5;exitDx=0;exitDy=0;entryX=0;entryY=0.5;entryDx=0;entryDy=0;labelBackgroundColor=default;strokeColor=#000000;fontFamily=Helvetica;fontSize=12;fontColor=#000000;endArrow=classic;" parent="1" source="Sw4VsKgp_dIkettjenq2-8" target="Sw4VsKgp_dIkettjenq2-19" edge="1">
          <mxGeometry relative="1" as="geometry" />
        </mxCell>
        <mxCell id="Sw4VsKgp_dIkettjenq2-8" value="(P=Q)^(P≠{O})" style="rhombus;whiteSpace=wrap;html=1;strokeColor=#000000;fontFamily=Helvetica;fontSize=12;fontColor=#000000;fillColor=#FFFFFF;" parent="1" vertex="1">
          <mxGeometry x="75" y="540" width="120" height="60" as="geometry" />
        </mxCell>
        <mxCell id="Sw4VsKgp_dIkettjenq2-34" style="edgeStyle=orthogonalEdgeStyle;shape=connector;rounded=0;orthogonalLoop=1;jettySize=auto;html=1;exitX=1;exitY=0.5;exitDx=0;exitDy=0;entryX=0;entryY=0.5;entryDx=0;entryDy=0;labelBackgroundColor=default;strokeColor=#000000;fontFamily=Helvetica;fontSize=12;fontColor=#000000;endArrow=classic;" parent="1" source="Sw4VsKgp_dIkettjenq2-9" target="Sw4VsKgp_dIkettjenq2-15" edge="1">
          <mxGeometry relative="1" as="geometry" />
        </mxCell>
        <mxCell id="Sw4VsKgp_dIkettjenq2-9" value="(x&lt;sub&gt;1&lt;/sub&gt;=x&lt;sub&gt;2&lt;/sub&gt;)^(y&lt;sub&gt;1&lt;/sub&gt;≠y&lt;sub&gt;2&lt;/sub&gt;)" style="rhombus;whiteSpace=wrap;html=1;strokeColor=#000000;fontFamily=Helvetica;fontSize=12;fontColor=#000000;fillColor=#FFFFFF;" parent="1" vertex="1">
          <mxGeometry x="75" y="630" width="120" height="60" as="geometry" />
        </mxCell>
        <mxCell id="Sw4VsKgp_dIkettjenq2-48" style="edgeStyle=orthogonalEdgeStyle;shape=connector;rounded=0;orthogonalLoop=1;jettySize=auto;html=1;exitX=1;exitY=0.5;exitDx=0;exitDy=0;entryX=0.5;entryY=0;entryDx=0;entryDy=0;labelBackgroundColor=default;strokeColor=#000000;fontFamily=Helvetica;fontSize=11;fontColor=#000000;endArrow=classic;" parent="1" source="Sw4VsKgp_dIkettjenq2-10" target="Sw4VsKgp_dIkettjenq2-20" edge="1">
          <mxGeometry relative="1" as="geometry" />
        </mxCell>
        <mxCell id="Sw4VsKgp_dIkettjenq2-10" value="P&lt;sub&gt;3&lt;/sub&gt; = Q" style="shape=parallelogram;perimeter=parallelogramPerimeter;whiteSpace=wrap;html=1;fixedSize=1;strokeColor=#000000;fontFamily=Helvetica;fontSize=12;fontColor=#000000;fillColor=#FFFFFF;" parent="1" vertex="1">
          <mxGeometry x="250" y="195" width="100" height="30" as="geometry" />
        </mxCell>
        <mxCell id="Sw4VsKgp_dIkettjenq2-54" style="edgeStyle=orthogonalEdgeStyle;shape=connector;rounded=0;orthogonalLoop=1;jettySize=auto;html=1;exitX=1;exitY=0.5;exitDx=0;exitDy=0;labelBackgroundColor=default;strokeColor=#000000;fontFamily=Helvetica;fontSize=11;fontColor=#000000;endArrow=classic;" parent="1" source="Sw4VsKgp_dIkettjenq2-11" edge="1">
          <mxGeometry relative="1" as="geometry">
            <mxPoint x="550" y="299.9047619047618" as="targetPoint" />
          </mxGeometry>
        </mxCell>
        <mxCell id="Sw4VsKgp_dIkettjenq2-11" value="P&lt;sub&gt;3&lt;/sub&gt; = P" style="shape=parallelogram;perimeter=parallelogramPerimeter;whiteSpace=wrap;html=1;fixedSize=1;strokeColor=#000000;fontFamily=Helvetica;fontSize=12;fontColor=#000000;fillColor=#FFFFFF;" parent="1" vertex="1">
          <mxGeometry x="250" y="285" width="100" height="30" as="geometry" />
        </mxCell>
        <mxCell id="Sw4VsKgp_dIkettjenq2-53" style="edgeStyle=orthogonalEdgeStyle;shape=connector;rounded=0;orthogonalLoop=1;jettySize=auto;html=1;exitX=1;exitY=0.5;exitDx=0;exitDy=0;labelBackgroundColor=default;strokeColor=#000000;fontFamily=Helvetica;fontSize=11;fontColor=#000000;endArrow=classic;" parent="1" source="Sw4VsKgp_dIkettjenq2-12" edge="1">
          <mxGeometry relative="1" as="geometry">
            <mxPoint x="550" y="389.9047619047618" as="targetPoint" />
          </mxGeometry>
        </mxCell>
        <mxCell id="Sw4VsKgp_dIkettjenq2-12" value="P&lt;sub&gt;3&lt;/sub&gt;&amp;nbsp;(x&lt;sub&gt;3&lt;/sub&gt;,y&lt;sub&gt;3&lt;/sub&gt;)" style="shape=parallelogram;perimeter=parallelogramPerimeter;whiteSpace=wrap;html=1;fixedSize=1;strokeColor=#000000;fontFamily=Helvetica;fontSize=12;fontColor=#000000;fillColor=#FFFFFF;" parent="1" vertex="1">
          <mxGeometry x="380" y="375" width="100" height="30" as="geometry" />
        </mxCell>
        <mxCell id="Sw4VsKgp_dIkettjenq2-52" style="edgeStyle=orthogonalEdgeStyle;shape=connector;rounded=0;orthogonalLoop=1;jettySize=auto;html=1;exitX=1;exitY=0.5;exitDx=0;exitDy=0;labelBackgroundColor=default;strokeColor=#000000;fontFamily=Helvetica;fontSize=11;fontColor=#000000;endArrow=classic;" parent="1" source="Sw4VsKgp_dIkettjenq2-13" edge="1">
          <mxGeometry relative="1" as="geometry">
            <mxPoint x="550" y="479.9047619047619" as="targetPoint" />
          </mxGeometry>
        </mxCell>
        <mxCell id="Sw4VsKgp_dIkettjenq2-13" value="P&lt;sub&gt;3&lt;/sub&gt;&amp;nbsp;= {O}" style="shape=parallelogram;perimeter=parallelogramPerimeter;whiteSpace=wrap;html=1;fixedSize=1;strokeColor=#000000;fontFamily=Helvetica;fontSize=12;fontColor=#000000;fillColor=#FFFFFF;" parent="1" vertex="1">
          <mxGeometry x="250" y="465" width="100" height="30" as="geometry" />
        </mxCell>
        <mxCell id="Sw4VsKgp_dIkettjenq2-49" style="edgeStyle=orthogonalEdgeStyle;shape=connector;rounded=0;orthogonalLoop=1;jettySize=auto;html=1;exitX=1;exitY=0.5;exitDx=0;exitDy=0;labelBackgroundColor=default;strokeColor=#000000;fontFamily=Helvetica;fontSize=11;fontColor=#000000;endArrow=classic;" parent="1" source="Sw4VsKgp_dIkettjenq2-14" edge="1">
          <mxGeometry relative="1" as="geometry">
            <mxPoint x="550" y="569.9047619047619" as="targetPoint" />
          </mxGeometry>
        </mxCell>
        <mxCell id="Sw4VsKgp_dIkettjenq2-14" value="P&lt;sub&gt;3&lt;/sub&gt;&amp;nbsp;(x&lt;sub&gt;3&lt;/sub&gt;,y&lt;sub&gt;3&lt;/sub&gt;)" style="shape=parallelogram;perimeter=parallelogramPerimeter;whiteSpace=wrap;html=1;fixedSize=1;strokeColor=#000000;fontFamily=Helvetica;fontSize=12;fontColor=#000000;fillColor=#FFFFFF;" parent="1" vertex="1">
          <mxGeometry x="380" y="555" width="100" height="30" as="geometry" />
        </mxCell>
        <mxCell id="Sw4VsKgp_dIkettjenq2-50" style="edgeStyle=orthogonalEdgeStyle;shape=connector;rounded=0;orthogonalLoop=1;jettySize=auto;html=1;exitX=1;exitY=0.5;exitDx=0;exitDy=0;labelBackgroundColor=default;strokeColor=#000000;fontFamily=Helvetica;fontSize=11;fontColor=#000000;endArrow=classic;" parent="1" source="Sw4VsKgp_dIkettjenq2-15" edge="1">
          <mxGeometry relative="1" as="geometry">
            <mxPoint x="550" y="659.9047619047619" as="targetPoint" />
          </mxGeometry>
        </mxCell>
        <mxCell id="Sw4VsKgp_dIkettjenq2-15" value="P&lt;sub&gt;3&lt;/sub&gt;&amp;nbsp;= {O}" style="shape=parallelogram;perimeter=parallelogramPerimeter;whiteSpace=wrap;html=1;fixedSize=1;strokeColor=#000000;fontFamily=Helvetica;fontSize=12;fontColor=#000000;fillColor=#FFFFFF;" parent="1" vertex="1">
          <mxGeometry x="250" y="645" width="100" height="30" as="geometry" />
        </mxCell>
        <mxCell id="Sw4VsKgp_dIkettjenq2-46" style="edgeStyle=orthogonalEdgeStyle;shape=connector;rounded=0;orthogonalLoop=1;jettySize=auto;html=1;exitX=1;exitY=0.5;exitDx=0;exitDy=0;entryX=0;entryY=0.5;entryDx=0;entryDy=0;labelBackgroundColor=default;strokeColor=#000000;fontFamily=Helvetica;fontSize=11;fontColor=#000000;endArrow=classic;" parent="1" source="Sw4VsKgp_dIkettjenq2-18" target="Sw4VsKgp_dIkettjenq2-12" edge="1">
          <mxGeometry relative="1" as="geometry" />
        </mxCell>
        <mxCell id="Sw4VsKgp_dIkettjenq2-18" value="" style="shape=image;verticalLabelPosition=bottom;labelBackgroundColor=default;verticalAlign=top;aspect=fixed;imageAspect=0;image=data:image/png,iVBORw0KGgoAAAANSUhEUgAAAbQAAADRCAYAAACkekcbAAAAAXNSR0IArs4c6QAAAARnQU1BAACxjwv8YQUAAAAJcEhZcwAADsMAAA7DAcdvqGQAAG5RSURBVHhe7d1ntGVVlTf8TVEFFCChyAhUkQVEchGUHBUUBEEFtLVRebodtq12j/7qh+7x+LZjIIbRoo8BkCAiOYjkIDlnLCUIBUgsUhVUFeC7f+vWLLanbzjnhqpzT83/GHuce8/ZYa255pz/Oedae++l/lajqvHuu+9W8+fPr+bNm+ffRCKRSCTGBZZddtlq4sSJ1UJCmzNnTvXcc89VM2fOLDskEolEIjEeMG3atGr11Vd/j9AuuOCC6rrrrqteeOGFarnllquWWmqpsmMikUgkEt2It99+u3rjjTeqrbbaqtp///3fI7QTTjihuvXWW6sNNtigWm+99apJkyaVAxKJRCKR6Ea8/vrr1UMPPVTKjYcccsh7hPad73yn+utf/1p95jOfqbbddtuSpSUSiUQi0a1QUfzd735X3XPPPdWHP/zhasKC7xOJRCKRGNdIQkskEolETyAJLZFIJBI9gSS0RCKRSPQEktASiUQi0RNIQkskEolETyAJLZFIJBI9gSS0RCKRSPQEktASiUQi0RNIQkskEolETyAJLZFIJBI9gSS0RCKRSPQEktASiUQi0RNIQkskEolETyAJLZFIJBI9gSS0RCKRSPQEktASiUQi0RNIQkskEolETyAJLZFIJBI9gSS0RCKRSPQEktBGgL/97W/9bk3093tz6yX017/Ymujv9+aWSCQSw0ES2gjwzjvvVPPmzavmzp1bzZ8/v/zfCg564X5vvVXNq/d9++23F/zae9Bf/Qu5+Ls/knr33XdqmfXJxEZ+SWaJRGIkWKp2IsWLfOc736n++te/Vp/5zGeqbbfdtlpuueXKDon/jXfffbc44CeeeKJ6/PHHq5deeqlaZpllqi233LJ6//vfX73vfe+rll566bLvK6+8Us2cObN65JFHqpdffrlafvLkav0NNij7rrLKKtWkSZPKfuMdfTKZVz3zzLNFJs8//3whqA984APV+uuvX/o6ceLEsu8bb7xRPf3009WMGX8sOjdhwtLVBrVMtt5662r11VdfuF8ikUgMhhdeeKH63e9+V91zzz3Vhz/84czQOgUnPWf27OpPf/pTddttt1VXXHFFde6551annXZadf3111dPPvlk9VadcQRkZy+++GJ16623VL/97W+rCy68sLrjjjsK0fWX0Y1XvPXWm9VTTz1V3X777dWVV15ZnXfeedWvf/3r6qqrrqwee+zRas6cOQv27JPhrFmzqvvuu7/e7/zqnHPOqW666aYiJ8SYSCQSw0ESWodAQqICRMZ5P/bYYyUjufrqq8t3DzzwQPXaa68t2LuqVl111WqdddapM7hl6+zlmbL5fSwdN8IYzW0o2Ofll2fVBH97dcstt1R//vOfq7/85S9FPhdffHGJnmSncT4Z7BprrFFkI5MjEwTXy6XYRCIx9khC6xAyjddff71afvnlq4997GPVcccdVx111FHVtGnTinOWpfi9PyhL2m+rrbYa89JakMdItnaBiMjlzTffrPbee+/q+OOPr4499thqww03LCXIp56aWb366qt/l5E6f/y/8cYbF5kguQkTUiUTicTwkN6jQyy77LLVOuuuW+2+++5lrvFDH/pQtcUWW1Rrr712yUKQ2uzZsxfs3Te3xNkrp6200krVRhttVEhNljIWzhupmNMzb2eObySb8ilyNl84GPQDGe26667VDjvsUG2zzTZl7myttdYqi0PIRQbm7yAyMiKTpScuXQht0003LfNsSWiJRGK4WPrbNfzxhz/8oUzWf/CDHyzOOSfm+we5rLDCCsWBr7jiimVRx+xabkqNymxkF4tDllpqqeK4Z8yYUV133XXVlClTqunTpxcS9LffYWFWVJNf+Szf9iH2aRcWWWjLzTffXN15553V/fffX/7vdHv44YcLqemjbbBFQkho8uTJRSaI2r7KqvqtHLvmmmuWbM3iEAGB1Y/KktqI3HbdZdcSHNhPfzvtcyKRWDIhWeBL+D0Ly3KV4wjxzttvF8d90k9+Uv3+97+vttt+++qYo48upTcyRHLXXHNNWSAhq9t///0LoSlZAvFz6sp2by9Yur50TZrKk4jC1omDN4d1wQUXlLkrGdZw5+pKJrrOOtW3vvWtat999y1k1AnIxCKYs846q9pkk02qgw8+uJRoV1tttZKxXXXVVWUxyIYbTqs++tGPVdvXcjOnFligln+HJLpEItFE6yrHzNBGCE52dh0lmDt79LHHSqbC+ctIkNKDDz5YVjWKJPbYY4+SvXHqjlPKI/PnnnuuRBkyI+dQikNyjrf8P24BaAeu41hZldKm6w1nowc2GaVsMwi4XWgHZdN/7UeOm222WSm7Iru777679Hu33Xarr7N1tWad3SHyJvQj7k9DZVmOTCQSTWSGNgYgN0vVTz755EJCsrMjjzyyOHIrH++44/baoa9bHXLIIWW+CNkouwki7rvvvjLnpYwpKzLXZAGFY0Uc2223XSHIdsdDqc/5nMc1hgvkoZyKzMxtaVsn0AakdeKJJ5ay6y677FIWiqy77rrVZZddVlZACpoOPfTQMt8mO4sMTLZKBoIE57CAZpNabtPqIEHAkJlaIpGAzNDGALIITtt8lUUZnPPmm29eyo2yLjccy0Q47pVXXrkcI7K44PzzS/ZG7lOnTq3WW2+94qzddOx797Nx5uamEF47QDxxqwAiHO6mLc6BfIerC4hJP2Sc+q3/+mpuj7wsHhE8aa9ryMgsQkFkFPTaa68tpVPnmVJntfRS/5LQEokEtGZoWcMZBcjKOH+O2ZyV7IgT57g56KlTpxVnrtwW5GA/5GcQDjjggOrTn/50dfjhh1dHH3109dGPfrSQWCyqaN7XNl5AJha+yO4AkZHJbbfdWrI3KyDNJeqnfUMe7usTXF100UXVhRdeWG5ep6xWSCYSicRgSEIbBXDIHDPnLcuIJ2YgJCTGca+7rpurlyn7yzBkXEd86lPV5z//+WqfffYpmZgyo9KibMa57MfRD3dhx+KEkqVsSlalr0jZykmLVnzvvjOZYDz6SzYqMyU3x+68885lIYl5wCx/JxKJdpCENgpAREpzSAj5yDLMqfnefWcWiCy33OSFixoQFUduPs1mubr/fW/ei/Of8+ackuHI+sajQ48+WgDjE8krIb5V9095Vb+RPZnEvoIC97KphStFyl4tRiHHRCKRGApJaKMATjlKbLIPqx5NVsourOxDWJwyxw0+HeOeLUToGDBXZKm9MqN5OfNwnLr9xhv0UZ9lnkhJ6XVmnYFN3WBqkYkSbZA4+Bt5W2HpJuvI7JpySyQSicGQhDYKsFDUhtBWrrM0n+bM3FslO0Nag8GxyMz9WVb1/fGPf6xWm7JayVY496GO70boEyIiiyDudWsS06dYvt9EkLw5xshkE4lEohOk5xgFcN7mzixc8HqYzWoSMv/jkVitjrs/ONaiCU8TQWgyto9//ONlyb6S3Xguuemb7NXN1W6stopWaTZJK5FIjDbG3KuYU5J9xAsfbf4fjwsd+gMys3TU62QeeuihMt/lZmTZWcwfDQayePbZZwuZWd3nPiv3bO20004lu2mW5cYTmos8yMjCGAs9lF8RdpYRh4e/s6daxuTMpgQO5JxILMkYU0JjeBY4KKF5/JOl2B4P5WWXbpz1+3hDOBSbx155N5p5LwseLEt3/9aOO+5Y5r6Q20CZCOfjXJ6Wce+991Y33nhj5SmOVv/tuMMO5QbkIMNud1QhE/N+PoPMbr311nKPiMUeCF75NBd5DB/0AJEJgG695ZZiTx4v5sZSz90UWCUSSzLGjNA4OaTFoSGz008/vfrhD39Y/c///E8xQDcdu+9ovEFp0H1RnAoCs4DDzcP6qJRmdR5SMmc02A3JnJObi914bSm7d4JN32l6tWudnVkFCK7FSSEJ+3crsWmjRTCe8E8m8YQP74gjA2+idhO1jHMwMos+2uiPrfldc1tSIRsTLHjayo9+9KPqv/7rv6of//jH5YkzA722KJFYUjBmhMbJedqDm2OV4jxCSfaC5H532e+qhx95uPw93uBpIKeeemr1i1/8ojr3vPOqM844o7rkkkvKwoePfOQjZd6L4x4KSkQyV5kZgozHXHkixrw600EQ3uLsWYhuRO5muN/u/PPPr0466aTypmryMe4Ieb/99iulRjdStwuyke1FKa2Z/S3ppTV6JjiYXst0fVWAyctVqy1YeDNUeTuR6HWM2aOvOCMZiAUB5k/MCclgZGXPPvNsteUWWxaCG08LBJR7kPMNN9xQNn8jZTcIe9oHQjJHFDdQDwROWTQtU0VaMhtyefLJv1T33ntPea2K8fCUDCU64xEk2Y1zT0rIiNk8IMJ/7vnnqjXWXKM8pd98oiX6MW82UPtlY+SrBKt8JsMjGxmsY8hUdmcfn/RzpDo63hDy039BBNnQP4uPvIeO7uVN6IklCRKnRfLoK9FizCeJ0JGa0pPVbgyyOZk9XqCtHLMnebhHyn1Tyot77rlnWY4ejnsoyDSQPVLjlB3DMVlYwkk98MD9xWHZRzbS7YSvD4jXik6y2eIDW5RX5djoACc7EJEF9JM+KEUjxZhnldnRJS9OVVazIT37LomIkivZCEDDzsg9M7TEko4xy9Acbx6J07dyD4lhU85IZuNJERh1jdVXHzeRthdwzq/JiIM2zyUD8dgqCx7cQKwfQzluiIcZy8o4IgtAkOGaa65VrbHGmsWJ+07kbTyUaxFoO+deHBCc6LtMda+99irvfDMfSI842XYImZN2HtkZ8kL6ZGohifPG7Q9kQD7tPEHFORd+Lvg74DzN3+PvQDu/D4aF+y84dkTnsFyocQ76YxGS4Ifc6SA5KTuys6EQ543zBZp9hv5+TyS6Ca0Z2iJ9fYzFAkp15p8OOuig8pqVD9YZzrLjpExCVBytTYmM84itkyzKeaLENtickHMiBE6rm7M08uBk9Uk7tZdMwgG24wjJwBZzZfF/E85ja1cm2kO+PrXA/vHONefxfVwLJkxYqj5vX5bjd9/HPvGd60Y7BkM5tr52Gd8F30FpwwLZDHWOaP/f/uaz7kO9/7vvKle/UX3/xBOr62+4vlp1ypTq6//y9VIJERwNdU7QttBhiDFzrN9sVvC+W3+2/p5IdBNaXx+zSAnNikCrAS0acOOxyHI4hBZGt6DpIwZDjS3RG0CMbhlxS4Vnawoe1lpzzWqrOuPl+BFFrFIVaBl7WbLHjVlksVTtxB1vfvPRRx8tGbWs0FNOlPgGuv0ASbi2Ny48+8wz1dP15jq+l0HJvD0SzdwxG2s9R+i0yNNxVjTalKeVpmXq4A3ovvdEmuOPP758tvNEGnJwLv0mG23VJv2WBZOLRUgR9SKz+F3/zWWmnSS6BYuN0BiS16lYEagBrrP/fvtVW2y5RW2o7V9Lcxkdh6FE6rwjgWifIccqMQacGN/gpDl783BWiXrK/yuvvFKI6LDDDislXI8ZM2dpC8LiuL1VnP5H+dNKVL8zHGRiLlh1ASnRmSZkPUgQGTjOMXSVTsUiKfrrgdUyKo9Fa5ZSgT47h3KieVQler/FQiNE5xYPC4ccq8rxuc99rpRblPYHQxyr5K99VhrPnj2n2mD99atPfOITZVGJuTny0gf9JwffW/RELsrI7cwTJxKLAq2ENuYv+FzAl+XCf7jxxuqaq68uzoZBb775ZuWm2/4i3YHgfJyDhQNWwsUCAsY/nM18jXOKmPW5k7YkuhOcMkJwfyCnLAPjpN07SLfNXSIy4488kAYdkslx4By2DMYxdPXNN+fUvz1e9nEuC5vM4yG0ICIZGNJEFF5K6gkpMiEk6oHLshvXd8/hgw8+UGeJq5Q5QtkiwnMe5OccFr44x1133VVISHZkQ6gyxquvvqq0FQFbcIVo/DaQzYYNyvgQvDbo86OPP1Y9+udHq5l1n5yLLJC3fs6e/UZtGy8sXKikjWTn6TdDEWcisajQOoe2SN5YzaCUGn932WUlS5tXE1LfQ2o37/hZhRwHwzv77LPL5mkJzh1L6TvdrKrjwETcSjZDLblPdD9CwWUwXpZKnyk+okNCfhPAiOhkbMZe9vTsX58t5TYkRidlY5/85CfrLGifkn09/fTMQgq+t1BllVWQUZ/uCrKQxTnnnFNuerZIw7VlNsqUFkEpUwrs7rjjzqJrMh/EqBqC0NgfMvn5z39eyNQ5jjrqqPoc+xcSRTqqCPZ57rnnC8lZSarcSIcHqy6wQeSk7+ShbSuvtHL1Zi0X2ar26DtilPUdeuhh5frsTWmS7GSU+o2EE4luQCuhjXl9zQUZOvL4c21QtWUtXPXIiCPC7QSMF/G6aZfDOeKII4a9cTgiaM5vKBLnFETR8+e/91zK3BbfJjBqLm4IUGyZC2evvEffLHB4tc6Y6KJsye0WiEBAhViM//x586unnnyqkAYSkvlw4DIpRBj3wtlayUPGpAwoq0IYjnV+9w/SV6Tlb+VO/yMP5CZbLHpV9+OxOjsSnN1fZ0RIVh+QFrJxjOv7XHrpiaVPzhev5xkqKGRnZIHEbc7vOOVZZCVbJQNkHXIhR6t59V1bZY/knkh0K8Z0Do3yi+4uvfTSsinBMMQ5c2ZXxxxzbFn2LgrsJBvkvDgxpReRJcJc0IVhgVFzCiLlPmcxsGNwLdG7Pr1WO4HE4oWx26TWH2Pn71aSCaI4/Ywzqt/U2TynveUWW1RHH310IQvkwtGrv3s0m8wKwZiTijcDOK+KwMknn1xdcMEFRYe/8Y1vlLk2x7smUlDH91xFFQiB1uGHH17sSCYYcH37WeUr23ENm8zr1ZosrrjyynKO+x64vzr26GNKFoV46aV2IhTPxzzhhBOK/jv2mGOOKdfpBGFDp5xySllcol3IX3AY91Pql7Kk9v7yl78sOm/xiX4h2USiG9A6hzZmhMZoGIR6/c9/9rPqpZp8GDEnMGPGH6tDDjmkNqI9SillNMubYwnzbddff315G/XjdUSeWLxYq86EPvWpT5WHOa9RZ1kyqyZk02/VBPXjk04qj+ZCTByyMiO9k/kgI084OfPMMwsZya7+6Z/+qRAeonQOQQzn79mUyOVf/uVfypNvZHYx74XwXIOBfe1rX6sO2H//amqdBTVL2BZjmBtzLte30jcIDamce+65ZdHUUhOWqv7P8f+n3NNnDi7AnlQ6TjzxxEJwjldlEBR2Am0mi5/85CelRKr9X/nKV8piF+2KOTJzfkFoFpN85fivVIcdelgSWqJrsMgITXaGzBiMeS7G6Rl0DPz62oEw5N3qBiC5ocol3QILAjgtzo9zSixeKIkhj3332aeUBie1zH9aMSiL/8EPflCCENnWt771rZKFKNfJQuwT87H0303hSNKcl/kkhMdYTj311LI4Anl84QtfWLjQw/HKjT/56U+q6669rpDBN7/5zWq33XYrhNjMGpUjf/Ob31RnnXVWeUyalYUHHnhg2e+qq64qv1nIoux37LHHLnwFUcCCjSuuuKI8M1MpUFCIhPS9E+iTNpuru+EPN1SrrrJq9dWvfrWQtEVaMQ1gYQzbpe+z58yujjvuuOqQgw8pskkkugFjTmgLTlcmtUWjl19+eVk5pszD8ER9vju0NuYgtNZS0VBwDUYp0ozrDReMF6HKEv0dxtwfTNorvXAG5h0SixcIB7Eokfm7VY8s9OCUT/z+idVDDz5U5o1kV46JFYoCL0+rlxnRJXqqFC5Tk40pQXrlEafOeNw7KctDKK6pDK0M+MuTf1mugWSRg+ANGYU+KX163uUpNTG6FiJT4lO61BZkZtNe5z/00EPLPJ5rlONrXUd2sjj7KWt6CSwjbpJeO2CPnpP5q1/9qnr0sUer7bbdrhCozMs8WsAqYg+bZseezfm5Yz9XFoyosiQS3YAxJzREw5HIZFxIVuNCyjxKQt795Xv/+75TQlPK5GQ4Eau24qbV4UJEypDNl1i9NdgqR05F/4JME4sX9IaeCkb60yHZmTLi//z4f6pXZr1SHuD7xS9+seicbM0Y0lW6r+xoLlXpzQtWzX0hI6U52Rl9dh1zVsiE3tAVc2oCtNNOO60EazIv16BTzdWAs+tg6PI6u5IVydQ++9nPFhuwv/Mq68kSGag2IDykiVRBOxCr7E7Z0TVkeIgzSK9d6DOicj1/y/IQqPKmDJNLYFOyWnN6Ki3eJKG8KWuMB2UnEosbrYTWWWo0BBgBA5GdMTrZjEhXVBtzFozFo3zs2/d3ZxmW/RGaaFeEqZz0ve99b9gbZyVa5fwQ1WCQyXGgImoOL7fFu8kmkEp/ZEZPZF8WT8x6eVZx1DI5Ohj7G2836MezI41rPA3DPkF45tBk581z0IXQX1ma0qOAjbNHllFGj33MIWuLAMw1ZDkI1DFsQVudw76uX0i6JlT/+10bzLO5zUTbnEP/4/i4zlCwj34jX1UGxyt5Rp/A+diYYFSQ63ulVn3Xt0SiWzGqhMZQTB6bNxOFMhKrp6zUEq32GUzf0ncbwxkOJk5cujiErbbastpxxx3KTdrD3bTNuRBVf44xMX7BKSMApIWMjDMSCMet9FYIb8Hvgq/m7/TZgomXXnqxdvwTS1aGSJAAhP7an+74jJWyraVr819uutYmJU9L6JFfXKuJQkwLyMk1kJ1yoxKgtjpOO6KKwpbaITOwr4UyCE3W5/qr1sHBctq9QP/t43eldfsgMuVP/Y+MMZHoRoyaB2cEMjI3aN9y6y3FUBiuMk+UZxi5h6wyahGv6JfBiJD9LUoeChzHCiusWEoyX//6v1b/+Z//Wf3f//t/h71Zgu1eNCvWtDHRG6BLdEyARTcj+1puufduQG4lPHqqfBeEJGNCaK+88mr53z4IRuaidK4SoeRId2K+TAbmuq6PZJzD6sS7776rPLUEGXnd0GabbVrI0zGu59wIyvmVUWbV132jtgm2oRyqgoBIBYnaSFddW9nd/W/aJFMcCsjxeeev+6z/rleoEP/Wm/a6R85qXgQsEDWnqITq2tqbSHQrRu1JIQzPCynNJzB27z6zstGSao6EE+EckJ55DYaBxJQ0GDpjZtRDRYDhADgDDkj0aNnzcDfn4Ow4i8zQegeyL3plHkhpzc3CMvL111+vjDM9QhzIQP1d+c98lIydHtIx56DX5mvt6xhE4skEdJmu0h+6izgRFxtiP3QKodFvJW3XQawCPHNwG2wwtZTvnFN77Cdb9Om64JoyOwtF2JDvXQORaS/iYU9IKm4OHyooc6z2X3vdtdXMp2aWPpirU3bU3meeebY8tsstCtprxaUpA/OO5JI2kugmCOJG9UkhjIDii3QRmYhRBMl5cBAML8CARaiMnZEydBuj5XTaydASiXbA+cv+KTwyiMDFUzaQCL1FBDIfsA9SaDptQZ0MJUrSjEbpT2bm/PTcZjEFovL+Oue1vF9wd8stN9dkeEtZVFF/XRZUuF0Fufa15b1SpaXw7MW52IOsDBmzKcGWkh+y9Tt70wZE7HFczqUdUQodDOSBfGVo+qe9SouCzFtuubXMTWuv7M3iMGSmX86vnYlEN2PEGRqDUKZATB6qat7Biqh4CsgKK/a90oITYXCMwnU4G06EkVutZV+Gab9EYqSIaoDASSaOLBCJLAaQggyIziIner9d7cDfX+9LR70+xidHjnTmzn2r6LrSoid40HEkhADpNaKxIT73KP7hxj8UYkAeU6dOK/eMxXMdZVHO2dR1i1zYg/PJotgRgnWDt+vJkGLhht9lVvp04IEHVbvuskuZB5tYt2Mo+0HK2mWO22002kMWSow2galszS0FUWqMTDJtM9FtaM3QRrxs3+Hq8OYORH2iXk5AZtYaNdpP5MeRKDciTSTGkBl5RoCJ0QI9jPnZyLToWZS06SJjUMKji4gOWdHZcN50m7NHjqHb9FSVAbkEMYH96LZKg23uvLm1cVRlH+d0/aY9tJJD2EZcy//IzXE2fUC8zi2rdDzbQYTO20qQ/UEFRFbn0VtuAVD69LQRpObcruk6zkdWiKzZx0Si24BLxvQ+tEQi0Z1QGZGd/fSnP6keeODB8kSUI488smSnMBQhJhLdhlZCy9ArkVhCICO1kEQWKCOV+QlcEVmSWaIXkIQ2Qkhw+9uaGOr3XkN//bU1MdTvidGHuTcl2FmzXqkmLz+5Wn6F5UsJNOWf6BUkoY0Q5h3Mn7z99vyyvVv/3QrOwvyFiX6fjull6N/C/tZbf/1d0mTSDZCZKdGYq5s3d175tHnOZCLRC0hCGwE4Y4thLNO+6qqry0rRP/35zyUSjqiXszaJf//995d7e9zj434jCwx6zYnrL5k8/9xzZfWg/t54001lpaH5m5CJVbEyBXVvS9N9WpzhWL8nxgb0TYnRbQgrr7RS9dqrr5VVmK/XY5MBRaIXMGo3Vi9JCKdrEY0l2u45suTZvUGctfkJq8TsF4THcXu+pRV15i4sySbjXllBpq/I2yOT9NfNyO5peuSRR8pvMWfjb/t4jBPCc7+V76wwXL3eyCTnc8YG5tDAKs31alKzPN/9eba8aToxHtG6bD8JbRjggIEztiE0jwnySYbIzNMXRL133HF7ebaltx17/b9l1pZJ+938xVg4kWjfaKEdgtFXynXttdcW4nafE4InEyVZTtT9YPZD/l6D4rUkMleK6H4n93GVe8CS0MYEggb34nlXm2esuhncK3Usz08yS4xHJKGNAmQiZMVhc9TTp08vtzrIxubPn1ei3WnTNlzg0G+tXn31lWqPPfYsryXhTDgVUTEnMh6cdzttVEK1gs5TJ9yw60kxSEo2hmBlZx5TFk/ReOedt8vNyW4c9unGemTvWkloiUSiHSShjSLcpEuIolwlROW155/vmwuSpck+/L3ZZpuX51p6dJGnS7jpHOmNhfNW8lTWdAOuG4uN6XA3Cwa0D/G2E8Hb10255EEuSAyBvfzyS34t8zce5TRhwlJFFh7S65mfZCJ7cBNvnCeRSCSGQiuh5Y3VowAZG8GecMIJ1TXXXFOyFeUc8HBXWYjn4Q1UYowSoc9w5sN16sbQIgyPMLI4ZbjQTqUouqAU6KkUnYBMLPz47//+/8pCmIkTJxUS00cZrU1WRiZJYIlEYjjIJ4WMEcwNnXTSSeVNwDI1GZonMXi8kKw3niEYCBIDx8YGyKQ5l9SJw1fO84p/bz2wmjLO2SlkS7LOr33tayW7RGqdQP9kiT/96U+rS2uF81zFNerM1JuavcYfmSHMgdCUTyCJL5FINNFKaFlyHCVwwLIic0hKfuS4//77l3fCIbf+MjNZjIfecvzmmrzuxKdSofMZA8f1d+xAkJW5vuOVNqXhw9ksWvFAXHNhyEwpsVNYDEIef5oxo9yfJ2slEyXGdh5EjYzJKMitEzkkEoneR5YcxwAcL+d90UUXVWeffXbJ0Djvz33uc6XkiNCasL+5LisBrXy0mETpTVYU817+tohEmU6AEQ/VHQoebKvUZ1P6DDLoFMhDG5Ca+S1zfp1AH/XD6s6zzjqr9FEEdcwxxyx8s0Iroq1kSQ7I3epRmSJltagEyWemlkgkIDO0UQYnHDdYE6pFEISMxJAZWbaW1jh7Cy4sWyf3p59+euHrQ2RX3imndOi85f6sBYtI2oH97C/D8pp/2dBwNsc6h1Ipsu0EZIJMkar7zR5+6KHy9mXERL/0qTVgcgwiE3GRhxuz3RKhdApWk+pXzrklEolAa4aWNZxhgPONDTkpGSKzGTNmFGJDSpyyRw3JxJr720ApzSAgMi9R/Md//MfqC1/4QvWlL32pOuTjh1SrrLpKcerIzXm6Hc3+kYkl/GTyyMMPl/ZTPE+l8Hc8EaT1GCSv7GphzZlnnlmdcsop5W+lXK83SSQSicGQhDZMhCPmoN1vJpNwb5kXlirT+Z5Tn11nvcjLxmmDDMOc1KGHHlode+yxZeGIY2XF3rO1xuprlA0cJ3MZDwiZIPXIsKbVsth+hx3KTdUeAUYusjd9aspEdcCbmt107TfL+ZUQPM2i3XJrIpFYspGE1iFkXDIyq/ZkDpake8cUuJFYmdEiijfrjMLzCZGaZxsqRVogYY6Lw1Y6s5Q/XqvPaSM62YtMRUai3GeuKe7P6laQCaKKN0R75JVX+isrequyPiqnkpusFLGZHzN/SIbmy5A5Ujf3uOuuu5Z5XPezIf588WsikWgHSWgdQjlRJiEjO//886urrrqqLI9HTgjN5kkZnLDa7p133VXdettt5dmG9osViH7n5JUc4yZr2QpHjxhkMeaykJ2srZuBkCzeuOyyy8ptCx5/hbQQGblYBCLTQuQPPfzQwiAA6ekv8kba9kFo5tnIEJnnIpBEItEuktA6hEzEQodf/vKX1fe///2yeENmsccee5RJSY5YydGDdjlvCz9s5teU2Dju1kUWCA6ZWXIvk7NKkjOXqXygJkhP3OhmWARz8803Vz//+c+LTJAbWXjMl1KjTGuTTTYpBH7HHXeU5zgiP9kckAfisvk7n+eYSCSGgyS0YUApjZN2w/Hhhx9eHXzwweV/38sy3Lt1wAEHVJtusmlZ0YfgzJf1t4QfkJnM7aabbirZC3zsYx8r2crqNVl2e8kNIcsyrYx0n9kRRxxR7bvvvoXMEJQs05NB3FC94bQNSwAgc/voRz9anmvZ3xL+RCKR6BR5H1qHMA9kbszcj3kvBOb+qHDKkWkpG9rP/VyWnMtY7MPBN7MPZTgZjkUUV1xxRSEHZUtPQ3eMcej2G4qVF61gVD5EbORhib75L33VR5ntU089VWRCbpbgey/XQGVFWZ77S9zD5pmPyG+nnXZaWJ5NJBKJ1vvQktA6BHHZEBei4Vz7c7CxT/zeuk+cx4rA+++/r7r22uvK4Gy33XblhmqvmFGeHOj4bkInMkFug+0TSEJLJBJDoZXQsuTYIThTDllWEY65P/heqXCgfTh3iyHMl914403lE5l5lQoyk8n53QpCJNDN6EQmg+0TxNjOlkgkEq1IQltMQFKW8Vvirjxp3s2mVOc3y/u9asWKSmXOJQkyPQto3MLgM7ZuJ/ZEIrF4kYS2GOBBvW/OmVOW8iMthObJIh6DdeGFF1ZnnHFGeUqGcptUGqH1emaCxOJxWZ6OEqs9zc/95Yknys3rNvNw5igRXCKRSDSRhLYYwBl7MoYFEkqKEE/XQHKWwFveznnbj7PvdeijG8plrW6LeOjBB6tX6izVfXpv1UT3WJ2pNh/mHHJLJBKJQBLaYsA7tfPmpC1rt5Tf5m9L+j0dxFJ/97MpQbp/y0pAc04DzU31AmSfSMpKSUQ+t/57o403Ls+5tLR/4qRJC3+TsSpHJhKJRBO5ynExQDZiPkhGEg/q7Q8WTxgHqx0tpuhlkAGZWAhDJv3Nl8WiEjLx2e335yUSibFFrnLsAiAqqxgjG3NPVn+b+9e8eqbXyQyCrDzmS6banzzIylNT3MeWZJZIJFqRhJZIJBKJnsAE8xYDlbwSiUQikRgvmOABsbliLJFIJBLjHRP++7//u9zzY3l4ovsRNx1bPOF+LDdgu1fLp7dCC06WhGX+iUQi0YqlZ86c+W0T8u7/8TBZS8jXXnvtJWIhwniCsjCiiof8usnYDcjeuebVNDYPCLaPBSfN50AmEolEL0IQzwdaoe9h7kvXjvLbbljlKN0L5eWKnoLOKSa6BwhNZobIvGbmuuuuK4/FKk/ReOSRctOxG7MRmvvW3JAsKElCSyQSvQqv3fIgcy9Ptgp66Toj+7bHDSE0y6G908qNrP5OdA8QlcHzYkxPEkFwnkB/4IEHlvsGjZe3QLsvQ3bmHWRuC3CLQCKRSPQivC1fIH/3PXeXLG3puXPnfpuj5DDNv7ip1Usau/21/70CcncTsecYNm8qjnJhZFiRoQk+jI0n8++4ww7l3WPu25o0aWJ1Tz2oL730UsnOvFPNvVtJaInEkgk+A/gU/sWDHHzGQwvCN4znKg4SO/3006u77r6revTPj1ZL11H8t3VU55WqPGrpoIMOSkIbY5A3MhNheFnonXfeWZ6871mFSEnG5d1flC4UzmdkXwhr7bXWqpZdbrlyk7ExVIp8443Z5XdzoUloicSSCz4GmXnwuQzmhutvKD7GAjJ+wZqJ1hcOjzdYEOeh7vqoT0tvtNFG31Zu9M9WW21VHX744dU222yTJccxBmUzoWke7LbbbquuvPLK6vLLLy/lRA8t9pSQNdZYozzmCWFROnNiSMqiHeXEpRcs3JFhI0UDu+KKK9TjuGW19dZbl0wtCS2RWDIhYJaRWfB3+RWXV6f+6tTqnN+eU773miprJjyJaDwTmv6ZZrFK3/qPCRYZcJii+i233LJE/rkgZOwh7adoSMik5qabblp9/OMfLw8ltlrRIg8DZcAGA+X00F5PqPfQ3k022bQmsw8VMhzPippIJEaGyMJ22GGHavpO06sN1t+gEBgys4BCBWi8Q5Av+J82bVq19957VxNE/P/2b/9W7brrrgsf+pqOcOxBxkq8lO2QQw4pZPbJT36y2nnnncucmLLjYO/9ipKl1T1eNePhnBbzTJ8+vZCjscxxTCSWXLB/W/gK3gCJxTNRTV+Md+gf4sZbqooTPvvZz1ZHHHFEteGGG+YDXxchDALFQkJWKSIhm3FQKpw9+40yL9bfU+ejNm6ByO2331Y99NCDRTl32223knbLzjIwSSQSYEri9ddeK8GxBMYmmO5Ffz/hq1/9aikzSk1HExEVxOZ/W/wWW+s+SwoQmigpoiVlXiRkMY4oSqmxuSIpQEYU08SusqQXgsrkZHqybKVj2dl4RqteNPWjbM2/6208INra2p8m+vs9tl5D9Ku//jbR3CfGfSwQ1/7b395rT7Sp+Xvzt/5+7+/42Gcw2Kd5XHNr9/iBzmGNxIsvvVTeMWhVNEJrXXA2EOK8ref2f/P31t/i90WNCWqPYzFn9k7tdOfXApxblqL3/zimd955bx9OenEJoZuA1ERORDGQPMyVeVzZb3/722rOnDer7bffodpvv/16gsyArpSlxrVexOaWEjoSW3+ZazfDWGq3fghU/N1qE7GP36O/vQw+Yl4J3Nj//AF8xDuL1Ef0jVFfMNl6PW0p47dAJ9+udbT5+8Ix1qf6dzrcX5/6Q3Ps3b5j668NgwGZkiN5Rhv5XovMLG93TgvK4hVM7WJhvxq622xT87dO2zzaGPUXfBpES9G9Qn/Gn/5UnK8njzgnh2tS0iUtt7Qg5Y+PPFK98OKL1S677FLKb2uuscbC1XujDdelYCK90cBSdYTTTpTTDrSNIlx00YXV5ZdfUebQvvjFL5a3VpvEDYi2LPG3IpKczZnZR6lS2VF5wblEYONpHk2bOYxYsWnBjEd8vVbrT5nIXmutIgdkrxQrytx4443LhLAx6Fbol41tWfzjEWVsYosttigbm+Bc3q37/tzzz1eP1PbgRlHfsQclZH3tpfIxH2FVmltUyOS1116tHe06dWC2fZGHahE7pesPPfRQ9UjtJ/iLnXbaqdqcj6j1QOA3WnAtjtgYuR7900byt1COjiEDD3LnsxAEPdxs002rrRaU+J3D8X5/4onHi47qk8qJhV5KfK16Si8cx46dk84/+eSTpd9+M5fuNioPu1ir1n92AK26IDF49dXXymIyj4GyhJ18yYiszLOr5LAnD2M49NBDi+4NdWuWtpEDeeiXTz7KOJke0T5ycU16awqEXNwy5HfXHusAu/UFn0t/u4YfrLaLpY/DfZajzlI8T6y46+67Fz6OidLqPMXgaF3H8vQrrriiuu7664swZIqIb5U6ehgrB0XJXqzJ0+OinqoH+dlaAawQHNZWK692ym5HI8PlzJ3XfSKUh9IyYCUCBh7K7zdjde+995Zlt4hMxIUInnnm6bLakWKRMyNynvHgDBkGh+BeOrrBuEV9DCKchT4zTIbre/13+0I3949DYHSCkNtvv70Ynr/ZiQCEM+So6KLbN37/+99XV111VbER9uL5dN3ex05AzwVrxpF/sN17733FB+hv00fwIwI3j3n7U+00169lYczp+2jO/yAU+kbv2A/f9UBNtsr65rP5Dc9N1VaEd//995ftidqP+F2fkIg++f2+++6tt/tLnwQmxi+mFQLsmW4gG+Nu0wbn0jf2gICcw/Xpu3Pwy6ELfT7hnbodfykLw/gF53Be1/I7gmQ32g9WAvLx5DyYDINoXZ/e0lmysTnOGGmjoMT5faoa8ff8z3KTl6tWm7Ja8UEwVvr7v57lOJqERvAGgQI6l4vpHCEw3HXq8xqYR2uhU1RCEK0adM4bqVGQseo8Q3LN62+4oQwSpfX/cDckbRvp/CMlJisGfOWVV1SP1ZGguTXZFwOmPBTszXofsuX0DaB9OH1ESGEZEaMke5GuqI7ytSNPyj+a6GQMBUL6wyGcd955JRKmB3TCvCB95DCuvvrq0n/ykJ2JAtt19qPdPxjquq7J6AV0HKBgylg/XjtCjgyh0Xn6w2FEoMImRPUyBAGLSHosbGJxjLlMaGbtI6655pqipwIxPkK/ZaJ0lj9AFiJvTpI8jLnMgLyM+WgFvc1gybXYk2BDNiIQcS2O3f8Ibrm6bdrD3hzD/tkuv0dvEclbb80tNul3/o7+2sJPkLvr0Ifr64D+yquuLOdzLjbvKUCyG9e/7vrryn5kEhWu6Du74dOuu+76Yht8EhnKCm0SBHIURLEfNiVDk/VFsDsQtE/WyJ8gRfP0+i2gxg3a4H+6rf++U2r1/x9n/LGcf/311i/9sO9Y6C+MKaGVycda+JRvjz32KAbpPMoshDllgQO+9NJLi5IolX3qU5/6u9V5jHysOm9gbqjJ7De/+U0xKFFNRInD2fSPgSGWkaAvGnuyOuOM08s4UJ5p06YW+TBw8qS8M2ulvLkms/tq56gvbsqmrMjZxmlyENqkxEuenSjTaDk41+tkDBkGw/n1r39dDEIU6RaG3Xbbte5/nzPQL3rEsbjxn8EiNLJZ1P2DdvvI4DgazuUjH/lIIelZtcPkaDipqVOnFicvwLOv2zb0HZHTL7rFSXYiz3axOOQRPoJe7rnnnqWkx+lzSj71lzzYJydFHocddlj55COijDVa8ih2pVpTE5Cx2WuvvaqVaxJ7rr42f6gt5L/ZZpuV22vo5kp1pqRt9JEMg3DdenPwwQeXYEvgIltCYuzRJsMKICsB7K9O+1UhpW0+tE1lxTm7FcSyXX194MEHiq4gXkTk+/DN/ARCPPfccwv58BemjBB/lDmBn5BsIMR999236OJQdkMXtdFG9ojWtdkn+RtHsmGLnixlDn9q7bO0A7ELBFwnSupBwqONVkIb1Tk0HSQ4nwaS4iqh/fCHP1w45+GT8hC6SIRBEywBI7PhEGm7IGwptMiJEo3UoCmHp6vo03ChPGBALrn0kur888+vnp75dK0M76uVc6fqH/7hH8oTP0RuDISBPV0bnzlHA9kfyBAJUqR2I1ljxihFoNozErm4vuDFZkwHQ1wHiV9wwQXlU3/V+GPukG4wZk9S+elPf1oCkqOPPro4faRGzwYzTNew6Z8xJ7eR9M+1OKa+zHz5OgMeWF9dJ8rw9Jpha4fFPOecc04ZH8RF/vqIoPUJgZOj/X2OdoRLlzhDTolO+X+4iPITZ+ezWVbrDwJa/bUZO7JRcfjxST8u/2+26WbFnmRt5mL4CI6KDJyfTEbTR5A7GdhkP/RDcHHGGWcUQuILkZgAHaHoL7I99dRTq0suuaSQj98/9rGPlXUASETZ8eKLLy7PGETYCJmvsC+4Fh90+mmnVTfWfd9p+k7VYYceVu2+++4lG3cNclJa/+53v1uCVfNoXzruuEIu5DSnlh9C/fnPf16ux7ceeeSR5XfnICO6hjR/9rOfFdIWEBx//PGFnOneYKC3xkjiEb5cdeTHP/5x9dbct6qtP7h16begBHHhC2Snz6osrvGJT3yiyMV4DqUXwwXCbc6hjfqikCYYjEzmxBNPLBemMCIVg7znnnvUg7BJcQ6tTjccjs/4Gxh1bMOBTMgARXQxUiAO7WdknSL6pRRQssazz65erGXke8pGQT/96U8XwuQ8fc/4OJ9WuTRBNuQZWzuyouwMjPIjNco8XKjNM2wBC0WHgdqgLzKvM888szgAAcexxx5boj0GHDrIsDiZX/ziF0Vxv/TlL1WHfqJvYpvhDtZHctKfu2s95DyUdshxuEAw5cHQCxbiDDWx3gryvfbaa6uTTz659NccqaxEdmDjCIYi6ZGCs5Q1cpScIgc7XCAZQSmHzbY7LY+6P0ql5Ad10MuBIwRyNbZIhB4Ijlp9RMBYNm3BtWMbDmRDF154YdFJ7RE4ybqMDVu3AOOyy35fxs9cJz0QgCnl6b92Kh8LTs+ubVpWLnPzGYGvKoNjnQOBIjybPofNCiwF/ggN4ZPxV7785VLNImPVGnqErPhV5OKxhWQXhC9YQL6uw4a04Zhjjil26ZhOQF/Y6CmnnFJNWmZSdcD+B5R+sXM6gITp0llnnVUqYGRBbvYRmC4qQhubPHABOCQOTocQCWNedrllS1RKUWUiTUUNR83RIR/E83xt9M/Ug6cEIOJARK1K3C60R1tEwqKVkW6i0uGQGWg/JZMxmhB+ok7To13KBZxaMxKl5JQmInd96W/zG+Wxb7tGLVpXlkCsMiELE4azlUU+dRQn43TOocYI0Qii7P9ynT1NqYmbXnDw+hlAejH2q6y6SrVarVOMWj/b6aMVhJwDx6mNyLG/9rezcUTmWhgSYugU+iVS10cyUp6hkzJTfR+MEMI+IrAZrh04VgbECXCK/fWz3c3cDbmK4DnhTsEZ8hGcPXnEYhkE0ucj/neVQZ/1gT7wK8YC+YyGj3C8vvA/xkjwLTOLcuH8+W/XAcDrpa3sU8lNJmkMSzvrawoQotqhX/rHLmP8olwZAQ17R9pNm9X+yGZDrvHbO/Vv+myKQUAssNZG7Q1ZuY7jjLP28A2u9b5av1ynU/DF2k0uUzeYWuQSAV2cT5td06fvyKd17MYaozqH1gqdEYFgd06LAEQymLRPEP87ui6KWgvNYIum76+dx7333Vc9XSusAaYYkyd7YO/YTTR2guG2waBTRk6B7PVbhCUb8xtDF7FRUso4lkAs+iE65kRcV2Y4nI2By/CViaKGP5CMGIcFQ+YBOCZzRsouDFSf4zhkJOpFJKvX8hClbrTRxgvPPxS4NTeVBpmMpH/sQ/84EI6qSbztwNja9IWOc2RHHXVUcYrGfih9ciynQV+AjXWqg+HsBARkLZDqr6/tbIjY5m/tJ49O2uPWlzfqgIV/EFTxEbINQS8y44daz0cGHD3icQxZqjBYucxH6Bf96SSoC1j0gKBVLZR/6aNsgz0CPaWLNudWUqMPglv/GxeBgqkWC0VkrmyCnI1V/M7m+TclQuTdvAboBwIRQNETx0+v95VdGT/t9JsyH3vgU2VxoQ9kJEi0ihzx8SP223yzzYoP7ZRo+HAVHNnlPvvsU8bH9ZwrwE7NhQvSTXnE8v0Yi7EAfqE7ZDXqc2itECkZNHVejpuyqvNKQylraxoq6jFAFo3IWFaoSY+iMJKI+jWaEhGWqKkT4qUkBIC4I+oZCfrmUfpewdAJEIhIUElCX/WL4ag5M07KqiRAThznUPXukcI4yYJCLgtUomMwJOOBaMilqez9gQxMaFsMwkExFGVWY+z4aIfM0bwTJ7HddtsWHd1uu+2LkQ4F57DpHzm7znD7BxyBtgnIhmOoYYDmAzk15/qP//iP4iBE8wM5YONCXkpiHK5gQADAVgWgnYCzCzsgjyDH4UD/jTNbHI482KRs5dQFc1KcpBKerb+AQXv5CC+69UnXYo6GryEj5GChgtKwdrVjn3SCHNikDVFapBGLPKJExzaV1GT59O+4444rJXYZGsiczql19bzzzy9/f/3rXy96zcEbW7bm+NNOO60scf/yl79c7P6DdUAwuVEGdKxx/v73v1+yLKTnWoIH4+b6/Cp9OO5Lx1WHf/Lw8sQn17DZB7E4HhkpDX7+858vizvItF1CIxdtJhNlWDL+2te+Vl4sTC7hf+mjEvZJJ51USO2AAw4ogdqutWy84qpTAm0X5LRISo6UA2ObsJR+hxGJqnz2Z0QEJxrh1LkciilKEsWIABm1wRHVm+BnDJ3AMZaGqwOb1zvhhBOGvX3ve98rpUJ96wTkIH0vUdqNfygGiOhFT5SeUwgnvKjAIXEeiISSItHhbI7lkKLEMhToAH1ANBSe83FcKL/fRcQc3nsrtdavz19nrW2cHxi383F8srOR9M8mgxUtI6JOnTf9ZoDGni4KbOgwHeAQ6EYr7EMG7Eh5TwDAufRlAE+W4zoFeSBkREj3+utnu5vjybVTeQSB8BHGlx3pK9/wSv23se5PHnwAB88P2F+5DnFx1Jx9+AjOlazb9RGuFeND3pNqp08+9KZJiK5tH/uzV0EtnaVnYFzdIO9cUVpu1WnBlf45rwy9yK4lMGcTFqUowQpoZWbsg4yNeQRnk5efXMjWuVxDO8jWcQgN4fleOwfKeAeDc9FP/XI9/RFAtI639vDdL7z4QtEtNqKa0mnGPlKMGqGFE7YZbAoqgqJcyywzqXTSIFNgCmNgY984TscNDqfordmiIwsEZC+iHM4kjIAAKXQncF1tMo9i0tZqnJFszqUdnYBSUDLOyfGcP9LecostFmacZKJvIZtehf6JJOkFUH5GEkbJcM0xceZuUzD2nMQqtZzs29SdbkS0zabtyFuEXwK2+jtOQR84ArrJ+fq+2S/6wrE5RunI8fTmpZdeXCi38YLok/7ZBHacrvE1nsgjphvYVX8+ApTmkAnfoFqjrMdH+NuiGqQmC455rHbgGoiG436rlutKdVvYpmsFGQFCM472R3jNSpP2+d3GfgWIUYZt9iEe8+XcdMDvzWs49uWXXypETy+Qg8AhFsfok7Enn0kTJ1UTl+6bq4rzsxvlTmVY0xqCZH2JLDP2axf6i8S1SybKT2lz2Km+6DO/hkgFGXz4qvU1EfW4JTQdI2QdZ3giUQOy1157l+iJEILQ7ONZbj5jsCmHaOuf//mfy1ybQXSM3wiFsxPtNCOSTsBgROiUX0nCNUayOReibgf6YDPwVn6qf8+ZPaeUjWSgJmxDSchEpMrBNQ0htl6EfjX7SgYcUjw5BfEZP4a5XO0ISKGpO92G6E/R89omEBPnbb7QOJtXMZfnb2TNadgn7Mcn+3DPmlVufhP4WHWn3L7SSlYHd5YhLm6QSfTPRh6qLTIA93+pwtQGUFbwIbvYzxbjvEJt+/pv+bmSvDka/oAv4GjZIxsiL46/Xd1wDc6Y4yZ3mQgC4W/4HeexsV+k5zvBVRBa/I6M7eNv/guhTaz39dxH1wBBqyDf2DcDuNgQqzk8eu9JIMhBP2PhSBPN42LTBrJ9sA6C2BC5ICIEGvI0DrH/YIjz6RMS1R/ybsrE+cytFTt9/Y0yPvyafRc1Rm1RCEUQDSgNiSCLw66dMiJTY9Zhm+/i6f7myR6uBW9Ag6Rs8TeINpxbRmP/Nep0d6+99y6RGOVtHeDBQIEMLMNBImquw92UCLUhygBDwcBTLqsAzSdSOPMmcS+b1Ufge9El0lfSIQsKQ26MNrZeAAORgclA/K2UIQtneIxIhCkA4uzn11HtqlNWLbok4hSBqufTU/+HvnQLOGB6K8rWfvMKFhJwVnSHs/O3qJaO67e+6C/7YRP6RcdlI2xGpM5RIwE64JhwdOMBiMC48RHkcsUVl9d9n1tWzJkj4sT5EESkbxxi+BPgMyY2fAT5kBlZOYZ/MQ3Aj7Ep50RM7H4okCuHLIDyN7myzygZIgA2yK89UrfHOVWNjGMEtfYxpWF8IgCRpemTPtBxum1F5uOPP1HWLHD8kckZU/1wi8nV11xT2rPNNtuW6/DLfI2+Og85ytqdgx+KdtA5usautIfMyZL+CAZl+ciJfmpLyG8g8FvKtzbH8Z+CMRyh7K+94e99vr8mecG+MY0+jSWMSXNRyKgRmtKi6FM5z2oYTpgQKRVhM1SRqAvLPAzyM/V3BCtFFelQknDYBt2AiU6RGcVGZjvsuGOZ4AxFHWwwWqFPDIEDcPxINwrRDpnpo1LKHbVDIx+TwdqhREI+Ij2GCpw7R+3TcWT2zLPPVO++825R6IgYewH6x/A5IgQmQo5oz3gzRrKxz6yXZ1WvvPpKGXMyYbjkYG6BIXcbodFxBm7ynv4iZ/0V4O08fXq1Vm1j+sux6w8Y55lPzSxjzAaNNx2TmbIP/dVvzoXejzdCE6zxM+Ej5s6dt9BHyEI4zL/UsqALxpyvQHJ0wjjrp3EmB7bsM8iMLN2CwLmxTfdcIQsk2I698H0CDrLlf2QZ/IwxcE0kol2uwTe5htWY2mWMwg/xWcZdEKONPvWBPsScmv4IWPlAbYuATICj/GplIv0X4Fl8oR30IfydTQZLb6zsBO3XrnhakH7zMWwJsWk/e4qneFhsFxlftL0V9FW7+XVVJeOhTwIsfQ4yQWY+yYpMrMZEfPR4rNFKaCOmz0g7DZzBoBAGw8kNhLKczosisDYhIj/KY1AMcAi2CQrqPPYTcSDECfU+zUla1x0PoMDmBPRbRK798cw2Sk6hgWKRB2XTN/LkCB3DwMdLf9sFA+XQRLKMhMEZa1EyY2V4cZ8PfapNuXrwob4ntMtqop7fafC1KMDJ6k84cX8L3FQG9HWtuu0CPXZBH2b8aUYZ75dnvVzGPwI8OjGY0xlP4CNkHZwjJ4TE2EDTR2xRk5D5K3LjS/gIkb7NOLfKgW2RLduSGbGlbWp9oTdBgEOBXXH6SMY1yN8YNStArqPCwsmz0Wl1250/2mRDhI7TH78JStmv82o/gtJPgYjsjy4gDDKh90g+fB0CMy2CmOm+4wL+tmAOcShbv1T7yltuvaWsBhYMa7/+S05ciy7ypWSqnTK1dmRDJrNronyhDjT4n7Az/sgYSja01zWd01TOvvvtV/S82d5FiVHJ0CiEQcCWnIyBsKiDgiIgQiRAEQMjpSTIzmBxZga6ldAojmO1RRQkymHwohrnkq2Nl2yF8xXdUVx/i6o9Fy7KCAwhjIJ8IrLh1Cj+3nvtXQzf/52MS7fD2Om/8WfwEakqFzEOGwdBD/xmYzieIOGRO+TXdDrdhIiIzQ/RX+OtdKSMbBmzcWT0nKPxn7LqlOKE9t9v//LZH1FzfuxMWQvGW4bGdvkYPoJ/kH3IosJHGNumj6DzxlkGx0k3xzmCO+eTlXi6B8JhL45BluTnvO2AXXLUnDhC4p84ZvpofMhedmwzZnSPnrbaZPg5Nmx8lchlLc0+yJ74Nf7RvnwDspE9+R/RkY2pDdcijya0h94r73kYgd9Xet9KRR9UffhUhKct2uZ3OqgN9NB16Vf4nIFAJjIf5U+BBZmSLXIXkCAy8tJH7fUZ3NGu3EeK1gxtxPehhWKJQiiXaMBAUtIm4ei432UqBGXgIi1ujRSckwI5l0/RgQGntD4333yz8jy/LT6wRbXyODBmfdcPWae+kAkHXuYEWgbffgaJPB1nH5vxCOLrNdAHumFjLPSHwdIN8kEO9EYphW7QLTKhX0MZ5eKCfmgvQjOO+mNrtpl+G2vOQgBnjKPf/Y01GYiMf/CDH5T/zb9yYJzXeABZhI/QV2QQPsK4kgGZ0X06EX7EZ6uPsK9zyRIE48hIAITQOHb6Ae3ohmsbL/ZpPFyLw2+OgzH0mz7EWNknCK95ntBltqwdxtT+TeJzPnptP+clEyAP17X5eyCb1wbnD7vwv/1DXo7TFu11fudwTr9rczM4GAgCBBnmj370o3IegdYRRxxRAlDnd019Ch/l+s0+LgoIMBbZsxw7BQHFRmCx+V/Df/nLX5YFFYT31a9+tTxHTdSTSCwJGO+ENlpABgJDJckbb/xD8Q3Tpm1Y7VNnQlNrWXDawInHlugc+MD82M9/8YtqxdrnyqqtspVht2aNiwuthNZVy+UoqfRbaZEw/Y/McC4BthtZJBK9Arpvi0CPM7eUO/6PLfbrdeijjEN5TmbGTyinKYWZk1y29hMyPN/LfmQpic5Bp8jZaspX6uzMrTKITDIhyehWdFXLpPyiLk+HNtmo5o7UlB9MKFNQ6bSSgpJdt0QJicRYIchMSYodcDJKVfPm9W2+U3pCdEsCqemf1ZBWG1oEssoqq1bbbrtdmbuZX5OXp3RYIBILi/iPROegT0qZXsb62iuvlHvpSlmx9rny3W7VszF9OHGnULO1gs29WjNnPlUT3KzynaWnlvr2reBZvTwhwISsGnZmbIleBrJSVqH7nu3HUd9xx+3VS7Ne6Sun1ftw2v5ms805nV6EsmvfIpALikxeeKHvAcVWCHpVStwSYPGMUqz5HnNHic4gaHqy9rsCB6s1LTCRAa+3/vplOorf7YZSrgBvVJftjyYQ1BZbfGDhgy8JNVbTyMasojn44EPKKp5YxptI9DJkZgiN07bwQUa2ySabVptaLVnbhNW/7n2KVcayuV4G8iYTz/NUqYkFCvouo/CbxQnm1s2lpY8YHmRgnmcZt18pN0p4ZMdv1joog+tGdNWikL7J3jnVSy+9XG4SJDwRGYX1lATC9WnVUE72JpYEcNJKZ6JkJXkZWxNsQLDnfiT20euBnlsh4sZ7DrY/AjctgdDc92rZ++LwZeMdAid8IFiid+RMt9x2sv5661XLr/D372tcXGhdFNJVhJZIJBKJRLvo6lWOiUQikUgMF0loiUQikegJJKElEolEoieQhJZIJBKJnkASWiKRSCR6AkloiUQikegJJKElRgXu/nAfoc09KwvuBkl0AYyF5z/G+Pg/xyfRi0hCW8wI59LndMbXw2ab7S6vsnjttfIqFDcD50NhuwfGyJgYGw8q8ASe8aJjicWL0BFb0z+F/nQbktC6AKJmd+Z78gGH4zE+8X6kbgfi8nTzGTNmVJdcckl16qmnlndUeZh0ojsg2Lj22uuqs846q7rgggvKw3uR23jRscTiRdM/eS9avGOtG4PWrno48ZKEiHoQmOdVeiCzF5heeeWV5QHN4BFf3frKHBEaR+kRRB5g6vXv3o6wzjrrlGfseURZPm2mO2CsOCRBhkdoeUq9xxl5pJwH98ZbK/JRcon+IPjxCCwPfhYUeUea7/inVVZZud5j8T2GsKsfTrwkAZkZjHiKuke3IDJPU/cS0+uvv748cFZ5qNvAQQp+kJknnN96663lETTeS+Wttl7VTtkT3QHBqSBj6623rtZff/0SRAlgBSEPP/zwgM9ETCQAWQmIPEPzsssuqy699NLyJmuk1m1VxyS0xQSEJnX3MlNRs4zm4x//eHmytRRfFO0BzRSp22rV8+vMTDYmUrv8isurd959p9prr73Kc0C322678mDYzPC7BzIxr//wlopPfOITZRMoCZ5k1xxVzKslEk0gsylTppSHX3/oQx8qtu0NB7Z4m0E3ZfZJaIsRSnKczBFHHFEdddRR5XX6e+yxR4mmlfNM5Lc+Xb0b8Gyd3nvnlIeCrrzSytUuO+9S7bTTTuXJ5klk3QuOhyPaddddq8MOO6xk0SLtePNzN1YDEt0Br+0xV84fBaF54We3IQltMUHUzKGo+3olg3lLr2eQqSEGzofymHjtlshZpsjpKVMpkypdedGqTbu7LVpL/D2MjTFaaaWVqp2nT6+2+MAHysIQi3gs6lExUB1IJFqBzMq70Gpi8240mZrX9NCpbrL5USc0To8D5ohj83+zbOZvG+MZbL9eBiXwIkJpu83EfEzSIzoLQchnNGQS8o5tuHAspX7woQfLyyYp9Qdqp2jujHIPBMfpxzvv9I1z9KuJ9/bp0wmfI21vN2MkMhkp6Na69ZgpIyknKXkrfT/33HPjJktrlY3N/63yif1in6YcR0OWTfTXpuaY9deWZpsHPL7+big4thzfODa25jUGQ3/Xt/nffBnbFwAhtE7fM9d63tY2ld8b12y3za0YVULTAB0ONreowWIB80BlYBoNlH0QknkiLzBU8nCczowltGG0t9FAnIuziUxnNM5NMYyJyCrmSYZzXsc4ViRv8cqcN+csfKkkQkbGrYg+GdPZs98ouvDM00+X1XYWxERbYh/f0Ru6EC+z9FsvodlfGa7+kon+spOmTIybfRANmbAX340UkalN23DDUt52Tkv52aEyd7eDbMhJW+kSP0M+cf+j3wP+t+iFnJ966qky9+sloaOtW9EmdjZr1qwyZtoVZTq/xZgXO6j9nt9lxfG7jQ3Qhb/WvxW9qNvqnPznQHBt545rP19fWz9t+q0NQ9l+s30hU9f3+VL9v/boEyg3qiYJyIdCyEW/yN35nMd1XK953fAP8XuM0UBt7g+jumxfAwjjtttuqy6++OIy4fz444+XEkcsDw7Hx3issjrvvPOq888/v3rkkUdK5wiKgxwruIZIwOdIN1iq7s9optzkRRYU3lggDPLrjzDaAUV2LhmV8Vlm0qRqUj22wzkfxbv66qtLuZGS7bnnnqWNK6+88oC3FtiPopqrufTS31W/u/TSorD0y0IFOmEfenPfffcVXbj55puLUcseRtL3bgbDJkfzkDaOjSwiW+fAOGn7nHPOOWUlKYdFJuQ9WuBkHnjwgSJ/KyDjrdfdDFkI8rr//vuryy+/vKy8IydyW3HFFUq1YMKEPn3ULwus6JWNHMladWE0dYs/YF+CPbfgaBOf6vzF99V257p33nnnwjbzk8bZ75PrbGduHdCw/Wtqv3lprRNWEGv/MjVxqNoMlBGxS/Yi2Lz5lluqK668siyxd33f0Ru3/7iOz/78FT/BTsnUdR3vk+yenjmzuvOuu0rQYz8LwCK7H0p+bNtYmaZwPrzAF/hen5atx+zFWgeNH7m4l9UtAn5foW6veTrXGMjHIsrmsv1RIzRC5Yw5I0J46OGHSiesoOLsYlUMpQPn52g5MUpmHw2aNm3aqBpsEyJgHTcwD9eK82gtCEvPh7u9XSujflDWkRoGg+BcLNe34ILyWzBCHp0YXh/ZKl+J6JYqkQ5lEVwwnim1s+qrfdu3L/Jph5AjiqLojJYyUmwRPqXr7xyux0j0x0ZmSlsiZedzz5qxjn0EN9opE6Evm222WVtGM54gG0LogjnOjTEyYNG0fpqLRPQzaydCFzgADnLevLnV+9+/XpH3aBIOh8lOjQldc36yN57t6MXiAH25rfYZt9aEQHbajwjY98orr1LrzGrFeQO/IkPh2PkZjl+5TKmcbg0UiHUCes52nZ//0ybXQw6ARF6r7fmmBb89/vhjxVfyQ/wRnziv1gv7O4ff+E2/Ow8fo83Gvencg0Td8mPFMT3hw+mQ4ITfoF/OI3Pzv3Poc3Ns+RrncLuQgNV511133aIL7JPN3lUT2nPPP1et+/51i91vvPHG5XyD6Yi2kQtd54P0ne/g82V3tlfqa+Me1xB06zc5OG7ppSeU8maQWn8YM0JzYg2ylcYut2w16+VZxTAZ8YYbbriwcWAfhKaTOsN5uYcpHORYQP8MbkQvIoX7auENd9NOClIylA7l1QQFEkXdfvvtpW1kYgCtRnNPl0CgXeeCdET/HNT8+W+XiEqfBRkMeK16bOfU13rqqZllX8ZmrIciDedRvnDjN+VhNFZkmj8bqPSAtEJJGT1H+VLtUOiEPkffKDCD8b3/6YoI0GKZ0YyimxABjjbaGSNOF7Hr69J1v4LQjRfHxhGRgeidk/Gbfchiyy23LKTj99ECB48MOAXX5qgEGq1ObyCMthyHuiadEhDcWztFOoS4Qs9m1YEQR8yxCQqgkElNaO73pGO+t4jJEnRyHQ3d4ri1yXhpi0yKviOjSZMm1n/3ldxkKmwQOZGbNqlU6TMfyYmzRX0QdLJj+2insWFrdESbHU+XjJ3MRnDkHO413HbbbYv9yEKdMwiCrNZfb73aNy9XrkN+juEbEKJzkJdbbwTTzsHO+UlBg+uR3Yc//OFqvfo8ETQMBH0WqGmj9vIT/Ai5CIj1g/7xy/zo2muvVfqN9Pia5WoO4Qv4DeTWn26MGaFxjo7n5HfZZZdq0002LQL4y1+eqI3yxWKMLmhwQAc15P7776uV4flq3333rXbccccycJ1eu11oo/KKwTNIUVMf7sa5cMqr14pDEYaDUEznU1qKx0atsuoqhdDIrBNCM7D6dtttt5fIiywpB4MLg6AwIibKwMAp11Dtj4BFFMgw9ds4U7aBjmXUghZjLlixtN95IkNjcIyK89ZWhugeqZ133rnafPPNy7m1t92+twPyBtfniBgYox7Jpg8woW7nUG11Pf1nY9ttv31xEPRSVG6syITc2KM2ciyHHnpotf32OxRS4xDJZDSgrRwdhyOoRGQIjQ0a06GcvXbqvz6RZatcOtn0VXtiGwiug6DIjL+gM/Q3ggR6SU6C5wCb4NQ5UvtzyPSLgx1qvNoB+6W/2mS8ZH/OjQTerfVt7ltzi/On13vvvXdNOh8qpMcOjbvjjSl/4vfdd9+9jAWb1S99Eej7va+cOqHIzO8eZcaf0WvHfvSjHy1jiIgEg/Y3vvwLPd28bht71L7IoM4+++ySWTrvkUceWTKwTTfdtNgf8qUbFg45fqcddypyd/6BAtkAW+fL7Mf+jQsgaQFT2A0/ssceu9fy2aXoXlQMtL1v0dm6xTb608cxIzSNZowahG0NEAV75JGH68+niyJh20ibDaKI6Z577q4mLTOp2n+//Qvp+X00lKw/OO/k5SdX671/vaJ4H/nIR4ryDHdrZlBDGf9AMKiUjVKqqyu3GUiOKwi+E0JjWKI+aT0lZWSUynldC3mIyOxnPJyfgg9FaHSDUiNcDky/tc94DXQsmdAJESfDoFNKHxSQU9InyssY6d0+++xTFJj+xfyafcZCH7QD2caCJM5hOJsMii7rKzkMlanbhzxsoevGhpFz6iAgYfBusjdPGTIxTqNN8FFy5PQ4Kc7Q2HK4Q+m0wKa52KI/+bSzOYfxoB/6N5jvIReOmoMPp02XVTWeqscyCG2dWl7GAunSW6U8Osx5sn2EMVq6pb30leyMk+uQp2u+UBMGR8tXCOiMOdA9GREfufLKK5XM6qCDDirnkBSQSZAwO/W73/hZ44KI6Mm5551bbElgdOCBBxa52Ee/9D38rOvRPX1HVMaXzJW1+R2+AeHut99+hUDjHL43HaA/+ons2Kp+DDZOEJyg/z61k1+SyWq/6xxwwAGlTauuOqXsj2RVqtilsXUtx0e/WzFmhOZilM1xcWFCnDHjT0WhDAhhr1l3zH4GknP1uc2HtilRU2v5ijANik9b7fmw0rCVULuWn7x8MQRKQvFHsnFKhK7Pw20Th0ixPU6GcyF75xXRKYtI7TshNEpL2RznXBQnHFaUrwQXojmKRBbtOC+6IUMzZgiI/JQmGPJAhKbNoRM+HSeyFJmKPOkHB6Y9yJF+aEvokOOj3461NfXB/8192oWl8kj9wgsvKtGpeQMT1ubvOt0EDWRsjFap5S4YGQzaqn8hE/0QICgLK81yZM4xffr0QmiMtFUmowXnohPIgI4IOjhN46ANQ+kEuyaD3/zmN0V/hytDTyzhdKMcJ+MaCNpMbiV4qD9tAgL6JNuh8zKZ9epAjW5xovrHSbIrTlv2ETY1GvJsbROfxmn39WnVknnstttupV32EQhwwvqt7Yhu//33L3aAzJyDQ+eTBQt8cuiC4+k9XVEtMT+1ztrrlH6xZ/bteGBrSnqIVfmSr0LoiCTa6fmx5COwFTx9qPbT9M3vQYjagVh9z2+QX5QMB0PIhe6CoAc5uh5fj+TJhQ/SL+fjZ1xP/+gDmQRJ93e9VkIbvEUjAGXi7CiohkSZAAMTFOVjvO9730plsERMBMbARao65nf7PVQbO4N7sh5c0ZiBMqidgnANBAFy+CPd9G8gQQ8F7acsFIXC+aTwiN/nCsuvUBShU4PjiNZaa81COCKxkCPF9ul8DFt9XB/IIxRuKBg37dbf4ThY8id7OuE8jJlia8u0aVMLiTdlaR+b8dYP0TzlpQ9IkUHSKb+XgKdNxDk5FnqpHfRqOJvjGdVwdZIhczCMl947HwMWcXMyxnMgGbuefjfvZRtOGwLOEfbZDuxn7nekMnSsc3Ry7QB9QQL8h09jKvNgW2TB0dET5405SI6dTEOuIcc+GfatgB4OnMemT3RVGzbacKNyA3sE69pLZvahN+yB/ltDsHLdLjZCDvSazfKjAlQPAV5mmb4Vin5ny3zGSy++VLIf/UJmTfvRD9eyPzh39Jk9kQs7Ihs6yB8EoQJ5xBg5r3aw3SC8ThC6TS7axT8ZjyaZxRgI8P72t3fLNeK3djFmhMbhURzCZpQGiOJakGAgCXLOnNnFaNWzkYNjKAEml26b58Ho19dRiOjPp8hHtGG/ThWPshk8A+z4kW6Erw3O2wlKO+pjGZvIUbZA0UQrBjkUkzyaStgOtOuZZ55duBCE3BHF6musXojM+UTlIlrXNxbtOhFt0hZ9jq2TvjtWW1ZYYfliFP5G4BtuyMn875Wtzq99olVRnexQRkQPRPaiUyUM/TGm2tJOe5ZaakKtdxuURS3mDD772c8Oe3O889BjfeoUZEoOMgaT4AIMUaloc6BMJfpJ/zhw9kBGMnzOoFOEzIxPbO2Ac5Olm/fsTzbtbp4B+slPfnJh5N8pyA+hOZa+BKEJMgTEKgEyJcQhgzNOIUM6Rnc4bVkBWXK8ZBty6QRsyfURjnMgKgEKmw44P53VRr/ZyFKJlOzZrN/5S30S7Aj8J07sIzR99Lu26iMfq1/k0Bw7bVE9oCO+R1YIwt/6S2cQDN1DLAhLG4JAgjjpFb/hOvrBLzWv0w7oJbm88MLzpZ0I2KZ/cT3y0jf3rDo/3rB14gNHreTYH0LwnKtOiABEAgRkNR/FkiozYA2nQJa0/upXvyrv1eLEDLpBQIDmmW6rCYASOo9z+q1dGGB91CYDHdHHcDcgp04HWD/JxopBK5REYkoB6skGlaL5jrNHQhSxXchg3Nf029/+tjbkp+vz9s3zURzzfmRmPGKJLyWm0M1Sb3/QXo5BGcWYMAATvY5vdwyMG7nfccftJbp0HmUS0ZqAhuI2IbpUKj3llFOqc889t5AXWTtOH8hO2SYCp3AaQ40FA7Kv69I9FQLtGM7mWOVnDokMOzV0ToM+3nbbrUXH3377nRLYBKGFsbdCQMThqVxcfPElRZc4Lu0wJu2CwxI8Oo9rKnMjFrY50LUDdIl+yiZHKkPXDbLpVIZshk7cfc/d1VtvvlV0QZAMAh96u+WWWxVf07qIiaMV2Cn78zsIECIT6bQtyIiNlHnq+u/999uv2LE2xbnIWqDuU7nRFvOWgFgFuubIfK/ddIydAhsS2KvsIDR2zRZdA+I6iNN17MfnGCfXQpB0jrxuu/22sqZAYILwm8RLv1zHPJvjzeUONW8+ELSZnumX45UbY80EaDPZ8V/GzLgIBuwnux2I1PilRVJyBI6YAkXkRECUy8ICjcPQopNIczm8N96YXTI0jbPy8fDDDy8PUj3mmGPKoM2pjdYgSZc5vE5AYI494YQTqm9+85vV17/+9WFv//qv/1rumzKPwCl1Au3gkCkKxRLdU0ry4CRGAkpP8ZDj5z//D0UhGCfF53A5S9GwByE3M+OhYB/njsCDwnVSZrMvpTZfZS7O8TbfkYffWxERJmfFsA855JDyIGdZ0cEHH1yCL/pkDESazjcU6J1NfzgQ8qZ/w90c7zydBjWgvQxR9UE/3GbBOdMJwUZ/MvGdSPeO2gG7UZgTtjqWsyCr/o4ZCORrf+1wXU7K+Ppspy9sVknMMf3JppONHF13KBLtD45FhgIbPoEcbGVRRi1LwW88KT4CN302PyWwO/PMM6uTTz65BEgqF2Tfrl63go8TsGuH9QIcdhCjc5Kze9KMof/ZpnaTY8DxUYXSryDXgDHjc/hL5+dfHR+6HfuwK+Qo+Ga7fC0yI2fn9v2bc94suuv4ZkBJPmwqFq6Qm4REW1sDz3agT/w6HohpB3rTbDPZISdjZ8wEnPrX3GcojCmhabCGaxQBMlqRucwL0W2yyaZ1hLfOQmdg42BFCxyyFTX+5njLAomaqe0r8iBwA9oJGDCBUnKORHuGu1E4CkGxOlF+cpCBeRoAJ8SY9VEUF+TifNpq00f/xzYUyFokJhiI+8Q4CddlTAxElGY1E5kan3aiLfuE8ZlnMAbOOdAYNNscTlq0ZzXf5MnL1+1arxipcWDcxtO+zT6TBT3RXv2JJ5OI7OgEA7OvYzsdh8WBkIeNTDxOSBQuK1ByVTbjWDhaMok+kYlPfeVsZXJI3N8xthxoJ2QGzucabMLfQUzunWrXgXQDyIztTFl1Svmf83zssUcLoelGWcRl9WBNfJwx2bNdy9E5WfLzPRkGUQwHxkhlha4bi3Xr8dSuICu/O797MY2v74OQwu5dW/uRiXZGKdC+Mb9nP5sxQubIpjUQkK3zU/QEZNIIArHpK52aP29++Qzfa4s26AM9E3gjGLaKZOgHzYh2tAvnYOtkTCatJE4ufndNbRfkG7cgtHYxpoRGCBrPEWow9lU2Ejn0ZWcb1ilu3w2QQNAcsPturPrRIeegHBSQ4zKA6633/iKQdhxxEwbedSPz+9SnPjXszfEyRn1rJ2JpKgonpnwqIlHesaJNvw2wwbMfedkiGtP3cPaDgcJx9Bw+MnBOSozIfAYxuS5Z+I4xDQXncT4RnieMMEjjyOj6U2zf+93GQJUOZeZkhbyV+ugGoyMT+1Fkiu/T8cZLOy1nFtxQcoZLFvYhGwqvTfrdzjgsLpCR9oZMPG9PQCMCpuPkgayRCoILmdjIBOmQib5zdsaR/rnVgYzYRafZzdt1e1Q82BYdYFN9+tBehtYtMO76H/qujEqusi3fKaVxxqEf5Eie5CprU9KjX+zGWAwHxtdm3Og7W3W+VkKjt343roiM/mq7toWOsC1tcw667Xekq1/abWyckw44hk8IgrE5TjsQtgxNH1VtVL30j57YjLlP8nBdn47VtrIYrz7eNX2nDdoLSJvv0qa45kAov9dtcwy91X5tCBL2u7b73XgJeNmycuPGG29U9LETvR5TQiMwQmAoBlKEzpkzQAJec82+V44EDJTOilQdoyMYnQJYACD19dvee+8zrPKctshKPve5z1Xf+ta3qn//938f0caZIKJ2CAEogNq6+Q6ZKjmoSbc6JAOs3xSLs6GcHL//KV0nYFCysW984xvVIQcfXEiBMnUKfVRfZxzGKMblzVpBzee0Qrtl4gIY/bUpNXLa0WfnMaaiZJvo7Nprrink53jyMGYImGIDGcpgnNv5OHXnFIF2GuAsapAXEmMDl1x6aXV13Vdjy6EKakImsTgh+in4EQyyIQ5asKf8GoGQY4ZD5m/WsvQcvRdefKE4VtlATPqPN9AVpEUWKiBXXXV10ZlNN92s6LznIdYOpuxrH99F4CzAomMj1R/OmR7LNICPct4gNKADnDeSMJb8HHuMAIJ+G2efYCzYPT3wLFQOHxxrrPymWsIenZPvQBr8i3URr77W98ACOsZG4jpIwznYl3Nok0/nYX9skQ2uttqUhe0EfaO3FmjR0cHILMBnvVjruf1dQ4Ae5GnTV37CdBDSMy3CR6jidKqLY7oohPAIV9prICgdIjP/gYE526Yh2j8ErvOiLAscLAiQ+jK46CwhU5TYvx3YVxv0jfKOdNN25xuqDZRMBGSyWJ3e6k2K4A3V+iNycj7n4eBERzEn8vfKtVpRxKaBDAXndG6RP8PR905k1goGiYQYESe4wdSp1ftqZW+2Sd/0wRyjxSkmgsF8nsUv9Ite2EdURsk5cX8zMPIwvmHo5Me5WwDi4aU2ZMaZy7aVWGNuYCR9G0swXIsA3Pfj3jfBnSDGzf2Iac011yiRORkgL/Lx+eRTT5ZSGudI3jGG+gr0RWnN/u4hk5nTk3bA8dNFbdlg6gblRa3sMoKHbpVlf+Ag6UhZyl7bDf0xT2zRCX1r6oZPm+9sZEenOWkBm8oQecccTzswvrJnfhT5OE6J3HiQJ19hH37MeLEj10E02udaka2wd/0QxDqGHiAS53GM8eV3EJ8+N0lF3wX/NuTA5gS0bAQBhr9yDCKhb3ytTIwMtI+eRqVn7tx55RquZR+/66fEQlDAXmEgOWk/vb6ptl16pn30HkHSY5melcuCNrqsnfhBVh38MNgYhJ2Qz5gvCiE0jWGEMRgGMBo7GGk6lpLGRqCRqRAKoRr88QDt1F5OmyIbzF1327UYG6Uhn4AoU6Su3k3hREzIgqFRhMFk1h/In1Iw3JGQWZyHgXKczoVsGQOlahoVJRaFCZCQ1cqrrFwCJWSGhIw95WNsAhzndg790+/IAgPOTYb0QGDg3PSBLGNFKPnar9mOboL2G0/yEAwYZ5Gz4CwyI5P2kanpo8335I2wg+DDKQ13LMnIGHFUAgNtM67G5H3vW3FE514ciDGn4/SGjvEz5qaRRX8BYFOOowFtML7OR3+NmYyITrObAD3VRr8JHoxrtM+x/naslZ9+Dz/nnPwmMougz03Ong7CniQNcSsLB4+QLDQTNMfUSNP++SBjbq2C85KF7JJNCQbYJfmxWRks/61/2seP9+nK0DenaztifaE+LznEQg8EhNgtiEKSZMIWPLpLFU0bjGenGLMMLQa4ZFp1FKi8se1221b71INAIBPrxg4mCBC1GEjCsy/jM3AcmzYSqE4PdZ7FDYNKMTkQoLDNR8g0B47TYgQ2yk4ZKRUFb913UYOcGQoC0RcEbWw4ZAYShstZImLkg7D32H2P8iQYjtqY0i0KzMiMoTFmQAiO8fTXTwZHJiJDGx1guA8++EBx+s7lUxu6UR/IhH35FNnKLPVXJmDMtZtswmHRb7LYdZe+5c3k1GqTzsVZdJKhsUv6KOO3ylbU7NoH7H9AHR1vWetcX/Q/XqA/dEGgoJzPUSILjpr8mno5EIwLfSZHjpR/6jRDCxuXjdBD+ty66EpbZSSgjWzbdYx36K1PNoaknMd+FkVFIhB6oG10hP2xC9dml4Ig9oEcLArbvCbFyIaa8L/rOL9raafjyEzVSPvJgi06f5A0O+aLHKcNQ0F7ZKy33HpLNXvO7NJnQRv7N2Y219FH15Wh9afrA6E1Q1uqFnIJb77zne+UL93kKHJ0wZHAaTk8EcMZZ5xRspG99t6rPNySgGEgZVnQpPJpY7gG6zdnnVVKdl61cPzxxxdHbxC63QCjPwyP4gPFjQixKQf72sfmb7/ZL/o4kMwWBaIf6t0edXTe+edV03eaXhZtMDhKD/azGbeB+tDOPgG/Q8jOp+xQOfq0004rxKC8pHwnCFicMhoI+qDd0d/m+EPIJPaJ7waSCXAW5uO+//3vl+qF+SA3OYvsB4JrcH5Kjewy5iGPOuqo4sg5126U30DQH+T88MMPVf/v//2sBAd0kSxkwRzjUP0RdCtn/+AHPyiOXNYj4OTMQ/ZDQTuAjfvbNYOk4vqt4xtj29wH7BMbNPcDn3E9n6FT8Z3f+zumFXFMHA/2i3ZD6+/NPvV3zlYIFkwZKbPTO3O/bNXYRGXKedppb3+g9/yAwAzZtjdabUA2pgzkk6FJX9VGRT2idKzuCfyigoGEEcLTcdG9/wmQUopWOEzzNaJ/zBz7dDuivyI1g2jTp+YABvyvz/aV3vtsNYzFhWiDe8I+8pEPFwKJuQdRmOiTQYO+DdYHn0Ptw6Dp0rxaH6zIax5DH8IoRHmcmn27Fdquf/raOv7R3+Y+YzH2bKvP+T9cO4FLa2fwfE1iG5fSlei2k4xkcYHNs3+OMrISmZmnztMXWRFfI+oP2S0KxBg19bnVvv3dHN+BfIDv/NbffrFv/O37uGb4loGOaUXr8bZmu/v7Xfvj96EQ9osL+AbnkYCsUtvu8rWuddredjBiQkMoNkYiG1PGuPPOOxa+RZYRRSqJkDR8IFBW0ZLzWDKqnksgBOMaXsWg0wwvhJtY9FASUNo66MCDSlSv7GXMrFKivAKbvheMjgwclnLC7bUe0QfOC2G6HyfuyaH89ME2mG71Eoot1H0nCzbDxlq3sMvYX6Bp/tlCKy9yfOKJv5Ry1+6777GwNDce5Ee/BMlWzfq0mMDckblUpVnzPgIujpKvGAghH7IiR36mVYbhdxLDA7kKNi0mibUAypvexzZhjHz3qBCahouSLrroolLGOPvs3xajUU+mZGq5UesdDJRKLdsqNo/GUk6RARCI0giyo2QUFjlyYoMpbWJsIJBYbbXVS6Ci3Cjq4mjMw9IDjpMDHSmcA5HRhauuvrpkgcri9ODJJ58q1+G4zEmp6Q+lX70A+o/oRbwhC0uzBRG+U4IRCPo/Khics33Zk6qJSXjy2muvvUuWPRpz5osK5tDpw+mnn16e8i8z++MfHylLvPVFuTWmNAZCyISMBElkaPO/BTvkR45+44jtm+gcfRn0SzUP9M3t8dW2sQwSRrwohIFxPKJzUbpNPZPBuE9LPVok6HxDpZI6Xe4hqaOve++7t3r+heer1197vWQAojBL2ZGYCV+RmPmSRVlWSLwHMldCEFxYuYRMOBsZlUhMyUdZcCTgTDhfuqkCwMnEJDB9e+CB+2tdXacssIjFJNDL+sBJcLiWdiv1ko2si2z0m/MlN44jyjkCTo8cIzPyM9fgHqymzGA8yA0pqwLxB4InbbYA4sgjj1q4eMZ3Q/WFHAXJAiY3/PNblsq/Nfet6u06+397/tsLs4qoCCU6g+zMbQHXX39DCRjMz6roCIDJdDQqbK2LQkZMaNgWqYlmODgNNulnuajVLIjN9+0omd911JzbeuuvV95dpsHq/hTV5LV7O7bbdtviMJ03M7TFgxhL8reAyEpHq7A4SVGyVVMjdQKugRQtww49ogsCKOe30CjusRHctBM0jXfoO+O1KEaGKghcbfXVqmlTp5WqhfGQabAXshNokJusRZnY/BLHb/7RuNmfzLpdbuFnZKE+6ZuA2SIYCziswNPXdgJcxyMrBMbhChDIiI7xPWQVgQE9UybjlxKdga4iNXIUONE5pMZ3W0sxGv67ldBGvMqRchh8mRXFEA0yLJvGa3S7cC7HI1YEafO381My56RgK9bCUIPtdec1nmDsqJLxo6S2kUZgzslhKwMpX4c+IC76QBcYB11dUjJ1mYX7MJV4kbuyYivIh2Neu3b6FlGRTezXHJfxJK8gNNUafooeIBpOsszL1NkotNMn5+FsTW/IbAUAvmuCnJxTdck1loRy9mgDkbFZ00aIzRgiMsQjAI2AaiQwfs1VjmO2bD+RSCQSibFEK6FlvS6RSCQSPYEktEQikUj0BJLQEolEItETSEJLJBKJRE8gCS2RSCQSPYEktEQikUj0BJLQEolEItETSEJLJBKJRE8gCS2RSCQSPYEktEQikUj0BJLQEolEItETSEJLJBKJRE8gCS2RSCQSPYEktEQikUj0BJLQEolEItETSEJLJBKJRE8gCS2RSCQSPYEktEQikUj0BJLQEolEItETSEJLJBKJRE8gCS2RSCQSPYEktEQikUj0BJLQEolEItETSEJLJBKJRE8gCS2RSCQSPYEktEQikUj0BJLQEolEItETSEJLJBKJRE8gCS2RSCQSPYEktEQikUj0BJb6Ww1/fPe7361uvPHGau21167WWWedatKkSWWHRCKRSCS6EW+88UY1Y8aMavLkydVhhx32HqFdfPHF1U033VTNmjWrWnbZZaulllqqHJBIJBKJRDfinXfeqWbPnl1tsskm1d577/0eob3++uvVCy+8ULZEIpFIJMYLVBWnTJlS/f8+kBwjiPr5VQAAAABJRU5ErkJggg==;" parent="1" vertex="1">
          <mxGeometry x="245.00000000000006" y="365.84000000000003" width="100.83" height="48.33" as="geometry" />
        </mxCell>
        <mxCell id="Sw4VsKgp_dIkettjenq2-47" style="edgeStyle=orthogonalEdgeStyle;shape=connector;rounded=0;orthogonalLoop=1;jettySize=auto;html=1;exitX=1;exitY=0.5;exitDx=0;exitDy=0;entryX=0;entryY=0.5;entryDx=0;entryDy=0;labelBackgroundColor=default;strokeColor=#000000;fontFamily=Helvetica;fontSize=11;fontColor=#000000;endArrow=classic;" parent="1" source="Sw4VsKgp_dIkettjenq2-19" target="Sw4VsKgp_dIkettjenq2-14" edge="1">
          <mxGeometry relative="1" as="geometry" />
        </mxCell>
        <mxCell id="Sw4VsKgp_dIkettjenq2-19" value="" style="shape=image;verticalLabelPosition=bottom;labelBackgroundColor=default;verticalAlign=top;aspect=fixed;imageAspect=0;image=data:image/png,iVBORw0KGgoAAAANSUhEUgAAAbMAAADRCAYAAABGplxiAAAAAXNSR0IArs4c6QAAAARnQU1BAACxjwv8YQUAAAAJcEhZcwAADsMAAA7DAcdvqGQAAHeKSURBVHhe7d1nkGXVlSf6UwZP4QvvJRBWCC+EkUACgTzyriX1fO7pmPelu6Mj3kRH9PQM80ExHTF6Ez3qVksI0RKFQAhTeIR3AmGEUwFCWAFVhbeCot7+7ZurOFxl5jWZVOXNWn/icLPucXuvvdb6r7X2PufOWVnw0ksvNS+++GLz8ssvN4lEIpFIjAoWLFhQt0pmd999d3Pbbbc1999/f905Z86c+plIJBKJxExEoa667b///s2BBx7YzPXltdde21x66aXN0qVLmxUrVtQDE4lEIpGYqXjttdeaBx98sLn66qtrIlYzs1NOOaW59957myOPPLLZY489mnXXXXfs8EQikUgkZh6effbZ5qabbmqefvrp5oQTTnibzJ588snmq1/9avOBD3ygWX/99ccOTyQSiURi5kEl8cILL2xuv/32mojVMmMikUgkEqOMJLNEIpFIjDySzBKJRCIx8kgySyQSicTII8kskUgkEiOPJLNEIpFIjDySzBKJRCIx8kgySyQSicTII8kskUgkEiOPJLNEIpFIjDySzBKJRCIx8kgySyQSicTII8kskUgkEiOPJLNEIpFIjDySzBKJRCIx8kgySyQSicTII8kskUgkEiOPJLNEIpFIjDySzBKJRCIx8kgySyQSicTII8kskUgkEiOPJLNEIpFIjDySzBKJRCIx8kgySyQSicTII8ks0axcubJub731VrNixYq6+dt3iUQiMQpIMktUIK5XX321eeGFF+r2+muvVUJLJBKJUUCS2VqMV155pfn973/fXHHFFc2PfvSj5rTTTmt+8pOfNKeeemrzL//yL83ixYub+++/v5JcIpFIzGQkma3FePbZZ5t77rmnuemmm+oncpszZ07z8ssvN3fdfXfzq1/9qrn11lubp556auyMRCKRmJlIMluLoZyIqJ577rlmm222aT70oQ81xx9/fHPEEUc0W2yxRfO73/2uueOOO5rHHnts1bxaIpFIzEQkma3F2GyzzZp99923+ehHP1q3vfbaq9l9993r9p73vKdZZ511mpdeeql5/vnnk8gSicSMRpJZFzhtCx9ee+216sSXLVtWs5fly5dXx/7mm2/MGse+6aabVtLab7/9ml133bXZcMMNm7lz59b+vf766/VzvfXWq98rP44C3njjjVomfeaZZ+q4Pf300zXzNO+XKzQTwyB8wh//+Mdaev/e977X/M3f/E39vOaaa6quJdY85v1DwbXXXlsdNae27bbbNvPnzx/bvfbgT3/6U3V6jz76aHPfffc1S5YsqYsj/vCHP9RFEEuW/K555JFH6zFz5sxt1l133WbevHkj4+THg/avv/76lax8+jc90OdbbrmlymTvvfdu3v/+9zdbb731jOzrWytWNC+/8kolLWOmNPrAAw80Dz30UO2Hf99//5Lmsccer4RGt2Wc+ppIDIJYMHXjjTc2l156aSW57bbbrtl5552bjTfeeOyoxOqC8WDrTz75ZB2DJLMxICnO8IYbbmiuu+666giXLl1aoy4Ed/fddzf33ntPJTRKvGDBgkoCHOOoAjnJxDh2n8jr4Ycfbu68887S13trtnbIIYc073vf+yrZTQUR3b744otV1vQt7msbFtr8xBNPNLfffntz+eWX13Eyx2fcjJ9ARH8scJGpbbTRRqvGbpQDkcSfg47RBxUV4y9Lp1tT9Wf0xOY6dPfBBx9sfvOb31T74DPf+973Ttk+EoOjm8yyzDgGju7mm28qEdcllbwo6Iknnth88YtfbL7xjW80H/nIsUVhN6gZyxln/Kz59a9/XZ3lbAJSYKS//e1vm80337z58Ic/XLMyzn+q4Ggo380331zkd0bzH//xHzV7muqyf1mZIOSKX13RXHb5Zc2cuXOaQw89tPn85z/ffOUrX2lOPvnkZp999q1lYve96KKLqjPi9BKzCx72f/zxx5uLL764+b//9/82l112WQ1spguCLxtSExRttdVWzZZbbln/Tqx5JJmNQeS10UYbNzvttFPNRg468MBmzz33rIy/2267NQcccEAtuVHce+65t5avkBkDGnWYH3zkkUcaGTpiUDL5yEc+0uyxxx51Xm0qmVMbMjMRs3vJAGVnU5VfRMybb7Z5Jd4jP3Rk84EPfKBGzcZS5Oz7HXfcsd5Pmcj9Re+J2YbOg/8i9YjYp/MZSfPIVgCbk914wcbNNttuUxdRZcl6ZiDJbAyUcp999qkZ2JFHHlkJbPPynXIU5642bvM3hyzSl2lw0GsSMh5b+zVUbdT95bv2/jgHGKisVMYpY7HgAwEgb5GnucHpKMfFPd2PM7ApA0U7hoX2IqrDDjusOenEkyqRbb/99nWcjN2WW25RS+cePVASjhKUsZtJMC7G580332xWlK09TrGtaUQ7JtI16N6/utvuvghMOVuQ5t/TBTrj2Uy6u9mmmzXbbrPtqqpFd58Tqx9JZmNQLth///1raY1D3HyLLZp5rVp7lBd8cu6ylWF8PGXnxEV4DEO2YBHDMAbgOpyzTMOckGgUMTFm13Mvf/vud/fd1zxY9lsogVCA8SFlWaayKUeqvKr/5BErOrVxOpxSXGM6rhVAZrIwz8gde+yxNZPeYIMN6hjZ5s2bX4/xHWJ232EcTpzHkRk3clGqnEo/XM9YGAOl7c5CoyXN/WWclGCVyIyt8i99GdQxa5tzjF+0edgAInRWm+4tunZ/aafVfRx8yIauqVbowwOlL9OdGQ0CbZrK2IwHBBmrmj2HaSNfY8f+7rn77uYPZdzImi1N9/0TkyMXgIwBOXF24fQ6ZPU2WyGE3955Z3P3XXc1rxYn/8EPfrCSH3kNkrlQck7BvFSdMyrOgFEgzkGuAwzLHNc555xTX0PlAWfOxfVkmu5lIYvXVf37v/+gLoR4/fU/1YxL+dCxd5X+eAOI4w488MD63Bki42QtAuFMOSSrGbtlMggYtmsiTsbP+bmf605l8lx7ZFyuESsyfdduJwes77JPZHfQQQfVkvGgK9A4dCtdOS5OW8mZvgxbhkWG9MqiI/M8F154YV3qbV6RfriPv5Vk9Ssy5X4RMtdmG32RSZDToG228IEMzz///ObHp51Wgx96TM+0y3g++ugjzVVXXd386Ic/bG4u+8Pp06dh9WYQaMPSpcsqmdKxXXbZpQZnbHQ6wEa8EUepWjWArdAD87BeAWeFo7EiW1UcejmsbiR6g//KBSDjIBxgewORl4isOoTiiF97/bX6hgwOsR8i41AiahXVy3Y4MUrPsT9eou63yjH2M377e0GbRNnOR4icLKfBaTM2K/rci1FbmclB/v73D5VzXqjny1TAZDkCvP766+tqQI7q+9//fnPKKac0//RP/9T84Ac/qOdyuDMV3WMWG5A9hyuDoPCcC6XfYYcd+lrUYtyMB1kiBXJ3LbpA7sbLWBo7x705QNYT5LBo0aIqY9cWIH3hC19ojjnmmEqUAg0k517uP68Px+j+0WafrmuctZnO+c7GEfjUx8na7Hz9rBljybZcFznFYiFt9F1nyfpNtS8cDJsxDoOQ70xF2DBd0lcy8Z1+Ik16hdgQl9fACR6NLRknVh+SzLpASaN8R1E5+UsuuaQ+W/J6IbL3H3BAc9JJJ9XIXnYTjnMihDNg9BF1IwfXZxyiZdnPVVddVfcjKM6R8UwEbbSJsEWAMceFpJ586slOmacYmuie80V0XlN19NFH10Udsfoqon1v/rDohaPfZJNN6nVce+HChZWwrWzs1c+ZBvJZseLNKlsyJWd9V0K1MCQIfSI4H1Fx0she9YJMjRsnxVkjSFnVlVdeWfVEeWmycQtwiAhKRixbBG1DZub+tJHc/1T08MmiK9qCFHpVTNwb6SEdQYx263+Us+lbZIL0jX74rp82u795R3ovo6Yn5h7di1w4b/Yi2z3uox+thLx30Ss2Muogf1UOAQhZktkLLzxfx1FmarxMT1gwRmfYn/lnetKPbBPTgywzdqGST3FUjxTDVObhbDz1TzkZ5qGHHFozsyiP9XLyjIBsOQ6EJntyD4bPMcr0Xn3l1UpyjAXRyByi1DkR3Nf9kZEFD8pd1XE992zJEDr1evdyjCzyhBNOqGVR5RELI1zbxikhMfs4KgbJsfqMfztHJjNZX93PQhNL5REHp+mTw4sFM77j9JRrEDZScU1OIY6zIQpOoT0/OQi0RUBCnhy3DIJjMW6cjv6Sy2RwDW0w93NbISqkZhz1g0OzT2ajP7IUbdy2BBbkpN3jwTVBgKFMh3DoABI7/PDDV60edT5ZuedTTz/dfLDsMz7blXGebAzoFTJTHpZxk7M2up82k4mNPBDx/HIf16QPE7UZ3JM+ysjomjbqs2saR/sjQ9HOj3/84/WTnDcu8iCbydo9CMg9SNnbed6pY8tKkPCHWplgC4jG5v5t/QpyRzT29QwSilz1U9XjtttuK/J8ospiv/32rytl2Ymg0rXJ3Ccb9nzmZPqQmBrYtEAqyoxzioGtVFbyxVe/+tUaZfQy9NkMSqscwwkiHxH0I48+0rz+2ut1heNRRx1VjdX7C0WhvYyUg+FAXJPjkyVwBIiGI5u/zvxmu222rYRx6FhUzskzsImceDhF1wbXd71FixY1199wffPiCy/Wthpgz1xxloyv+3qM2TUmix71jzH2Mnht8htod5cAgNFzpog8YD9HxNjpmn/LCGV93VlSZItkLbhC1IPAtRGZNixadEadR0EUnhk0h2LcJpJtwDXIhtPkHAU22q5kx5naL/DQPjIWMLi2tvYiMyRmnlNmxul/85vfrJ8xh2eRjmekLli8uC4o+Pa3v13fnenVY5PpW4wn/eo85H9vJRlzWUrMziVvbT744IObg0ubXXPdIv9ebXbdkIl5ojPPPLNmd9pqAY5NVknXYn61jekiM/dDKKoYSEN7AvqPqIyTcdNPNkCf2kC6yMe4CeAR9GSgt/rs2cjzzjuvtuGTn/xkfY4RkQkG6Pq5555b5cIWPaP69a9/vc7buV9i+mFMzDOriliBnplZFxgd5RPRxRP+HzjgA7VUJ2OQoUXGw/mEA5oIrsewOWyOjkNgaEoRHK7M6IBCYEcWx73vPvs02xT5O9Z5EzmA2BfXDiBMZR8OF9la4af8yLlwVo5tnxvn2zfZFudNBv1i9EvK/WWzggGOVFvamyxBv0VVMjIK6bv2MfaJaPVBFjDovAsnx5mbmBe9yy5lZPvtu2+zYSEgferVn9jv3saNTQg+7n/g/tpeMkGQymkCkJ1LABIkOdG1OV46JAtngP6O+Vcl3WgX/RD4PHD/kqIL61dDJYt+5vmcr82RbZE1neCA9YEsBAn0op2lT9Rm37e3ABsQFft0Hf2I8mgEYuOdN1UYW1UOpV2BYVvHHiskjsifLvIjW1mpMdP3tn75N/LRVqTGtieDAFc/lW2NjXOQlXkywYG+yt7uva+zOMi9yVmAEpl2YvrRnZklmY0DZMYxyWYoLmOllJRa1MdRIiFzCOGEJgInL3NiBASPDBkkeZMzY3ANBh+E18vBBNqOwn20zbLupcWBG8t4Xs4128cG4t8MG7EgI9/pfxwfWy+4fxCatpOXTMXG6fsUpeqz65GfyJjBi24dE5usbO+9O2/wX7Bg43JO/5Et58WhyHosetB/GYNy0JbFac0tY6V9vaAvyEekr9yHEDhKcpo/b37tHydIVshj/bFxi/6NB3rAkd5QsucHH/x9HW9kqM9tolINuP3228p4PlztUVBCB/upmGiz0hs9C0PnXOmoNstS/B26Jrv0715j3K0HyngCMnN6e5b2I0hjTAbdxwb0X1sQSmS3Ebj1C7rqOuRMJqFfNlmm/rmeLI3+IFhbHBMbHbOx714BKadJngI0fysfypSda0zcS1XizkKysmGlXvZHt+l5P/qWGBxJZj3AEBh3dVBFURk8R8MRUFKRoMUgHBnnrCQ4WebAuRA6BysaZ8gUnBH7RJgIzfdvFEPlXJDbZE6xG+7xchk/qy1Fq6JxD4Bb1LFtIVwOfLxrIR7HijoZIUejXf1kAOOB3JxLJgy5lrLGtlgOz/A5JP22co9T4Kzbx8oaOKYgCy927gXXrZlhcbDG577SH07qmLHnBgUe88dIuh8EMSOWWI7tXP2TtWs/nUBOMgA64Ds6M5HzCv25/vobynlP1TZZlGN+hZ7pA0etvG1eSwDE4SLj2v4edrlyZTm/tPmB4niV4rSd/BBM6BqZMn5t0VbfaXu/DlcbX33VK8Tub+4pMhY4va9kIdqoXNettxHkvPzySzUYEGDE/LB2ac8gzl5/tFnmY1zbenOgzLDIybgJPLXJYi1ZVPs4usjX0VPjSW8ngrbzjQJY7XYs/TzqqCOLfi2o/TVmzxdyjhcPaKNAzdi5fr86lxgM3WSWIcMYwujaG1BExoZwOB1k798cPyWnyJPBdThvxyIqRmQxBmftekoVH/vYx2oUCY6Le/cDxzLePzz8cHXkfywO47ViyK7DySK6NqJvNhkiR/2zn/2s+e53v1vrzyLuYRBy0kdlzZhHiQ3xUzhEzbEycrL0XfexIu4tt/RM1Xrlmr1LNCEDJUVEhgxKg5qPHX98dV4RoLX7busFx0RWIwOIhQ36p92yEQ6VU+Y8EcRkMBbGRfb45psrqgwQYrTNfk4eCdXgpuhWyGuygKmNtwqhRZtlIJy5wAYZkm0ttxYdFLRoC7n1C210/KOPdkqMTxUn8qeiY7JVjqX7Wo7vEHQh2HL84sWL6zsTbeYNkbX9gwBRkBkd6dabXXfdpdoUWxUc+ESw3cfRxVjI0kuu2seOlMPJy3XJsj1uxoktcaqON2aRSSeRrT4kmY2BwnIkSjQcUzcJUMpQTArMcXMYvZTVMTIETk8WovSnFNIx8jeqcVJ8+2wcD0fTLxhYZA+cidIHg9YPWcNLxdG0gVg5fSWTeEhXNic7U1IbxLnNFBgr/TWngcg4HHM4iIxDMwbhiCMI6dVP48rRyQC8p/K4444tf+9RrxXnu7b7GDfL1bco/+6VZWirTXvcI46nD64rA5CV6Y8MEBH3qw8yWHNsMmBt0u4o7Wqve8hq6OBxxx1XdRJR9mpzAGEJdmQoyoQLF25VspsdS1uXdXSttL8N+u37a6+9rlYl7NcnMrSPLs50kJu+IjPyY8v6oPRt/Iwjf8EGySZ0RrA6iB0npo4kszGY1DfPclFx8FbBUWDKGxB1M0YGTUk5hX4i5nCKojmOBXFxeqJmWZk5nU3LdZQ8bDGnMRFJcoSMB/Fos7KNkpIoF4khQ5mDSNF3sXxZect3ka3pm/ZrV9zTd4xz1CDTUd5pv5Ir3i4SDkX2wOFwxAiPk50M5I8EjLMszNhEadm4GT8ROJnbT47mzSYaN7AvgqAgV3pF7kg2HqQ3ThAlTftkasp042XbAdd3beMZbUa4dIxeaLN/R5tDPpPpmrkg7aFr2halckETOWy33fZFF5+rWQldcyxd87dzyVA/dthhx+rgyS9Kb6Oga8aHrdGXCD7JzDjqA1s0Lhbs8A8yPnIhW8cmVh+SzMZAWTk6S2/9LhbDRQIUFLFxNBym7I1Bir4Y9Hp9kBnFV3JQjrItKCRiQYKavuswjpifQ3zOmcjBMC5RIuOxNPrqq6+ubeUgGJGNA2aAFi04zuovpOc7Dsq9tF0bROecjPM5wlEDB8PR6qfsFLFx+MZThmNMlR7NC3v43SuHHMvZ9oIxMB7GzM//yHoQguXn5EbOMW4+JwtCgB6QM0JxnDKdsVMeNmfpE3G5Hp1AdtppnzlX2TOynowEos2uERsdo2uxus53nT5N3mayZQP0h67ZtMN59Gz//d9fCV2blREFCY51jHa/WXRtQclk6Bd5IVTOPhadjAKQFRnQpyin8gn6zJ4sutJvYyfYUcI1V0a+/Wa8ielBLgAZA6WU4XCIIksGThlFzTIcNX6ZGzLzgKt5Lo6N0g4C14xo1Vv5fQ6yMMH9ObezzjqrueCCC2q2YcyUlKyycn1Oj8N+5pnl5e/OUmRAwqL2DYsz26Tcd7PiVDlHkaXyFoJTonLcdIMDRsScN/mS63S8mxF56asH2xG7rOGuu+9qrr7m6pJlX1RLqZboIzJ6LnOQRRk7jnUQGCPjLVuyabfv+h07x3HishjjRhacfpSokDDZIzFjFqVffRKEII7ddt21J2kGom3arBqwWSGy9QZosyDO6thf/vKX9RkqDhsRW7SCzGQekZWQq3YKLOiUzK/qWrm3DYHp3xNPPF51bYstNq8kaw5ruoiNTk33uxkjmGD7xiTm7MjB+AiW7Hv++efqylTzqMjbcf3IODE8uheAJJmNgeKph3OuIiyGwTAZBmfDEJVnRLiUdqrZjPshHtsgSm8AkatM0f1F29oj6t18882qERk/5MHZbr31NtXxmD/SflF5vefYvZEjIhdRjyKZaT8i4EhdH8ks2HhB7acMJTaZDofKeZIZMuNsB0WMWXvc+h0/xxmfyMT97TpIitOVvZB/jJH9sr/IoLVZVu86g+iMY6PN5R+rvusFWQlnTr7aTI/omtV8bIRctdHY2q8fspJ4NRp7qvccg8DDA9wyGWQwCmQmA0Pq2sg/uibZsRk2KPBQzkVi+m0aAXkPMj6J4dBNZtPyBpDOHIxJ7Y6RGPi2Eo8ClBBEl0p4PhkyRWUg+sMRcpQM1sbh+H51K62g44niuD2crG0cMofgc5115pd2d0psSoycB8NiYAxOHzifdpuVTr0Y9fTTT6/k4peZOazphraSqflI9/RvCxEQqHYNC2TGqVg6T4cD3ePC4fqOE7Zy1DwSolid0Abbs+aVSlTP4XKWHLsskdM1j7m0jN/DhUAiE2Co9jkOaawuROCEHARzZEfXYj5I8IDs6BqbYRPGU3sFWsiuPQ5I8brrrm1++tOf1jH45Cc/VVdXOm46wA8JQEPHkD8C1p5hQb/oVYyFrJMe8xdAd8nF+PAP4RfWJpC7jWzAmJNB8EC3LU4X+Or2G0CGJjNGqfEGlcJTZs6fElNohjeViHt1g3Otg1L65AWv+tYh6bfqYMh2IsL397s1QL2gTX8qTsTP0GhDbVPZ4idkQrEYnE/KpM02+7vbvbrIjL5oD4LlJP2bE6AjU6kEvPnmG8Wpdt6TGMY0GdzLPWMc1wSqjhVbeb1s2tzWLePl7fuvlTE2ZwXaa//qbq/x0gayNV6ceVv/w2bomuPaujaeE3u3yUwbtTV0DNHwRwK6YWF8jIdnQDlnfdbX0DWy0F990Gfb2gLyBrI2ryiQkMWSt4AHD7yb5D5tZGZAXywN9woXcxUuiNBEvJ5t8dCgjCAxsyFNDzLzMOm7RWYBBhBGMB65JmYvZNDjkRkymC6kfq0+hJxxh/UG5qUtujKdYQ7/E5/4RM1YBUHvBrrJbOgwAnGZZ7FSTDQipZfOi/R9j6UTo4FQytWFdDJrJ2RxslHbihVjj4G8C7qX+rV6EY/4qLT41YyoGq3uucOhyUx6vcmmm9aFELKweKmttNIKLJtUfHU7ysTkMB6yaqUYC1ss2Y8X0VpE4W9zJP4dpcrpRDia2BKzF3SNDikvejjfYxHXX3d9zdDone8uLtG8FcSieyXCqSL1a/UhZCzzilK4f29Q/kZwyryrs+w69J001KICq+TMtVhxZWm4WikSU0c1L5CYWeBgjIsUHXHZ1LsFIUjOogRLp31abBJzA4nEMKA/Att4/IBf2HphZwUrvaN/sRAmdW00wacYO8HIOiXJsRAmFiutzoBiaDLTUGml+qjGe/bCv20m/DhGW2JmoZ2Zyb5kXsrDXn9k5ZfoyoIeZCeqNuGdSAyDiNo5NtMQlq97ufR//s//ufnL73ynvgBYECwotlBjdS9wWZNgh7GxMVv8u70/9vXaH/+O/ROhfVz3tXthonOtarXwQ9BiDI03TojMrRfa12zfo73FveLf42FKqxnbsKpRlLVo0aLqBE3IeaGudHN1snNichg3ZCbrsuxYNBWKYpyUBTigeAedoOXdWo2UmP0QLKkE8AlWBb7Fb4z5jqpv8+bWAMrbVejd2qJr7NBGNjb2x++GDPzbLyBY1UqGSCJWBrJR+5GIzd9k6Hz7J/O3Yf/OY/uOredakdljIY5ztSXO96m9AmOl4rPPPrtm217IbRGgSl0/cJ2Qg37qRwQ27ude9oF92quf07aasRtY2cOQVioRtlVKSWYzE5SfkigNUNBuGC/KEoaT45cYFvTLRufKH2PftlBUywuS6Vhssx1sD7l78Nrc4WOPPVq+e6s+MG8TSKqaeC2YEixn7o0pBxzwgboKlE3GdICFduRrAYY1C54D5HMd00YEsO5pbtwCPvYfhOSZS9mzF0d35rreGVRog3OsfvbWF2VhY+U+/rbwz0pGz+B+/vOfr5UeS/Mngja7v+cUzdG7LiL0vKyXGsjWXd/39/3uvmbp00srwVmjoYKkIqhkPe1kplGdZbfX1Z8T8QCoEsKJhaE3KgPTr4ISLMFoi7Q12HgQuBcnbHAIVtkzkUgkZgKQOh+HjDzcjZAefJAjf6Y+GsMp811elcXJq3Y99dST1acde+xxdY0C8vGSAPt9SiQQ4PHHH1+OObYSWvtxBxkY0kCcCFJFhp+02jAqNOBtKR7L2W23Xcv1FlTCAaSBNK1S92ov58iOkJ5re6vL/fd3fnXcQkA8oh9IdSIEOWqTJEi7zKnKPvXBG42Ql++X3L+keeThRyonWOov6zv8sMOaDUr7PQ4QZDal11lFZw2OBsX78TDyAWMLQuJh3n7gOl53FO+Cw7rxgtNBNu9L0x/zeBg8kUgkZgIE7LIuDpjz57z9nIxsB2lIDPhBjhspmUtUxrv33vtqNsevyWAc63VgCMm/ERvCi7cBRUKCPN3Pc2D8qnvyz0jHO2ZlQK7L79555x313K22WlinGEAWiXi9f/L888+v7XJf85+IFfEq98nMli1bXr/zWi/X1Z6JoE+IGEGC9uq7hUL4QpuQLI7x7HJkqwIAJCoTRZYPlUzTHL95/ymvm3QzHdFZJKKRtaTQJ4F1g/BkZDoz7GagKU1tRyKRSMwQcPAWSCilyUAQitIZUlP+Q2oyL6QQv8knY0JasiKZmmvE41BWknPkMjFEx//xoQH+WHYjYVGyE9y7pmTDSy38Rp/rb7b5ZvUVanw5cgzfKXvyImn+3d8yJu+nVepzvuv5IV3EYkOGiKdXQqS/ztcHD1jLShGU+yJcBCkZQZpebE1OexQS9SaWJwt52V4s/W1jSmVGqSJWlEHJyAibMP1EhrqpOTPpaL+ZmXOxryjBdZHSMKAMIpRODXinsW//HAY9UnBRAAJMJBKJ6QC/x8HLXmK6Q/DPz/B1HDcCQzRnnnlmJQvlMn7z0EMPKaS3RS3D8a8WV8jYEKAFFpw7UpThqWJdedWVzV7v26v5xje+UTOjKPHxyX41QtXM/NaXvvSleo+di1+cW0hRGyQhrn/W2Wc1n/n0Z+qKU0Sq/TI6P4vl07TNV77ylTo3h7QA8dh/2WWXVRL89re/XefL+N/J/L4sDH+QBT+McPXDZl5QP/2ALB+Oj5A4OfzwRz9q9tl77/p2EQQoU7Pp09BkpjEaf8stt9T0Uyoak446Ys7Mz6Qgln7JjGCt4PEE+VQzK5EK9m/XjruByEQAVuIY9KgdJxKJxFTB93HG8RxuAKHZgBPnpH/+859Xf8VJIysZkAwsyMqGoLxujl9V6uNv/bq68uENN97QHH7Y4ZVs3l+yPj/1gySQ2C9+8Yvq45DcN7/5zdoW2RMEmbm/9Q6f/exnmy9/+cs1IeHjFy9eXO9tzgzB2BeZoP1Khe5vvQQ//5d/+Zc1czNdNRnaMkDS2oDQ/ZYkYtIOGZtyJzlIcMjpBz/4Qe27eTNkpkw5JTLTCLVTddpzzjmnClyUIF01GSklDmbVkH7JbHWDEA2GwTLoUvxEIpGYDiAnTvZTn/pUDe7bCEfOifOhfpsQ6X3xi1+spTf+1DE33HBDzZo4eSTxta99rZYYzRshE29VQSbWLHz6059uTv7c5yqBurrHpZzr+jIoWZnrm4Pil0HSgIjOOOOMSmjI0IYo+PL/+I//qOsQlA3xAyKNrMz9EYl7KEUiMGSmBBlzbv0A96jsuY45M0SG1JFucAfSlzT98Ic/rCVaMsVVuGdKZKYT6q8IYNGiRbVzWN9v/RB+kJnVNTBTyUxmJrWXlSE15JZIJBLTAQTAJ1puL5toA1EhkiuvvLKSjVLjJz/5yebzJfN6/wEH1KzO2gEkJtiWWXHyMjPXc76Ewj7HmCpBQhIIUyvOlU0hKX7av//iL/6iljCtNg+f7Bra4Md+Ly/HffPrX69lRu01f/bjH59asqIldX7L+fjBohRwTeciQavZzcV961vfqpU5RN4vlBAvvvjiSui452uFh446+uhVS/tlmEhLhvmzwjfHlH2f/cxnKmnKTKdEZlHnFRUgNekgMpN6Ei4yUzcluEFgjkx2hOVFEi+9/M4Jvn4wp/ynHaITqbrJ1YlASOq2yosvvfRiUa58nU4ikZgeIIyNSwa1aclSLGZog+9BJJy4Uh6Hzv/K4GpmNUZWHLxjLFv/eiEaPhVZIBI+Egn9+te/LuQ3v5DNt6ofNrfFl/LNMqvbbvtNXWovazLXZn/Adc2pLb7wwvoM2ne+/e1a5pRlIYl///d/r+sYEAeiUn2TFbq/REBWqP3uJ5tShrSQo98V8eD5NPNufr3DCvivl+zz4NKPIE1ykCQhfe/zlJXJQskBkSO6gcnMAJi4tLIFkWkElv9cSW0xuTk0ddc2mRnQfjMzpCKdNIDS5mXLl43t6R8dBdq4roKREqv9TgY1Yz8s6nMs808kEolpwdzijyy0iLJeQHVLUsCJy25eLoH7t7717bpyTxYkaxPYK7352Rz//s53/rIuzEA0yIOP5G+RlgzwP/2n/1SDd3NrSowqTj/5yU+a++67t2Q529f9SnRKgMjSxodLQJQakZQFHO4hIUCS5qiQibKjfe5jn1WS5rFkfrJG11TGlF0qkfbj82sbit+9uhCUrAuveNmGDNNjYhYPgqwP0Zkzs8YBYeIX90TEQWZ9L813Y2xsoYdOEhSo38qAsL0OOA7pGSybv239LOYwoUlQGql0uc3W2wy1bb31whIJbVKv1Qvu6TmPddft/Khgbrnlltt0beuMvXqpG/wkQuCcX331lUoAfGgkEvylzMeqbtUj/tBL3F0zfKzkQdbEzzrXqkk+2PQJ8vM3/zZv3vyaubUX4zm/88DzozXD49v32muvmu0gw0o0sQn0a7Dfifb9OLCyJg7wdg4JTryb1zHaa+skCBNnCPa5r7m5WE0uGyMDMrNf35RLZY3kJTOUuZJHN2H2TWZuRHiITMrnwtgzIoVIK6OBOui5Bw21EVwvqLOKLGR6f/VXf9X83d/93cDb3/7t3zb/5b/8PyUV/XRd4plIJBIzDfwkskJGfil94cKt/4zM+E0+lz+Nl7hHtsLJm+O3+dt5rilLk6nIZqxYjHNefPGl6rP5cXBNx5jScR8rFGU3nhvjh5Gga6qyeZ+mZ7pkaM57vGSMKmgIBkG6j+Pcx3fuL2uTPU6WxNjnuvqobfrhvkFS2orMtVE5FNHhG349VmO20dcbQNyU0KWkSoCPP/F4s9POOzUf+XDnYTcXDuHrhBuLOJyD+TVOCmubDI4L4YhUsK8BHnRznkjBYBBOIpFIzBTwlYJ7r7LiU/leizrqs2ObbVZ9lv3KiPbLcvbZZ9/mkIMPrr8hKWvxHeJwTIcQX6/E5m/+27zVVlttWQiok/3ZQGaHlMzR8fsWecjoTMdYRelvPhgxaif/bTMNpZ2yOPd1Lz4WYXWe0322tOG1Sj5ISXXNAg5t6c6gAo5zvAQJYfnb/Z2LyPCI8qfl966Da0wfmdri2yVMyFvb+n4DiAtLA3Vk+TPL68UsI1V/1SE3IgCNwJoYlMA0RmehH1JxjGuJDBCa6wyzOVdnXSsx+8DIGC8dE9VFZBeljURiJmPlSi/6frPqKn/Fn3LG/JbX/wWRtPebR5MMRMmSv5V4WKtgv4yJU0cc/LCMbMGCTSpJWmWo4sVGPIRtYYfHqvh0Kx8RmYxn+0I+yM41ZFnx8mLXkHkhMeRhPk7CIPmx31L/9dffoGaauEI/tGEyIgOlTgkQMkRsEhj9Q57IDVGbN9x8880q3yAy99KW8fikr8yMoDSU03CRDxzwgeawQw+rgkQaGmwj4KgVq+8SoEaYNFSHTXJJDAPGHTV+EWGUX9TSKbuIzr/jrQp0NLZEYqbB/FMkCPwmQvFMFcJCInSYzxWs2Y/o+Gb7+djwt4J+jh1xqEhZcYhcJBS+c6xVjAsXdubbEIXkgh3x2/yzNQ+SEtcOIgO2oy3I1LVsSMq1He9e2mU/kkVuO++8S82ekB8eaV+vG2xaO5CqzMzf1l5Yjekcds7mtQsZ4xHzefobhK4v7cysr9WMLoqNMbtPjUdOOhKCDYdjv0Hwt844xmcvlk4kJoKMC4GZcLZySoWAwTNgih1zDwIyii/KZNRKFonETENkXfwpneUXNy3+dOPiK+mzffyn/Zy671TAkAmScXwcY79rREZk42/D4fPLiNEiE/NmbMn5iA4Z8uVIq9s/Oy/O5dPdw7lRNUMqzkFC/L3P+fPn1WzQMa4/WTD5Vmk7m77woovqik198Yyc1ZDa7t/a4z42nNQmclA6tcIxVjP2lZk52XcuGiTm4m4aF46bxHE6HIJqH5dIDArGpGTt4U/zDHRM9CfwEpEpTyhTePDdpDYDFEkqv0DqXmKmgaPnnMNXev1Utz/lO/nQNkG1dTmyJ9eIDMm/g/Bi6z6ODw9Cmsg/x7/tc+9IYJzH97NB17Xfv33fvW8yIN9nS2YqOJVdLdhkQc0SZahsVzujT8E10a9Ad2bWVx3GBTRQpwigzfxttI/TgIkElUgMAhEi5Rf9iVAtIVbnV3pAaF7zozyBvNTbzQlQcseLYBOJmQT+0IbM+En+kt8MP+mT455oP8Q12v42sqH2ceC7OE7WZJvs+IDvu8+NtsR5/Ds/326nfb3g7fcyOtmVQBRpCUqjL9HO4JB+rtkXmSUSaxIMRLSmpu6hSiUFhGaSmwFYTuzfnkFRnlByFK3FHNqaAAJ2b4aKiLUrSjcBf/teJqmE49Px7WMSidkIuq7MyFYFnYWa6/f0f1ibTTJLzHiI1BCW16YhM6+8EbUFkJ1/IzzHQhDImgKDZLAm+WO1pTa1oX2+t5BFGdViFgbefVwiMdsg0ERkdN/mBcOeXfM3chsGSWaJGQ8lBmRlQYdMzN9R5oDIbtTQ/a1Uod7uc6ISyniQEYkMEYu3mXtbuMUmgxqXdpi/86qd7/1/32v+1z//r+a0005rbrzxxjo3HSTrXsjMSwhOP/305vvf/359bY+sMgktMZuhrKiS4ncvvWbLp8qLebfxprD6QZJZYsYDcUVtXp2/W9mRh+X55svWXW/dZrvtt3vHmwx6QYkPyVgZhmBEjBaaWCUlU4rVXPYjmYnKIFE21BYPpXqBwBOPP1Gv4wWpN910Y93nfm2IRj0c6w3g+tC9P5GYbWCbFm2otHhpsJWMpgosMkkyS6yVQB7KeMjjgQfuX/W8jWdoZGaTkRnyQUxKgR4IRT4e4LTU32cs91f+c31vS/DrCpFZjQdLjp8ZKyuKMj0qsHCrheWay+ubDKy2VGIBbVMWlT3GXEG8uWZYg04kRgGCUrqO0GRoHob2kDaSSzJLrJWIkp4VjE899XSz9157N4cecmjf7+VUnkRkfvbdG8IvueSSmh0Bo0I+XuH24x//uD7T8uijk5cdvSF9hx13rKsr/aaft6B75MUq4MdLlubaQWZR1tQGZVFG7ZEDJDhIeTSRGEXQcfPd7W0qep9klhhJyI6U47zyxk9HIAlvH7BIJGrvDKOXcTAgJUnPt3izgYxMWdCc2W233VZ/AVepUQSJoPwig3LnRJBtiTi9l87bC7bffrv6yMCGG25Uy5WyPmSo/UqWsj+ZofKKdntbjug0ySwxmxG2OdE2DJLMEiMH5TjZjYwM6cieLAxRd/fmj0F+HFD2ZWGJn5VQngRzWK5tIQiysUrSPttmm21eSyTjIQxReVMmhlC9TsirfmResjBkJpv09+uF1JAwknOMOYN40WsikRgMSWaJkYLSnIzMij+rA2VmiMvbA7yIVEYUy/P7gevFFgs7gpQQHUKSaVl95YcW+4HsLDZtcz5CdD1khryQ8XPPP1+J2L1lccqM7fky3yM9C09kbx4y9W/fJxKJdyLJLDFS4MitCPRyUvNbCAORycq8im2yEuB4QA6ecXEtv8orG3MdJUVlS39b2ejn6S8ux/h14EFXGwYhKh/Gu/SUMxGZzEw2hsgQWhtBZOYDlTu9+icILZFIvBNJZomRgpWFnDoyU44L0lFalNEMW29HOH4Fwpyb+TPXQ0BWIyJLZON+w1xfidFby5VC/Tw+IkOgVkeaN1PitJor5sosCEGafsvphz/8YV2Ysnjx4vqGcfNtEz0akEiszUgyS4wELJiQpXhzvkzJ0nerBONlw7HEHTko4zlWBtXL8SNAJIPIvG3/wHK97cYyPNdDasgNaSIdxBRlwH6hRNn5fakFtV3m4zwGIMOMn0pyH1mm9voe0dnip25sSpSTPRaQSKzNSDJLzHgoLSImb+Ow0tCnOSgvGN5xhx2a9QrxIDFZCyJAFpbb9yrJISvEZPEFMpPhbbf99qve+RgEhCwRp9WG7tvv4pKAjEuWJ/t74YUXKxl7bk0GZtGH8uLGhfD0029dPf/cc5X0EKpXd8U8YJYXE4mJkWSWmPGQjcjEvCXDgg/E5of6PCD9Wvl76bJlNXMx/+RNG0pyV155ZX0jN5LrBeVD2ZPNSsT3FYI54YQT6it2div38VtTCMkKRUSGBAcBUkJmNlmjPiBkZOnN/z49n1bJtVx/5112qZmgBS1IVPamXYlEYmIkmSVmPCyYsFjCXBkiuOWWW5rzzjuv+e53v9v89//+35v/9t/+W/OP//iPzT/90z/V+SW/z2deql8gkdiU+mRjng3zC8AblWwKwbSPsQ0CBIgIXReQJjJWvkTIUdKMzbEyQxsSG4ZAE4m1DUlmiRkP5TUlRA5dSdDqP3/HK6eUFn36tzknpOEYpICc+kWQiUytnYkNco3xgIZc17U8HK2k6Xk4c3Du0319xyE4mzKo/c5PJBITY24/ZZhEYk2CQzdX5Q0dxx9/fHPiiSfWF5T6gc7YLN7wO2cf+9jH6j7HIg7EMCiC1GKbKl559dVaJkXIO+60Y10dicws+9e3JKpEYuqYs3z58pV+esJDqF/96lfr6rBBHjpNJN5tCLgsljDfZP6s1wrFdmaFKKaaWU0VVi6ay1MmRWDIOF65BRORmTeFeO7Nz8OYD7Tq8Tvf+U7OoSUSBebEvS/VojCB7NxTTz21/sR8IjFTIXsRYMnOLJZQapxsc1yUGFdn1oNoze8xsih7WrVoDs+n0qdFHe33L2ZWlkhMD+YuWrSoufPOO2sUmEjMRCAlhGYOSUbSa4u5ptVNFub2VDi8L/Liiy9uzj///LKdV5+NQ15WLlqKj2y1rxdkoDJSqzd9ur4sNV9nlUj8Oeb98Y9//AfP44h443dlOINEItE/4lk4JcVf/epX9dejkRhy23TTzeocmbkyZUZl0MlKn97b6E39Sov33XdffduJLM/838KFW60iaNcYZk4wkZgN8CymX7bwXCmbmlci2X8wFxHzEV7nY+lwIpEYDBZ4IDDzYz5lUxaisCnPjVnu34vIAIl5lZXHD8wJ+FFPr7d66qknq+EiSLZq1aYsL5FYG6GUz0YEjp5BnVMMa6VyhpVfDO60006rRpdIJPqHzEwJ0MPQ5se85V6Fw7Nq7AnpxCu3epU+ZWXeQYnA4i37bFQWhsBUUVxTlpdkllhboQryX//r/9tce+111d7mzJs3b6VIUS3fGw/++q//uhpLIpEYDAhHqRH5mN8yL2auzDyev3tlZAEZnVKjzXXaqzddB6m5LnLMKYHE2govUviXf/mXWoa38GtO+d9KxuHZnL/6q7+qbwlnKIlEYjjEAo2pLD6p72mcZKFHPxleIjGb8WdL89X0PfMSv86bBpJITA3TQTTOl8lNtKWdJhLvxNy///u/r9lYIpFIJBKjirkWfXihaUZ6iUQikRhVzPWzFElkaw4m9+NFuib8ffp3rzmTRCKRSLyNuUlkqx9IKkjM6rcXX3ihPjPhN7m8Ad5Laa1oc0wSWiKRSPTGnOIsV55yyin5ouHVCA+8eqODtzssWbKkeboQ2Px11qnEZvNgrXlMb43wPFG+5SGRSCTeiT9bzTj2fWI1Qsblodi7fvvb+oBtU7JjP81vE0j4yf+rr766/ry+h2YTiUQiMTmSzKYRSoKyLnNfnki3eYHzW2+teEe50N/KiL7xJnW/OOw3uUQXHpPwkK2Mza8ZJJklEqMN0wl+TUE1Jn5I1ltezI/zF4npQZLZNAA5BZF5+4Osy/v0/MS/p9SRW/dbHLbbbrtKYH5M0gtod9xxx7rJzjzN7hwv0vSZSCRGF6YOzIcrh11//fX1XYL8A3IT1CamB0lm0wRK6SWwF110UfN//s//ab73ve81//t//+/mRz/6UVHeG2tkFrDoBmH5lQKbRyMQnAguVjT64Ubfxw84JhKJ0YQ5b3asUvOrK3/V/OxnP2suv/zyuk4hyWz6kGQ2TVi+fHl9ySyF9TYVvwqMoGRm5r5kWVFSQGZKiRTcZsGHzI1ymy+zmnH33Xev18j3ZCYSow1k5pdI+INnlj9T/QQb929bYnqQZDZNkFUhJasP/Zrwcccd17zvfe+rrx5SdkRmjgFkRokpuf2I7JlChkt+97tKft6NedBBB1Uy82sGiURidMHe4wdj43Eb5OYXEPJF0dOHJLNpgrLhfvvt1xxxxBHNBw44oNl3331rdiWzsgjE5idC2qDUlNu+e+69t7n9jjsaP5RqSb75NMSIIBOJxOgi5tNNIfgUrKreILO07+lDktk0wZJ6yumNKuuVv0Ve/lZGRFhq490rl3yvPOmH5fw6scUjforn6KOPrr9VpRSZSCRGG8jMIhArk31uuOGGzcKFC5PIphnz/qHg2muvrQsUZBacaK+HdGUYymaWmFpqykkrl8XgGDxRCEftV3P9LdW23+dsgz7Z2m80JxO1cT+waEGHTG3rrbd+xwPplNuD0zfddFOV/5577tkceOCBzW677VaPG6V6ujHvHncruOIXzEEf7UfiM7m8or2yZQ9l0m8OyJhGm8M5mR81vmwh+hS6MKrQN31RIWDfNuVxPoE+Rt9CPsbYuM6fb/6nUzafLhgH+mLVn/lkdtQeh9C1mKvW9ijd+1u7tDHGyLn6MJlduaf7uK7z3Ne1ycR5Yd8TgazoPLlpl7abH2PrfnfL9VRrVHD8cGuvF1Toh0DYNUxXGBdtDF1zP/tcl676tzauDURJBz2+pO9WgQ9EZgbUQBPqPffc09z6m1ub397123ou4clCCNLge07K4N16661VwPb5VdzJFGEYGGyDa8C1jZPx9zCb60Avhe0FbaJ0iMoKR/1XOgwyI0eGSEaW6z744IN1MDxv5tP9GRO5OraXwq9p6B/FYvx+/dX2yCOPrHKG9MVcoMUtDJ0hylpnGoybQG3p0qfH9PeW5o477qiOiD6Yv+TQOEZ9odu33HJLHWtj5JnBqerOmkQ4cgRl6fhtt91W7Vz/VAlkFPrGedJtfb/zzjvrOVbexiKHqcI4sGO6YxxuufWW5rd3/rZZumxp2dnUMp0xsc/4aKeXD7Ap9+e/nHuv0n2xL8ewQzZO97SzPU7uFwSOgFyXk4xg9PHHfT5R2+T6xnq88/k9eh424FwE4zr+TV7aKFhFZqYmJiId1zQerknXyJm+uf5rr71axmP9anfszCNAZOCT33CusQrCm60YmswIiPBEGkjqyiuvrMtMZRVLn15aBzhKYwzhkksuaS644PzmN7+5rRJZ/Hz8dAtXuzhISsNp6phobNCNcYQxMJZh2xlKyHhuvPHGqsQUy4IOZEbBKD6H4XkTxsbIEJmI7bXXX6vKTzn1SXvIdaZCX8hfJma58VVXXVWdAV0hC0R97XXXNhdffHF1jJwAOdCFmQRt1ReO+o477qz6fdlll9UxNB6www47VP02tvr5y1/+srnp5pvKyU2z/XbbNbvuskszt4zXqDoQesgZ6rOy99VXX1VL4MZWCZ1+8g1IwmuEPIaCKJCDxUrIfKpkFuPAz7AB7bj8istXjYNggz1pw3XXXdfwXfwRW9J2QBDOveaaa+oxSISfEoToh3F0DF0Me0UQ9957X72esUUSvkdwDz74QH0jz9Kly6qfUyIMHxHnv/rqK9XvdeR2dZUZWTifD/AdsuELBbaHHXZYbctE8iID/kjQoG9sS9vY0PPPv1Dvz+7Ixfc+9ZFzF1wgSu0c5eCqF6aUmYlMOCdRDwXeeZed6wU9zc7IKbvreDCQMjjGGy1sohHKPt2CZYCc5+LFi5szzzyzOhhOaNCNwhCKNiPeYY2SsYmmGNIVV1xRIymC9mA05SJbbUZicV+Rl0HhGDnRq6+6uhoro3Wuh6lnKhiUqFhftH/TTTZtDj/88OaYY46p83+Mn5O573f3NSvfWllXeNpMgM80cErGS6Bh/PfYY4/qrOg3ctZmnxw8B8VReE5QP31ykjCqziMyE/2nq7YIzGResmm6y9nLOtiKsVQe9zkdv8CxcqX55derExecCv72et9eVc9s/A0b8zfb2HvvvWvbtEf7bezPcQhWuxZssqCO61ulL47dpQQdsuwgMz4LKV9wwQVFl5dUP+VlBkr+nRXFmxbf8FS9hvFHFBGYO18AJHM6//zzCok9Ul+I8PGPf7wGsNqIOLWPbOmIn93yDlw+UxvGg/u430MPPVTHQJsdL+jWXt/55CPoKd+NAPldJKiNFqAFac9GTInMDJwtoptttt6mKg7lJ1yCI2ybwRZ9iEIoxNaimSL46YYBjDZQKu0TtQy66RPSoADIbBgFYCzackdR7EsvvbRGapSSo/PiYEZCttoYWSB5Mzgyct8dtt+htiMUdNddd60GOBliXDgaUZlB9jnMxlFAkPlEzsn9qvMvRCwq5OA2WH+DOuY27VZW1s9HH3u0efCBB6sDObgY+F5jDmgyxPUFUNrlOt1t7XeLPk2k123QJw7CuBgPdsEJheOgY4I5+qKfHB5n7njfTReRaQfd0X99n0r/XUu7eum040A/OAefshnEzUac79/kQV/1nVP2N6LnbKdOZp1PbXF/hIokESpC0B+ZPftAZOTuWEE2H0BeHHn8gr5jfSfg1TZ+S/BB//THuAomBWMCyI037owrwtEnOkxv9Nk1wDXe857d6/WQqnsLXMlp4cKtyvmHrwpeBXPs0TGcrqCeL9A2NjaRvOi/fpGpduhnlFYFVzWZKGOkL/RPPxH57x/qlFOdQz7uP2xgPtPRTWYDvTWfcCkGIzMIDFv5SDZkUA0URywyMVicNCOgDLFNN7RlaXEuDxRloeyUcxggYu1mmBzxMApAmSjbhRcuLtnpDdW4lBUss//Wt75VSY08OGmyo5TkRnGrSlNs1lw+tYcR21xjMoTTZ5QiM2XTYSG7FgVqqzZMJAe6wLEp4ygpy1Y+8pGPNJ/85CdryVQ/oROxnt+cd955zW5Frl/+8pebo44+ujqcyWBcyVNkalzJa1gwdEEKBzgZjANH4N7+9slJnXPOOasybLJxPQ6ErSC4kJMsYrrAaXNenDg98u9hwGFrt/HU7sn0Wn8Rv89w4IKU008/vTpVfbchGc6anXCqjtX36XCa5G4LPxNk8+Mf/7hmTwKiT3ziE82xxx5b+0UudM+bdpTg9JEOnnjiidUXPV+Cy+tvuKHu1wcVgy984QuVkLSXbgnGfvKTn1SdVlX49Kc/XUki/BX5n3XWWc3Py7aw6O3JJ5/cfPGLX6zj7nw2cMaiM5r58+bXlcgnnHBC1Q+yp7eqMGeccUYtfbr+5z//+doOmIjMtIUuGo+wtbPPPru2g8/wLOunPvWpurBMkGw/QjZWnLzrf/vb366kNpE/H3Xwc+235k/pJ2BkIbI6AhTVcLyUzAPDyIyQIQYsFNXgcMA+bQad4lAufw8C13uzDPjrYwPvusNAG7WBwg8aYUafRF/Ki2effVb5trPqiuEznG984xuVKDn5VXIobfU5Ecy/kEevtui3Up7AQm2d0Q8L0dzxxx/ffO5zn6uOg8GOB46Gg0dU5gMY0De/+c1qRDKa6Jf5jHPPPbdmqhwgMhOZcoKTgZPixJSP6RjZDgv346A4oUHAoWr/z3/+81oO1ucPf/jDVcdlJVFqGm98xhvXQXSKbbEp8lW2R2zDgA6yx89+9rO17DWIYzNne/PNN1ciEQEjCk5U/yO7aRNY6LWNrNiEv/U77HsieU0Ec2cWmp36o1MruSJlfurQkjltUvwNh0Y+yMqxAqmvfOUrq3TM3JXSvT7IbhANXdB2bfN2HjLmw2Rz5IQIY7GaPgSZLTrzzBqEnVxswz30R7AmUDur2LxFHZ/9zGcrobGdaD8d8gorxCfgc38Vq37BFpRctZE98CEImT5rDxtFmmwfKQsAjBMy0+e1hcymVEyloCJ5G+WQVlMIEVsMZhsUg4OIlUYcv6iewXBcw2ZVfgtMhOye2jHMRnllQMNG17IshmHFkb8ZuzIhh+eatjZRM5R5RX7aPtE2CLFT6KiTG4NhN4TrOhGVTgSOgLOTOT373LO1n8YdeQc4NBGjDMvYC24EPP3ImHwYIWOUUY3X1n43FQNjPCi0IXRKu30ie+0ho15OmYwiaPP3IOAo6aPsgi6N169+NpG7a7hWr/Z2wzixbX11PvvWFhUXcunWz7BvDpx9y1hktjIfFYNh7Ft24nrLn1le7+ne5L9hISr3t58jp2P0S/vsj6BRkCUQ8Inc9CcqHb7jEJGMgND5CLsdaBm/P5U+KfPqX7VbpFz26Y9zbW+teKvZdpttaybEFwUQkcDkuWIj7kuW4/nGyRA+80mVntI2WR895LMi2NS2yOQgfM6gYz7KGOo5swAhc2iYUWZAuNJokbmBa2cVUmORvCieciMvChgRqMgbCTiPE+u3DRTWIMa1bP4edNN/19Fe9+5XCSgRBRKh6Zu6uUxMZKQfnDk5HFgyXvJpR6f9bv3APdyPMU7F+cebSxidtnY7rACisjpLIPLsM8/WTFxkyiEwMHKJEguS5zjoBiN0TK9+2R8OHVFyYuO1t59NnxAtQhoE+sDZab8If+68uSUjOLRmB4itrd9t6Kssgk7YOEKOpVc22obrkqM2K+2R73h967Wxaf2nk+4/0XiOB46YE72jjOHTRQ7GTeWGM9Wf9rUik7aiDoHpP1vkF+iJRUJsgY72G1jQMfK/8447a7Vh64Vb1+zSpnoC9ivf2Y+0zXXpt/38E59j/x8e/kNdSCIjogvki+SMrf101bkyO7Ky32bskBU9f6Rca+tCVmwZaTrfvPjdpX/6/6EPfaiOE9sBvokc2MCvf31zJTrVCedGGb4faBv/eEPxm2S+TxlPthQ2inDJmq6Rtb7rh+oBeQ8y5qMEdtaeMxu6lxSFkJEZMjCYvrMZxG4BhoFTCvNKjjMY5qmcSymQqsZRoH4j2XA46uZSTnXlYTalMOUKTss1+4E26ocSgIyMwa6zzvw6gcz5ckSu5bgwjncDZE2BGSFjlXIPu3FWghGOdCIj0B8lUuPOQfk3ohaRCgT8G8Erz5jzYfRkgWgd049xOYbz5XgY5Xht7Xfj3DiSQRBZJWcuyKKT+kRXOY/usTTO9tEFjtUSbeUrpV8BDlkNAnIkU8RBn8brVz8bB0sXEQjH1y/0lX0/8ccnSub9XAn0Xq/f0Xfo7r++s2/EgCDIL6o2zvE9omMjrtOPjTnOGMjMVry5ouqQ7BAR0A/3EITSLzqnj3wKBx5EhEyd7zvnkqlz7ddm4/JKCbRVFCJri/3gGnSALhuTrQqhO84x9pHRK+WTrrp23Ft77OdoZaXPPvtczcicO0hQ4zraqQ/6aRGdhENgoQ1ATvqhneQatsYnxDFrA4bqKYGJBERiIoYw9BCoDMcgtDeK5xgKoZQlsjD/oL4sWqcABt0WBtMPOBYKg4jUtU899dShtp/+9Ke15qxspr39ICIikReSfuWVl6vz4UA4z8hQXO+tMTm8GyA7Skt5GSOjGnZj1K7jmmHQ3dAPfY9xd5xI3dhqh30RNXHky4sRbrFFpwzt2s6PbSK4putxXJzAeG3tdyMT7esXxkwlQWDD+Rpj39FLzlG/V46Na2zkEKVm5TXzNObZLDHnhOj/ICBH+oP8Oafx+tXvFkFGP9CXsG9ZjcDzpZdfqvqr//rCvo1xu//+rY/aLLOXpZs/tfhJMIJIEb1rcs7u0Qvupx18ivORlf7oC/0wDmRuo1eIgqxiP6IT6BqzTRZsUh28/dHm8Ekr3lpRCYaeIaOANiJT7ZadsQ2BHtt2feeGDdCvsAHXdi4C4h/5FPfSfvcgo2hDL7iOe+gH4tRP1wnSdQ22Rkb0dZ1112m232H7GthOFpDORgzVU0oi4pYNMXqptdILwcvUfNep33Y2AjcA0vO/+Iu/qIsLpMG+oyAcViiDbZAI0mBRcKk7EjHZPczG8LQpFLUfUC7OSlmFsm+zzbbNoYcetmqhB+g7Za8OoA8DHjUY826jNP4MWNnjsSIX2GqrhTVqNr6hFzMVnKgsQybBIckO6RdwKhxcW7/JIByKT2U9QVqc04/TminQVmRDr5WsXn3l1eawotM777Rz7ac+vt1/Kx87czQLinNVFfjSl75UF2iQgeCFjftk5+wqiLAfkCX52xAy/WHrAe3gb4wJ5+4+7fmo2O983yMzx7X1b+7ct19DZ2vbvrY6n69zjSh3qya10T2+5PR6kaFASHAj2CaH0P8OiXb8Yi9ogyQBIRsX55OFT3ANZC5oRJxbbrFls9+++9V54rWJyKDv3oqQlAKVTWKFFSHKqtTlRQLACYi+zIPdcsut9RzkR/iblQHlGCiDf1NCJRkZnohJicv1EEG/hGLALJe1eskqJMteh9msMFKWEXn1owQMjZLXJ+9//etqrMiQLER5CFkfKC7S01dyka34pKSjCv2yeIVjEMnqC4NlcFFaNP4x7huNZQZIzvJpb2QgB85wpkDbZCGWont4VpnQONEHYyrbEBU/pWxUvv9dOZZ+335753VX9nGW9FdwN+yikzUFzhp5Ccyi5M6Jmn+VWZEDJx32HXNN99xzb3WyVt7qr3krx0bmYIz5Dp9sJLLzfuzbmLCbNlnxEwH7tZsfsr+7hKdddJCtylIEKXTzuuuuL37prkqqW265VbnmZvVa2ulYBGHTVzJ58PcPVv/GxwjakQnQffel43QA8bEBn7fdfnv1a+zfMfPmF39QiJN9mJK48cabamCgTZNBH/SPDLTN9aJ9NtcwFvwsv6mkTv+Qfr8+dLagrwUglFjmIVL1LIMIgFAprQlNCsZhKxFyavYZAApCuSghBaDctuXLl5VIovPuRuU5SqMGjAxEdEEG/cCAUVSGIvKRWenDMJs2uLc2TqQIVYmKPB4ufWXwZEc2hx92WF30wZlRcoaiX1Fm8G/GomRgP8PX7lFEyMYY63tE6xG5MzxGyshfKt/TLf922vLlzxRZvFX7T97durYmYEw5Ic6ZfnMO+kNvOTDBF8J+9JFHK5l5DIS+24wlvYsSlU+6aKxF5uRDJ2KV6EyDvgOCYo9IXJRPXy08kW3JSIyrvii5ISbyMqbsmu0YR/ocGx0x7nFd8iQDxIjwetkY8CdK+MZFW/ga5EqvHOPagmHjZQGAsRJ0GAdAKoIm46A/fMrLL79U22KcjIc2GCskE+021vp5e7mvDNV4H3TgQc2RH/pQDcatpHSca0YAx8b1ic+L76Lk6Lsnyr832GD9av/+7Xy+ivwmswHX0gZ+UhkRSbEdfXEPJIZwkSnZKO/KHvXPPWyzFcjd+OKcvheAvPXWiqoAnDPhERxDt6pIBIrURCwUjoNDeiJzAymiCeXy7xUr3qyD4hiG4xkS15tXFEFkYWAHGQDHOke0RzFEQcNsSEw7e91fH5C1PojkKdueRYmshGKsERkyOJEi5WMsiC9WfQ6Sec5UMFzjLZv2ydFZgGNMGRmHRT/22WfvavwPFcdDBvpPJvRiMiNenTCmImDtVhrlyOiEMTW2DIWT5CT+VBy5cbRx5hySMQ8dNLacIvmMEmRhMgmO0RghMMGtPhsrjlJf6bJHajgRcpON0vXu/iIEOlEzmxLQuQZi5CeiajEZXBtpIgwy7QSbW6zyJb4nf7YY+9lb7AcOPTJFGdztt99W+yjY8B0yQ04W2Ag4+CGVFtUnmwqCAM0KVg9ik4VzA4J4/YkVjEjHo0ZWNdMn+wTouxXdWafI6L5776s+A6GR76alfXRlPOi/TUDgBcv8KjkjQvfx3KZ7CaaXl76Zq/cwORmTA/mOuo8ZFH09NK0u/sc/PlmFKE0XqTJuCmFwKZTIjdKK6hg15XUMJfNvCkwxDBCDEL2LnDgQSkPZXPekk06qbaCIMxH6wMj0kzwYvj5SWu1nWAEyIS8KzNlRYI5/2229+me0XzNDDpwJxy8qtTEesqAX+qrPnMfvyz4Gx/FxHhyM6NLxM8Hp6wtHZjyNK50WpAlO6GHorD46hiPVF/v1szu6dj3zyVbJco4ebvWwLmc406BvIMvRd0GaQJUjZsNhh4gJgdHnCGQ6Uwbsu7OCr+08HRcBHD33ID5ydO1eeq9NNm0ib3InO6RBv4DPkblFm4NUEG7oFMcvAGd//IwgaueddyrbLrUqgEjYsgzbcXwg8jC+iIMeIAZtRlbhx6Kf2igIYAPayac5hh+gP6Y/Xi7ZQ7TTefZ1fMC2qypQbbkFYlz4xnPPO7e5+KKL6zXN7bMftucY/kYbty391vf1y7/p4njXnG0g74HfAMI4RRPPP/9cGexO6dBAM2KDQaiEK3ujGL6LYwwu5SLcGCCKKHITvTjn2mu93fr6+reJc1GQwW47iJkCfSAPzk1f9UMUzzmTW9tQo2ZP4fWfTBzblsmoghy8FPbVVzt9fLH00eiaH9u4jDsj07/Y92qRBX0JvYmxnQky6Oivh1ufrzrIkXHi2hr6zelxjsZdmZnTEJnHmLf7MYpkFnqqdLNh6Zv+WwYe48T+ycZYgjGmy0pnc+a8rct0ni+xohP5kY3yXxAZ3e815u02hc+RxWxayIjudHSvk7WwQeOyWRmLOh5jegdI6dXSH/16qRyzfrl3rcKULUqKrsMfha36dN780m7XosfGOLLt7rbHuV6bhbg6vs8LHDovB7Bf+7QTwga6ibEb0a5rrrm6+eW559aVsR897qPNJ0qwv0sJIvgdWK/cwzVVPyJD7iXf2YKhyAwYqEEmZAKLLWB/bITZ3u/fnAHCsxnIGExZnwju/PMvqBGY0pR2KO1MlILPBFA0fQ156EtbHhD7ya0tk9mkbO0+gnLxnLF+gu9XyYkMxpHTTIA2hn7HWBnTgO9txh0cMxEhu9aokFmg1zj92TiX/SGnAKeuGmGOTHmRc1W+U8ZDjpEx+HRet9y60WnTivLZ+WHMbhuzP9qNfMbTLfs8E+nRAvejn45rQ78grmVry6D7mt2Ie1itXO8xj+50dMO17W/LrZ++O8ejPp2f0lpcMzsrRVWuvOM0VkbrT71mV5/WBnST2eSj1IIBQC4UNJSxDf/2vf2OC2WPQRPxSfUpOdIS4Rqw4grq5vi4fi/lmQmIviLliNq64Tv96pbJbEK7jzarHNuyaI/roK/oWp3QrmhnjFUbxs0x0U/HtPUbOC4bwhO82fxt48xksuE4Zxp6jZN/v2Ocy9/tY9gym+Z0BaeyOCVYBM5GYrGQqQWvh+rY/uTotGndd2RGbUR77J9It3xnX4zZeE4/xjFs2vXWLW0ez8+Nh7iHfnZk83ZFyXW75dbWmYlAPjLSZcs6P9Lr2sqkVRZjbYy/10YiGw+9R2qaINW3KOQXv/hFnVxVY5Z6m6tQX2cI0m+17yjvJBKjBmRF12NVJ6dOx31GVjcbgbjNO1l2bnWhsiSb9iiGRQrsXqZq8cgzhdhmsyymAxEc0CO6g8yUPNMvTowpvZtxEKjxuoeFHrZYOWX1mH+bULdsV5nRZKs29BPBJBIzAZy3yoOs5PLLLyuf19UgjSOi+5wSZ6/Mbo6Dc+on6h8VWAiFuJCZhWDmiZA5Oxe4Lrl/SfP6n16v71eMdxO+G35mtgDZ0ycytYCEfsnMLFxRspWVre3oXpq/2sgs0m2DQJGl3O7DqJUj4mFTK6jsm02Gnpj94Hw4HIEZW1LSsnLNisdYvemHHwVtHFIskJkt0HebzNTqOitara7Tb054q4VbNbvvtntdQm4VZNr45CBHgY/ytIUtdCgeg4py49qObjKb0u+ZDQJps1KESWKDJFo1UBQaobmnjZInEqMGuuwVRYjMCs+Y8A8gLsGbFa02ZDebwJ6RmYwsVtp1g23HKmfyyMrLxOAvo5oVKyz5SfLjJ2eb/gyDoVczThUijfE+IZQ6FTwxqmjrdVu325jNet7udz/9b38m/hxtWcbfbb1J2U1hNeNUEQMhE7MpOcYW3+UAJUYVbf1u63Z7m816PpFtt7d2/2ejDKYTIaO2PFN2kyOL1olEIpEYeSSZJRKJRGLkkWSWSCQSiZFHklkikUgkRh5JZolV6Cwv77yCqb2KKvHuw1Jscid/f6fsE4nBkGQ2zQin5IE+z9zEMyIz1TnF8yxeLeanNGwe/A1CS6weeGv/M88sb/7w0EP1TSHeZWhccgzWbhj/eCCfjXrFldel+fdM9itrAklm0wwK5hVGXuPjtT5eruoh8ZmqdNrr3YHe8r5o0aLmrLPOqr9qi4gRXWL14Jlnnm1uvfU3zak//nFz5pln1jEQVCTWboQ/iV/V9rowP5DsFVcCZvsTHay211nNZiAqjt/79yjc4sWLm4suuqi56qqr6lvE7Ysf9/OsyEyBCM+73/wy7g3XX19/v8rrhrw7L9+PuXpBzuTtzQ70SCAkS/Z8kXc51je+zyDdSaw+BKEJOC++5OLmzt/eWX2OVzitzS8f7n6dVVrHNEEwIAsTMclqvLJHmYhTooT1py8meM3P6gbjoAheACsD8GsGjCLej+ldmZxnEtnqA/l7l6NfLDcG/k13Lrvssjo+yktZUlr7wAbXLbboB1NNWTz0+4eqA1eGZp5po28jyWyaoJRo44Q4pI9//OPNIYccUt+l9sjDD9doW517TYND1E7Ei8hkZvDBI46ov1jgJbDxEzxpKKsPsjK/guxn/ekNHaI7AiE/dqnMZNwSaxdqxl7IjF+hI6o8c+fMnZW/vDBVpCSmCX6WwQ8RekfY0UcfXYlBpuPN4UhMSW8mOCPG8MLzz69ykrLF/fffv/ngBz9Y25ovel5zqI5r/jr1zfrIzE8iCSqUrv1ckrnNxNoJv5QtM6MPfI1fJvDDpRlwvo0ks2kCEgglk9mIsn2KoCgi0pgJk7Vq779/6KHmpptuqsaxyy671LlSbY05sjSQNYOQPYflZ2L22GOPOjbGTEn4/vvvrzqU5ca1C4JggYwFQfyMoNOWc9rvxEBkFgsdzA+ZAzI/5M3FnKLvA/5N8A8Vp8kIffr3bC2TUCjpvnkmyuYzJvNtQD5r2gm5v+W9xsPCFGUKE6c777RTbedEJQtLg2WWSpN+MND8Tdup+lv2SSccQyeMdVsnRhn6Zx5U/yzK4FjoeIAcwuGwCRPSbMT3w4w5ffLLFQsXLqwLcowTuS9ZsqTK3njMVIQuxI+RkhlZ+R7ohPaT1aof7iz9IjPzuMPIayLEuGmLcfMDotoS4+J+9inhPvHEE3XM4pGU8HPaZX+0L/oxEex3HBtgZ36glU0ISOLak8FzhmFr5kzpk7bZyJJfsThLsMNee5GZ+9FNc2xk4Br6pZ32uR+dcj/9dNyo+um+VzMa3Oi4CFHZg0PUeY6w/VtklJnxmbhWzqIwzjcHYJtOGBAbRZnqpo2uRUGmEvGEklBksqLYJvX9sJ4f2hsU2sUoBQTIyLWHqZdTYMZxyy231E3kf+ihh9byaPccmT5AkJSx9qvgjz32aDHWV+s4Gm9tC4I01q4vC/UDgvaPck0/9IoTNJbKfRyvsSAv2Tf4N8fNJiybJjP2YKyH1SVyi/ub8NcG1/Fjn7LosLWZBONOF5AUOSCqcMDt3+CiM22dIlPfkadtqjrjWtrCXoxbtAXJuDbZaSeyuPueu5t77r6nOnrnhe8jb3I3pvwYf+ZcdmeDGFfjtHIl8nt5FfmxB9dEEvrKTzougty2Trgv29QmeqTNQYIRFJDVbbfdVuVo+kIJWiVoIlm5l+u6pnaYGydrvsj3+sCPuAfZ3H333fUedJdum6OL8ZqpMJ7t1Yx9kxmjQmQWDZx77rnNBRdc0Fx9zdX159A3WH+DGikosQUMIIe56MxFzR8e+kMVkNVa5gOmEwbNoIh8tE9Uoy+DbhyS61CyGMRhnFBHsVdWY/A7O5REmw444IAqcArYC85vg2FS7iuvvLIapsjJL892j1Ov9opKKawxZMgWGvj9Otca71xKj5yuu+665uc//3lz6WWXNr+59dZqYMjKWLqmPv7yl79sfvrTn9Z2Mrjdd9+9OibjPooIZ0CnzC3Sd8/gXXPNNTVK5hBjDBjUpZde2pxxxhkNWwJlIPs5m2H0CEIPyNQ9yZpcXZuMh73uuwFtlW1x/uedd15z/vnnN1dccUXVDXJk++1SNufOOVutaeNct99+u+p/pqIz2oEYENkNN9xQx41uekyG3rq2e7FN+y686MLmyquurOPGD7B97b3++utrHy6++OL66IqyPB+4xRabV/m7jn6EnvhhVqT3q1/9atUKVM4Wkein6/t3TEWE7UZ73Vsw6Pe52DkyZPcCA/ZK7/wtIDYfb557Mh3QJvqCwOjmL885p7nkkkuq/UcwjOj0z6NEjiEj9q5vqgJsHGaSnrUxNJlxyAZG1CHi1FGD+7v7flf/Zrg77LBDNV4bZeUwDeRWW25Vhb/vvvsOlZlMBm0wyBSIw+VwDNqgW3sgLU0PZR0UlJMSUkxtokzmzURSFJFB9wJFRM6iwSjP+jfZi5z8FD1lY5xR0nOPiaK0gDERoXE4xvvwww+vUZ5AZDxw5MYcMbsnI3zxxZeqEWyyyaa1DdqkrxyusZU5yPTe+9739tWmmQxGT4cRCZtAJGRNdv6NzI0LspNdgNWgntMjB7YEwzoDuuTcKFe5l+vbZMYzycnQeXLSVjap79pPd/zb3Cw9oxMgeNQnzog+qRDss8++VaZT6VcQAxJlP5w2v0SXjZ2NDTlGm3bbbbcajPMhxpuDjIBY5YKsBS7a6nPrrRcW/7DDKvmzVdfm55Aje0B2H/3oR2sA6x5IRwYkw6I35BA291Zp79PFhukQ8iQLtnPcccfVQJM8EOWjjz5S7Pe5qlsHH3xwtbHJAiX9pLvk67gdi+/xyV/oY2SC+uF+odvaaNzYtr5Pdo81jW4y69vTGARRhU6L6G3+pqhtpwqE4XvKsc78dWpUhiCmm8gCBoYxiUR0cJiNgjtfu6cC12HQIjmkwZgR4yBKwUAYFOJBsiJcxuTaZIxgRICiKkZA/s4h98nAgSA0hkqJjQdDmwhheOZtjjjiiGpExvL11/9U+4iotdH1kOInPvGJaoT+no5yURv61h5nshh2I0PX6gXtF3zQc9GwlapkQdacH4dJBuTP6XzsYx+rMnAsh2a8p+II6A3nH7IkZ+NHBtrQC45x7HgyGGRzDfKa7J76qZ2cNz2xOpYe0DNBImeu/SETdmYc9AvZkLGAaao649r0VuCFjKwK5fjpOufNWbMt/gjZHHTgQfU4crbPtAByijEXhCI8GRv7UUrk1wJByleVbEpAgzwF7a7tusiHzpjnQq4IhvMNe9Um2ZKEQjBAj5CY85EMQqFLGxXZbrxg42qPkofuUmU37NMnTl4i4Zr6zHbcRxtcg2wEtYcddlj92zirqtnfr57NFPSdmTEsdVTCJFzHMCz1Vg5R1kEBCNBgM3apNmdOsQkzMrfpRHVyxTB8Mibtp3yDbtpO6fxNoYbJzAw+RUBkZIp0XCcehpW9amMv6IsonBOwUT4GKGB49rlnq9zd57nyuWFxFq7bT5spKIJlsOuvv15zWImGdynGMlG26HqckTGP67uG9igpGWcOSRR3xNgYkx/DjRLIoDKcCIyMDOiV9ovIRMGDbsaEruvLZGMRbdcPjlH/OURjwHktW76s9p+zJz9zoh/60IdqRsY+XNs9pgrX4OwEDWyJnu69916lLeZLJr4+eUU2zw61uVsW/WxIyHW0Q2Yynm+AkBVHywbJynmPPtap5pALoqMr9Ns4aJfKg30f/vCHq3+IEv+w0I4YW/eiv/RGeV7QYazYomC8lqbKsWyJXbArhIpIBC7sSlvpu/30ADlx+q5rH4IynXLxRRfVe7MBgZ9rkweZIRDBn/5qlzHUZ+c/XOw7/IVkwbnaRoaI0blI1nTOykIsBx10cPXTESxNBPucz3bZI/DV9IgPRpQIDOG6FzmwbW00xkgUKRuP6fbZ0wVJyFBlRh0yMAjNJ8dt8DmWFSveLMLdujiyTnRFiQmF8BwrWkcUUWIAAxnRiS0w2QCNB8dvUJTG4BogUQhlHHRznoHltLR5kHZE+8mD0nuVFQHrbzhBiiEy6ofM3JshUEIGRE5kecedd1SjMIgG79CijBQSgVDcXkrHKGUTHNvGG21cSzuu0x6XgDaEA9OWcDL6ZcxlJO7n3ozvwGLEkemN55Da492NfmSNNCjuL37xi+ZnP/tZLSmPVy7utZmP4EA5NeM9GbQr+m/zb+c+8OADlVQ5QfYishXBC1oc5xyy68ageu4YGzKz+MS9OcJ9992vksZ49wiwT1mA+at//dd/rfPc48mj12a+SD/dj2McT1dAO/mNkJW2IV9vrOALOG/yJiN6wKnqlwyNDiMY9+iWyzAyo5fsQTvYCjnEnBciOuaYYyop6YssjD145yHfZhz5K8c5n8zZnjk2ATuyknHScQGDbIz/vO7666uPQ4J8iWtpi75G0E8O7Nm1yeKNMkZI9vobbqj7ZbQCovcWWXlQ2vlkSO/vu/e+2ie2ttdee1dbmwxtf60NxlAVR1/5JO0kh8jy2Bed1h7nGS9j4u9efmVNoZvMhm6lgY6I/Y03OkttpcwgAnIDgy1irRlJiWSAYCPrUGdWRiNkgvT9MJhXjIhiGmDKMuzGwVGYYSBDQTSiNEqrz0iSUpAVpZrM+XQjFNE5Ag0yfenFl1aVfHxPEW1hOP0gnMOcoqC2QYCIySkWsXBMSJoRk9t4bRBZ0gUkz+hNyjNc+qIf/YJB6Sd9EzUKXIbZjAcCmigbnQzaQMc23WTTZpMFm9S5YAbvmoK4dxtsh8xs4wUFbRgLeic7EXCMJ4t+Nn0zzoNmmhwkPQm5IA0lOYQiU5JtsBnX5vxlOtMNMuKkERJ946+i+hL6qg38FhujF4iKfmk/eWuz9pJ52Fv4CP5KZka/wfn0k54G9DfK4q7hnkEO2vSHkrXK9hdssqDZZdddqn0hsoD7az/5bbbZ5vX6g+oupx8+WfuRqS3GlJy0LXyLNgpMJsrCZyqGJjMDSjCMBV544cWqFAYuFg0QOocuw+A4fSdCOuecc+p8DzLDrFbLmfwUCYr6DXwvY23DABgwSicKGnajnJR7EGinTZ9Fd3fdfVc1TP0WfXF+FIZx9OsMGBEFFg1ayaTUw1AY4l7v26tGIYxEdiQQEBiQQS+ZtQ3J8Tb36gfOjfN9Ok8Awfj0cW7pm+8hxkMWuHix1WTnVBITxZKRzJUO6B+599MGhkWPDjnk4Oakk05qvvSlLw21feELX2iOOuqoGmUPCv0zhmRgQxacNacg+AgZdYM+c976fvnll1e5cGT9wrjGves2NgaTwXGct0zjs5/97Liy6Gf73Oc+V99oIzjT335hvNgBH+E8+sC+2KigT5WA/rAR1w5yoQt0m4OnH4JdASJn7vtB4HgkRdYcNf1xL3Ixfu6lXXSQzqru2G9M7efLwjfoj/MQdNix/ixd+nTxe89VX+d8ttAmgSBLbXAeXSEXfX2ufC9jQljkxMbtd29jrv36TRb6oV2bb77FO8iyH9A/vlcbXAOZK+lqp3u5Dzm4FzkYL/2ZyVnZeBi6pRF5URAdNiAEJgJQIzeIBCadJxhCMihRH5b6UyaDR4gM/Ypi6By0gevHwYHjni/ni/YtX0WSw2xWHmoD4tDWXsQQcCyllp4jZzKQjSIzZUUKQ3HJqF/F0KeIXpEao5cBuW7U7EVo5EbWZK4dvaAtQaqM2xj1cx5ZOE7fli9fVsc6jMC+7n6FkzCWV199TXVK/s2I3RepkTmCY8z9OCltZohKbMoj3n05zGaRhol9jmMQaKN+c2z003yZ76Lt48lAX8lMfy31ttpN2Y+u9ENmZOs6Njpk7DiaKEFNBvLiWGUaymbjyaKfrS0vzq1fkEcEOxw1WZCdTEZ5kc3QYbocBOEYjh/ZCdIsUxfk8hnhaAeB67EjY6A9yEjwHZWMIBrXJlv7HBOZl/Hms4wV3dVebXWujU67PtIja75Qn9tjE9eg5+7rHvTY2DrXtev5JdvfvGRecW9jTkZI37n6HmQ6yDiELZKBfmqnbHiL0oZoZ8idH/Gd9ukLmbT7MtMxNJlxjAaYgCmiQaOoauEIwT6OV7RC+IxehECglFvEePzxx9clrOZuEN4fSxrM8A2iQegHBvnxMuDI6Pvf/37zP/7H/xhq++53v1vnYjhgg9sPmTlGnxAzxyxD2qJETiL/9+zeec7KMe2tH1Ag5zJ0jvvEE0+spRhy873Iitw4qfjeGPRSPONgXBgMQ9b29sqs8aDNZMwgjG2nRLi8GiZjNFYhr/bmuhGN7rHHntUxaq9avayIHrgWQ+/VBuCMGJf+h7ENs4VDCKfRD/SHfhtfjphj4ICQmr/Jsrv/9F0f6RPiPvsXZzeLL1xcA55++8wGXMexrmn8OEty6CbPbtAFxxlvhDKeLPrZyIttkpexHATaynlbzq4PylwqL2SobfTYHGDoLl1SqfHMkzlRRIbU+JWQ8SCIzIoekh290Rf3shlT+zhyeqWt9pOt/fT7qaeerONIFkjA/vYYW9lrnDbeeKN6jSCaOKZNSIhEgE+m9rm/e2snWbEpsohrh7x8BhEGEcf1e4Ht0lNBsf44XzvcD1yDbSMywbPvZaexwMQ2KhiazAw4BY85FI6RkioJGNzOqqu9V2UmIspddt65ljy+/OUv14lOysERUxBCpgiUfBCjcW1KpM6NIF13mM0kvsxH9NXv/fVZeVFGKNrWx7oYorSDwswtbaNMlNVGQfsB2TrfnAWyIkvyAbIld1mfbC0WlvRybkDODIm8GBFD14fJ4H6O5ZTNBeqj7IgjYiSMlLGH4/UZ7UdeX/va1+pydaVRuqINDEYf6Iatn7avSXA6MmCOVZ/NI73nve+pY6r/nEE4IJu/nWMf2Rm/ww49rJaI6Xe/IEvX4YToEWIiV3Yy02UGxlh76RxZCYb4BzKh2+RCH0BAhFjoEn/See5sn3p+P057PCASTpqe8zOyS9cL2L9s2dLaHvekn2wj4PulS5fV4+zTD/of4wz8j1Wl8+b9uS6zLYE93XENqzkFua4zGSIQjOCRTCKAM/bt+/cCueuH65Gj/tEj6wzAdwIypClY40skIUh31DC0RRhEg0dJKAKBmQsQhVAaimrQDK5jEYTjKLG5HwNDgZGBwXYMB4kACbxfQnF9iqasd8IJJ9Q5kWG2z3zmMzVroHDurT2TwQpOEZNI2zNf+qL+H88YUTrX6ERGnbeTRPRje60oOmc1HpzHEZBXyBfxI8lYTktGDNN+5NCrvUCJjQnDYGiMnCPuBmOyT3CixGMFoMyTYVixakWX9jDQxx9/rC7ekZ0idH0TRWs/ApNdysQQu+iQwTiP0Vg9K9qkRzMJDBxpWfmFwOqPl5b+01VGLoDQN5A10HmlMYtcyAz5IC1jww44ZQQYfe1nrIDDYlfkRlfoeZT7+r3GmgQdIIOttlpYx5yOGH86SIf1JcaeHdNnukIv7GdHkUEMA2MoC6bLbIjPaZOVcbLfJ5vQrvb92IZ202ffs3G+StlcX6LN9jnW/RxDf9g9W0BI9EO2w27oTWRXzkPm/A2yQSrGm1/hS50fQYxj6RRyZGf0jA3bPxkc49o2/YC27gi4tPGBQmbaYkET2ZPXqKHvpfnjgbGJHJUGI/ogCA53z/JJkUNwPg0aQyRgA2XARGqEaaBEBDIbStVvBOu6jiV8ys8YKMygm/P0fZMyoP3MSTz77DNVqTl6Du8979m9TpQfeugh1TCcr2xK6R944P4i087yV/KigI5ZZ4II27k2+2Lz+AG5IBGf5Eiesb9Xe8ExHQJ6vBoDecloGVr7GkjLMRy4BSiiQ8bKIe+77z7VqTICfbOSlQEja4bIWWy22aarMm06wpDoyG8K8cvwHOeesmGyZ6j9tH91AXEgEHOoFiDQ04iOQz+NIwIjT23nEJ1DjvZzDGTABvztOKTPUQnmkBxymwgcIn1hV+bbnC/QUnZ2HtmOAvSBnNg4HaK/gka+hh5F0EpuEcCRMx0kLw4eYQhWybIf30R2QD+9nYauC6L5JTJ0De9SXLLk/hqMal/sF6yE7yF77fYpI9O+0HMEoz3aadwFqtrpGDrPPlzb+exDIMo/7DSm73SMbARDtqXlGu7hO9dCgICAXnml87C267s/XSAv/kpb/T0RtAP50WXXJH/64zztZo82NrpHkQH9Igs6O5NscjzQp2lZmg+EGNGFgSUoSofIKOpEoBzmuE477bTmzDPPLCnukqLUncFxHQoeCtkLBE45OQ7tMODDbhR03aKMkw2idtkeeaTzzjWOjhLuv3/nF4KVKclFmyKlf6Eon/5axSd6R2ZWd06mhG04Trs2KW0kHzLv99w2KDBHgUhch6Og7BxzG4yPgiBpK00ZOyOXdcq0dthh++qM9Y2x6hfSI5dw4gEGI2A5Y9Gi5ien/6S58cYbqxLKzGaqU+ZoOCxl1Rgz7axBWiEiAYAqggBIpuHddt7SwtEYf/03/vSCjDi4+UWnB3EOZMlRCvo4N9cic/d0vVEAO9ZWduCTbGS1AgL+IYiJXGz0k+xCfnR8EJm1YQzpNV1zHYHbpoUo/Wpzke6qQBx5aGcEIOu19NG/6ai2C1zNfQrs/JsNbV32CcAR1VZbbVlJI1bqnn322TXQZUv6++lPf7qSRWSG7snf1ZJeudayYoueBeQTVXq03xSD/RtttHEldnqmHfSCLOlEBAPdCD9Fj+kPW+d3HnmkExy5l1f/uSYypdcnf/7z5Z77FR/x58/7jQKmlJkZKBE8YwfCV+rjqNYvAz6RQCgDJWGcnGNR5+pUCZXToFgGahiHvbogEmcQShcyDIs+9MdEcPSbojEIMkV0nCFC4Agp9VSMdSqg1MorFDycjDZGWxiSvtEDmbY3uIimRT8Ma911O3MhHIQoTmnCMT5da7313n4BKhkgThExwxR5c/oiKsbGqfluIqNcE9D/WKBBLt7KYF7VGGormQko9BW5KB9xWB569e/uYIO8nyy6bV5CdNxPZsbJIjLzsT7JXjucu6b0ZlDwDxxprGYV6H7kIx+pOkOGE9k3vRAEyebpKV0bJDMDY8jpuw/dY3vVPos9vr2/88vw7NHY2e+1USFb5OrexlSbyd9cHkJm967NTxlH5XcEF6TINvhTx9OP0At67vr6yNc5dvuSBGgDW+MfnIMgjTn7cC1ti4eq2Zl7ubdrTaYLdE7Qzbe6Nv9Mh7SFLvvb/Vy745c2Km0cjd9J687MhiazSJHNqfhEYAbbnBcFmcw5URLOnEJsWwaKUlN6jTLIlM8gO26mwmBTBkpFIfwmmH+3ZUcG+snpRTQve9U3x01kzO8m3NOGrMjbOJJzlFfC2PzNeVAS7bY/jFHb/c1w9d9+/TOe3UGI4+mDjJAcZCovF12TnVNG+hbnzRSw4xg7/ebI9DOcqX0ckX8bz+i/v9sOKzAomXG0gjtv/TBfpx0ckY1zc+2Z7mxqn4t+CXT1g2w4TaSEIOjIRH2YDjJzbcfSO0Sya/Epzlfaj/10nDzpuK3ub/kc55M9MrFfZkUPnGP89SFswXcLix5vXY6l0/TGOT4jOO/WC+cjxKpH5Rx+TynfeWzFdePa7ktnws7YVC8ZsnHZok2GJuA86qgjqz4vXLh1HROL8nYq1144dr9RITIYiswIRpQjG3GBWGYbtVgDLlpgbJSne9CAgYrUOE9/G0SOzZtBKL4Mz2afyMcAOmamQb9s667bmafjkCirdySSW7vf5ECJGaP+OD5KKGtKYbSJwWoXBTc5rgavXatKYqV9jDXa7TNISrt9uoZxt9/m7zBw+mJMjTWDck/7GYtru6/FFfSJcTJ4+2cK5sx5u0ysb3Q62h7j72/fcUTGv1tGbfRLZiE3GTMSiOceRemIwDlkvKZ0ZzLwD3wI/1D7UMhIH8zH+J5vQEiC3pDjRJgqmcUYhQ7XbKnYHp2tb74p+4wTXWeTxjiC53a76G3nmM4q4KoHxUbiuLiONhl719isHOPYuCYdCbtoXzvOj3NDjzrndcqyYav0MO7vmuNdrxvGwFiYM1QafePNN5qjjjyqypG9uVbV7XJf2aj79brmTEM3mfWVGhAMpUJe5j9i4Yb5FA5J+UiJkXFOJBBEprxk/sWqMA6N0npzhMGx9aOoMwUWdFBCJBCK191v/w6DsFFM8lmT0CZtFp2Z7OUgZcXmA4yvcY4Sozbro3Z3w3V8H31zfPSfvkSZTK3f9X1nv3EOWcTxMxHGTVvJyqd/t2Ec9dn+kJH+tPtEv20CNP23+Tu22A/+bbJfcKEsZF5D9iqwU8JWjhdszFQE+SgpIu0bbrxx1QpQ5VlkJrsYT5famExmbXn1g9BhY+S+fE0b3To+nm129GDsGuPoARjzetzYvWyh4/3Ye1vXnCc7CtjnOr7v7PtzPzMeyI1vFhjRK6QdGZ3rRDsn6tMooi/PKuqilFZ2/eu//Wvzz//8z3UC8ZWXX64OUeQoZZ1MKJwbx+apfm9BYLBW0PjeJDqHR7k4WRGDwU28O2BgFFqGcOyxx1ZnSfkRmrGJSWYOZBggQ05Zxk9P6E2UNJWkjbdonXMTqc+krOzdgIUGy4uuCxTIRVBXM5gipwDHI0j0A5/ewE5WyvYnn3xyJTIR+UyGjNM4/9u//VvzP//n/6wvIFAqRcbmyYw10ugFqwz9fhc5ccTLn+ksV7fF0vJEb7BB8gu7Q1yCodlCXOOhrzKjfcpCCMhPEWy04UZ1nsCkt/KHCUzpNCc5UdSgNKmcJVqn+DbXZMA+nWsCNJZrE34/UU1icEQGIeIzblFOFL1F+UEURw+GGQPEyPEYa2UyY43AjLVl0vSAnhlrWb17zraxFgwgL6XCeE5N3zmYIHsBnIoFJyNwIBe2Zr6EXNgjO0P2xqKfiHx1I7Ioy+Bl9kpa/m3+RzYW5VH23MuRktddd/22rgy94YYbq748vfTpEjR3Xhsl+xMYtLOUxPhgf2xOYPr4E483K99aWW2ardG32ZAsdJcZ+yIzBkeJGChBKCkislWrdPpQ1EAYJIUncNdmrDIy826yhTDexLsLBEKpkZhxVyam8Or3MgH7p0IyHF2Mt7GmPwhUzd5Y0zf345hmGyJ441Bko/pPzioY5j9kKXSccyF340DWAovd3/OeSgDGJKLpmUhkAbaMbIyvflnEIFBRsfG3Puhbrz7Ivh5//IlawXEtBIjYbUFg9JLOhFwS40PAxKdz+AJWi1hUQWz0cDbYXDeZzSkOZ+Upp5xSv/jqV79aCaq7HEAwUlXGySjt36gIaIOy9RsxcmxxHcSIxBgBRIZAeW2JNYM3iwNeUcbEeBoTGMaJRrROVygcx2S8gb7QnxjvfpzcKEJ2qs9shgzoPrkE9JuMOWfBm387xzGctH/bRgVsOvyD9iMbYzyI06QnroMY6U/4h9APhO+aru26oySf1Q26RJ4CBJ/A3ixm8ejMbEgWZPKmrWSfHh3qi8wYmC0UjBJRsFCmfpyR88H5cb34Lq7VvmZi9SPGo41+xrYbcR2f7fEG12uPd3w32xB97u5/GyGHiXR+lOQSviH6Gf0apA9xPkc8HlwrZBZ/J8ZH6FyMC7THZDbIrpvM+mKOUCBsLjryGaWPfoUSxzrP+aJS17L5O6LRxJpDjFF7GwZxbuhM91j7bjYZ1XiYqP/tLfQ+5NC9jRLafW33axC4hvPGk5WtW3cSE4N8YkxCfrNddskeiUQikRh5JJklEolEYuSRZJZIJBKJkUeSWSKRSCRGHklmiUQikRh5JJklEolEYuSRZJZIJBKJkUeSWSKRSCRGHklmiUQikRh5JJklEolEYuSRZJZIJBKJkUeSWSKRSCRGHklmiUQikRh5JJklEolEYuSRZJZIJBKJkUeSWSKRSCRGHklmiUQikRh5JJklEolEYuSRZJZIJBKJkUeSWSKRSCRGHklmiUQikRh5zFlZcMoppzSPPfZYc/LJJzf7779/s/7664/tTiQSiURi5mHZsmXNpZde2txzzz3NMccc8zaZ+eKII45o3vve9zbrrrvu2OGJRCKRSMw8PPfcc83NN99cSe2EE07okNnpp5/eXHnllc0LL7zQbLjhhs3cuVl9TCQSicTMxRtvvNE8//zzzT777NOcdNJJHTKTlS1ZsqQyXCKRSCQSo4Lddtut2XPPPTtkNvZdIpFIJBIjiKb5/wGEUiuws2aSUAAAAABJRU5ErkJggg==;" parent="1" vertex="1">
          <mxGeometry x="242.95000000000005" y="542.5899999999999" width="114.11" height="54.83" as="geometry" />
        </mxCell>
        <mxCell id="Sw4VsKgp_dIkettjenq2-20" value="Конец" style="ellipse;whiteSpace=wrap;html=1;fillColor=#FFFFFF;strokeColor=#000000;fontColor=#000000;" parent="1" vertex="1">
          <mxGeometry x="520" y="720" width="60" height="60" as="geometry" />
        </mxCell>
        <mxCell id="Sw4VsKgp_dIkettjenq2-41" value="Да" style="text;html=1;strokeColor=none;fillColor=none;align=center;verticalAlign=middle;whiteSpace=wrap;rounded=0;fontSize=11;fontFamily=Helvetica;fontColor=#000000;" parent="1" vertex="1">
          <mxGeometry x="210" y="280" width="20" height="20" as="geometry" />
        </mxCell>
        <mxCell id="Sw4VsKgp_dIkettjenq2-42" value="Да" style="text;html=1;strokeColor=none;fillColor=none;align=center;verticalAlign=middle;whiteSpace=wrap;rounded=0;fontSize=11;fontFamily=Helvetica;fontColor=#000000;" parent="1" vertex="1">
          <mxGeometry x="210" y="365.84000000000003" width="20" height="20" as="geometry" />
        </mxCell>
        <mxCell id="Sw4VsKgp_dIkettjenq2-43" value="Да" style="text;html=1;strokeColor=none;fillColor=none;align=center;verticalAlign=middle;whiteSpace=wrap;rounded=0;fontSize=11;fontFamily=Helvetica;fontColor=#000000;" parent="1" vertex="1">
          <mxGeometry x="210" y="460" width="20" height="20" as="geometry" />
        </mxCell>
        <mxCell id="Sw4VsKgp_dIkettjenq2-44" value="Да" style="text;html=1;strokeColor=none;fillColor=none;align=center;verticalAlign=middle;whiteSpace=wrap;rounded=0;fontSize=11;fontFamily=Helvetica;fontColor=#000000;" parent="1" vertex="1">
          <mxGeometry x="210" y="550" width="20" height="20" as="geometry" />
        </mxCell>
        <mxCell id="Sw4VsKgp_dIkettjenq2-45" value="Да" style="text;html=1;strokeColor=none;fillColor=none;align=center;verticalAlign=middle;whiteSpace=wrap;rounded=0;fontSize=11;fontFamily=Helvetica;fontColor=#000000;" parent="1" vertex="1">
          <mxGeometry x="210" y="640" width="20" height="20" as="geometry" />
        </mxCell>
      </root>
    </mxGraphModel>
  </diagram>
</mxfile>
